{
copyright = "Copyright 2015 Mohamed Gaber (gaber@gaberism.net)Copyright 2015 Mohamed Gaber (gaber@gaberism.net)";
customParameters = (
{
name = license;
value = "This Font Software is licensed under the SIL Open Font License, Version 1.1. This license is available with a FAQ at: http://scripts.sil.org/OFL";
},
{
name = licenseURL;
value = "http://scripts.sil.org/OFL";
},
{
name = glyphOrder;
value = (
    ".notdef",
    uni0000,
    uni000D,
    space,
    exclam,
    quotedbl,
    numbersign,
    dollar,
    percent,
    ampersand,
    quotesingle,
    parenleft,
    parenright,
    asterisk,
    plus,
    comma,
    hyphen,
    period,
    slash,
    zero,
    one,
    two,
    three,
    four,
    five,
    six,
    seven,
    eight,
    nine,
    colon,
    semicolon,
    less,
    equal,
    greater,
    question,
    at,
    A,
    B,
    C,
    D,
    E,
    F,
    G,
    H,
    I,
    J,
    K,
    L,
    M,
    N,
    O,
    P,
    Q,
    R,
    S,
    T,
    U,
    V,
    W,
    X,
    Y,
    Z,
    bracketleft,
    backslash,
    bracketright,
    asciicircum,
    underscore,
    grave,
    a,
    b,
    c,
    d,
    e,
    f,
    g,
    h,
    i,
    j,
    k,
    l,
    m,
    n,
    o,
    p,
    q,
    r,
    s,
    t,
    u,
    v,
    w,
    x,
    y,
    z,
    braceleft,
    bar,
    braceright,
    asciitilde,
    uni00A0,
    exclamdown,
    cent,
    sterling,
    currency,
    yen,
    brokenbar,
    section,
    dieresis,
    copyright,
    ordfeminine,
    guillemotleft,
    logicalnot,
    registered,
    macron,
    degree,
    plusminus,
    twosuperior,
    threesuperior,
    acute,
    mu,
    paragraph,
    periodcentered,
    cedilla,
    onesuperior,
    ordmasculine,
    guillemotright,
    onequarter,
    onehalf,
    threequarters,
    questiondown,
    Agrave,
    Aacute,
    Acircumflex,
    Atilde,
    Adieresis,
    Aring,
    AE,
    Ccedilla,
    Egrave,
    Eacute,
    Ecircumflex,
    Edieresis,
    Igrave,
    Iacute,

glyphs = (
{
glyphname = exclam;
lastChange = "2015-07-09 23:11:24 +0000";
layers = (
{
layerId = "E174F030-6324-451A-8951-EA6336064495";
name = Bold;
paths = (
{
closed = 1;
nodes = (
"199 250 LINE",
"213 680 LINE",
"68 680 LINE",
"81 250 LINE"
);
},
{
closed = 1;
nodes = (
"212 0 LINE",
"212 161 LINE",
"68 161 LINE",
"68 0 LINE"
);
}
);
width = 280;
}
);
unicode = 0021;
},
{
glyphname = quotedbl;
lastChange = "2015-07-09 23:11:24 +0000";
layers = (
{
layerId = "E174F030-6324-451A-8951-EA6336064495";
name = Bold;
paths = (
{
closed = 1;
nodes = (
"350 440 LINE",
"357 680 LINE",
"228 680 LINE",
"232 440 LINE"
);
},
{
closed = 1;
nodes = (
"178 440 LINE",
"184 680 LINE",
"55 680 LINE",
"60 440 LINE"
);
}
);
width = 411;
}
);
leftKerningGroup = quotedbl;
rightKerningGroup = quotedbl;
unicode = 0022;
},
{
glyphname = numbersign;
lastChange = "2015-07-09 23:11:24 +0000";
layers = (
{
layerId = "E174F030-6324-451A-8951-EA6336064495";
name = Bold;
paths = (
{
closed = 1;
nodes = (
"228 0 LINE",
"228 149 LINE",
"332 149 LINE",
"332 0 LINE",
"448 0 LINE",
"448 149 LINE",
"544 149 LINE",
"544 261 LINE",
"448 261 LINE",
"448 387 LINE",
"544 387 LINE",
"544 499 LINE",
"448 499 LINE",
"448 660 LINE",
"332 660 LINE",
"332 499 LINE",
"228 499 LINE",
"228 660 LINE",
"112 660 LINE",
"112 499 LINE",
"16 499 LINE",
"16 387 LINE",
"112 387 LINE",
"112 261 LINE",
"16 261 LINE",
"16 149 LINE",
"112 149 LINE",
"112 0 LINE"
);
},
{
closed = 1;
nodes = (
"228 387 LINE",
"332 387 LINE",
"332 261 LINE",
"228 261 LINE"
);
}
);
width = 560;
}
);
rightKerningGroup = numbersign;
unicode = 0023;
},
{
glyphname = dollar;
lastChange = "2015-07-09 23:11:24 +0000";
layers = (
{
layerId = "E174F030-6324-451A-8951-EA6336064495";
name = Bold;
paths = (
{
closed = 1;
nodes = (
"279 -12 LINE",
"280 -12 LINE SMOOTH",
"416 -12 OFFCURVE",
"508 60 OFFCURVE",
"508 199 CURVE SMOOTH",
"508 306 OFFCURVE",
"468 347 OFFCURVE",
"329 391 CURVE",
"349 552 LINE",
"390 549 OFFCURVE",
"435 545 OFFCURVE",
"484 540 CURVE",
"495 646 LINE",
"478 650 LINE SMOOTH",
"443 657 OFFCURVE",
"405 662 OFFCURVE",
"364 666 CURVE",
"382 810 LINE",
"308 810 LINE",
"290 672 LINE",
"277 672 LINE SMOOTH",
"137 672 OFFCURVE",
"52 608 OFFCURVE",
"52 476 CURVE SMOOTH",
"52 375 OFFCURVE",
"104 322 OFFCURVE",
"241 281 CURVE",
"219 107 LINE",
"174 110 OFFCURVE",
"126 115 OFFCURVE",
"73 122 CURVE",
"60 18 LINE",
"80 14 LINE",
"113 6 OFFCURVE",
"155 -1 OFFCURVE",
"204 -7 CURVE",
"190 -123 LINE",
"190 -126 OFFCURVE",
"215 -128 OFFCURVE",
"264 -130 CURVE"
);
},
{
closed = 1;
nodes = (
"313 259 LINE",
"360 240 OFFCURVE",
"375 222 OFFCURVE",
"375 190 CURVE SMOOTH",
"375 140 OFFCURVE",
"348 112 OFFCURVE",
"294 106 CURVE"
);
},
{
closed = 1;
nodes = (
"201 436 OFFCURVE",
"185 453 OFFCURVE",
"185 485 CURVE SMOOTH",
"185 528 OFFCURVE",
"215 551 OFFCURVE",
"275 554 CURVE",
"258 415 LINE"
);
}
);
width = 560;
}
);
rightKerningGroup = numbersign;
unicode = 0024;
},
{
glyphname = percent;
lastChange = "2015-07-09 23:11:24 +0000";
layers = (
{
layerId = "E174F030-6324-451A-8951-EA6336064495";
name = Bold;
paths = (
{
closed = 1;
nodes = (
"433 673 LINE",
"360 699 LINE",
"125 -8 LINE",
"198 -32 LINE"
);
},
{
closed = 1;
nodes = (
"506 -12 OFFCURVE",
"546 37 OFFCURVE",
"546 134 CURVE SMOOTH",
"546 231 OFFCURVE",
"506 279 OFFCURVE",
"426 279 CURVE SMOOTH",
"346 279 OFFCURVE",
"306 231 OFFCURVE",
"306 134 CURVE SMOOTH",
"306 37 OFFCURVE",
"346 -12 OFFCURVE",
"426 -12 CURVE SMOOTH"
);
},
{
closed = 1;
nodes = (
"417 68 OFFCURVE",
"412 73 OFFCURVE",
"409 83 CURVE SMOOTH",
"406 93 OFFCURVE",
"404 110 OFFCURVE",
"404 134 CURVE SMOOTH",
"404 158 OFFCURVE",
"406 175 OFFCURVE",
"409 185 CURVE SMOOTH",
"412 194 OFFCURVE",
"417 199 OFFCURVE",
"426 199 CURVE SMOOTH",
"435 199 OFFCURVE",
"441 194 OFFCURVE",
"444 185 CURVE SMOOTH",
"447 175 OFFCURVE",
"448 158 OFFCURVE",
"448 134 CURVE SMOOTH",
"448 110 OFFCURVE",
"447 93 OFFCURVE",
"444 83 CURVE SMOOTH",
"441 73 OFFCURVE",
"435 68 OFFCURVE",
"426 68 CURVE SMOOTH"
);
},
{
closed = 1;
nodes = (
"214 381 OFFCURVE",
"254 430 OFFCURVE",
"254 527 CURVE SMOOTH",
"254 624 OFFCURVE",
"214 672 OFFCURVE",
"134 672 CURVE SMOOTH",
"54 672 OFFCURVE",
"14 624 OFFCURVE",
"14 527 CURVE SMOOTH",
"14 430 OFFCURVE",
"54 381 OFFCURVE",
"134 381 CURVE SMOOTH"
);
},
{
closed = 1;
nodes = (
"125 461 OFFCURVE",
"120 466 OFFCURVE",
"117 476 CURVE SMOOTH",
"114 486 OFFCURVE",
"112 503 OFFCURVE",
"112 527 CURVE SMOOTH",
"112 551 OFFCURVE",
"114 568 OFFCURVE",
"117 578 CURVE SMOOTH",
"120 587 OFFCURVE",
"125 592 OFFCURVE",
"134 592 CURVE SMOOTH",
"143 592 OFFCURVE",
"149 587 OFFCURVE",
"152 578 CURVE SMOOTH",
"155 568 OFFCURVE",
"156 551 OFFCURVE",
"156 527 CURVE SMOOTH",
"156 503 OFFCURVE",
"155 486 OFFCURVE",
"152 476 CURVE SMOOTH",
"149 466 OFFCURVE",
"143 461 OFFCURVE",
"134 461 CURVE SMOOTH"
);
}
);
width = 560;
}
);
rightKerningGroup = numbersign;
unicode = 0025;
},
{
glyphname = ampersand;
lastChange = "2015-07-09 23:11:24 +0000";
layers = (
{
layerId = "E174F030-6324-451A-8951-EA6336064495";
name = Bold;
paths = (
{
closed = 1;
nodes = (
"385 -12 OFFCURVE",
"462 24 OFFCURVE",
"509 75 CURVE",
"615 -12 LINE",
"691 75 LINE",
"579 173 LINE",
"603 231 OFFCURVE",
"620 299 OFFCURVE",
"630 376 CURVE",
"500 379 LINE",
"499 343 OFFCURVE",
"489 271 OFFCURVE",
"481 251 CURVE",
"383 349 LINE",
"486 421 OFFCURVE",
"520 461 OFFCURVE",
"520 557 CURVE SMOOTH",
"520 653 OFFCURVE",
"446 712 OFFCURVE",
"319 712 CURVE SMOOTH",
"191 712 OFFCURVE",
"111 654 OFFCURVE",
"111 561 CURVE SMOOTH",
"111 494 OFFCURVE",
"122 466 OFFCURVE",
"177 399 CURVE",
"78 360 OFFCURVE",
"35 304 OFFCURVE",
"35 196 CURVE SMOOTH",
"35 59 OFFCURVE",
"109 -12 OFFCURVE",
"304 -12 CURVE SMOOTH"
);
},
{
closed = 1;
nodes = (
"210 108 OFFCURVE",
"171 141 OFFCURVE",
"171 207 CURVE SMOOTH",
"171 259 OFFCURVE",
"196 297 OFFCURVE",
"245 321 CURVE",
"418 148 LINE",
"398 124 OFFCURVE",
"340 108 OFFCURVE",
"287 108 CURVE SMOOTH"
);
},
{
closed = 1;
nodes = (
"292 443 LINE SMOOTH",
"262 475 OFFCURVE",
"247 504 OFFCURVE",
"247 531 CURVE SMOOTH",
"247 576 OFFCURVE",
"270 598 OFFCURVE",
"316 598 CURVE SMOOTH",
"361 598 OFFCURVE",
"384 577 OFFCURVE",
"384 535 CURVE SMOOTH",
"384 491 OFFCURVE",
"364 465 OFFCURVE",
"309 425 CURVE"
);
}
);
width = 701;
}
);
rightKerningGroup = numbersign;
unicode = 0026;
},
{
glyphname = quotesingle;
lastChange = "2015-07-09 23:11:24 +0000";
layers = (
{
layerId = "E174F030-6324-451A-8951-EA6336064495";
name = Bold;
paths = (
{
closed = 1;
nodes = (
"178 440 LINE",
"185 680 LINE",
"56 680 LINE",
"60 440 LINE"
);
}
);
width = 239;
}
);
leftKerningGroup = quotedbl;
rightKerningGroup = quotedbl;
unicode = 0027;
},
{
glyphname = parenleft;
lastChange = "2015-07-09 23:11:24 +0000";
layers = (
{
layerId = "E174F030-6324-451A-8951-EA6336064495";
name = Bold;
paths = (
{
closed = 1;
nodes = (
"281 -125 LINE",
"258 -62 LINE SMOOTH",
"226 21 OFFCURVE",
"186 184 OFFCURVE",
"186 301 CURVE SMOOTH",
"186 360 OFFCURVE",
"196 435 OFFCURVE",
"217 526 CURVE SMOOTH",
"237 617 OFFCURVE",
"258 692 OFFCURVE",
"281 750 CURVE",
"154 750 LINE",
"142 727 LINE SMOOTH",
"124 692 OFFCURVE",
"103 638 OFFCURVE",
"79 563 CURVE SMOOTH",
"56 492 OFFCURVE",
"38 390 OFFCURVE",
"38 301 CURVE SMOOTH",
"38 212 OFFCURVE",
"58 111 OFFCURVE",
"79 48 CURVE SMOOTH",
"99 -15 OFFCURVE",
"135 -96 OFFCURVE",
"154 -125 CURVE"
);
}
);
width = 308;
}
);
rightKerningGroup = numbersign;
unicode = 0028;
},
{
glyphname = parenright;
lastChange = "2015-07-09 23:11:24 +0000";
layers = (
{
layerId = "E174F030-6324-451A-8951-EA6336064495";
name = Bold;
paths = (
{
closed = 1;
nodes = (
"154 -125 LINE",
"166 -104 LINE SMOOTH",
"184 -73 OFFCURVE",
"205 -23 OFFCURVE",
"229 47 CURVE SMOOTH",
"252 114 OFFCURVE",
"270 212 OFFCURVE",
"270 301 CURVE SMOOTH",
"270 346 OFFCURVE",
"266 392 OFFCURVE",
"258 440 CURVE SMOOTH",
"249 488 OFFCURVE",
"240 529 OFFCURVE",
"230 562 CURVE SMOOTH",
"209 629 OFFCURVE",
"173 717 OFFCURVE",
"154 750 CURVE",
"27 750 LINE",
"51 682 LINE SMOOTH",
"83 591 OFFCURVE",
"122 418 OFFCURVE",
"122 301 CURVE SMOOTH",
"122 184 OFFCURVE",
"72 -22 OFFCURVE",
"27 -125 CURVE"
);
}
);
width = 308;
}
);
rightKerningGroup = numbersign;
unicode = 0029;
},
{
glyphname = asterisk;
lastChange = "2015-07-09 23:11:24 +0000";
layers = (
{
layerId = "E174F030-6324-451A-8951-EA6336064495";
name = Bold;
paths = (
{
closed = 1;
nodes = (
"304 379 LINE",
"266 499 LINE",
"389 499 LINE",
"389 573 LINE",
"266 573 LINE",
"304 695 LINE",
"229 720 LINE",
"190 599 LINE",
"89 672 LINE",
"43 609 LINE",
"145 536 LINE",
"40 458 LINE",
"87 399 LINE",
"190 478 LINE",
"231 357 LINE"
);
}
);
width = 425;
}
);
rightKerningGroup = numbersign;
unicode = 002A;
},
{
glyphname = plus;
lastChange = "2015-07-09 23:11:24 +0000";
layers = (
{
layerId = "E174F030-6324-451A-8951-EA6336064495";
name = Bold;
paths = (
{
closed = 1;
nodes = (
"339 21 LINE",
"339 191 LINE",
"510 191 LINE",
"510 311 LINE",
"339 311 LINE",
"339 479 LINE",
"219 479 LINE",
"219 311 LINE",
"50 311 LINE",
"50 191 LINE",
"219 191 LINE",
"219 21 LINE"
);
}
);
width = 560;
}
);
rightKerningGroup = numbersign;
unicode = 002B;
},
{
glyphname = comma;
lastChange = "2015-07-09 23:11:24 +0000";
layers = (
{
layerId = "E174F030-6324-451A-8951-EA6336064495";
name = Bold;
paths = (
{
closed = 1;
nodes = (
"128 -123 LINE",
"218 137 LINE",
"70 137 LINE",
"20 -123 LINE"
);
}
);
width = 263;
}
);
leftKerningGroup = comma;
rightKerningGroup = comma;
unicode = 002C;
},
{
glyphname = hyphen;
lastChange = "2015-07-09 23:11:24 +0000";
layers = (
{
layerId = "E174F030-6324-451A-8951-EA6336064495";
name = Bold;
paths = (
{
closed = 1;
nodes = (
"352 205 LINE",
"352 327 LINE",
"56 327 LINE",
"56 205 LINE"
);
}
);
width = 408;
}
);
leftKerningGroup = hyphen;
rightKerningGroup = hyphen;
unicode = 002D;
},
{
glyphname = period;
lastChange = "2015-07-09 23:11:24 +0000";
layers = (
{
layerId = "E174F030-6324-451A-8951-EA6336064495";
name = Bold;
paths = (
{
closed = 1;
nodes = (
"200 0 LINE",
"200 166 LINE",
"56 166 LINE",
"56 0 LINE"
);
}
);
width = 256;
}
);
leftKerningGroup = comma;
rightKerningGroup = comma;
unicode = 002E;
},
{
glyphname = slash;
lastChange = "2015-07-09 23:11:24 +0000";
layers = (
{
layerId = "E174F030-6324-451A-8951-EA6336064495";
name = Bold;
paths = (
{
closed = 1;
nodes = (
"437 676 LINE",
"319 718 LINE",
"31 8 LINE",
"149 -34 LINE"
);
}
);
width = 466;
}
);
rightKerningGroup = numbersign;
unicode = 002F;
},
{
glyphname = zero;
lastChange = "2015-07-09 23:11:24 +0000";
layers = (
{
layerId = "E174F030-6324-451A-8951-EA6336064495";
name = Bold;
paths = (
{
closed = 1;
nodes = (
"451 -12 OFFCURVE",
"536 85 OFFCURVE",
"536 327 CURVE SMOOTH",
"536 569 OFFCURVE",
"449 672 OFFCURVE",
"280 672 CURVE SMOOTH",
"195 672 OFFCURVE",
"132 645 OFFCURVE",
"89 590 CURVE SMOOTH",
"46 535 OFFCURVE",
"24 448 OFFCURVE",
"24 327 CURVE SMOOTH",
"24 85 OFFCURVE",
"109 -12 OFFCURVE",
"280 -12 CURVE SMOOTH"
);
},
{
closed = 1;
nodes = (
"200 108 OFFCURVE",
"166 165 OFFCURVE",
"166 329 CURVE SMOOTH",
"166 493 OFFCURVE",
"199 552 OFFCURVE",
"281 552 CURVE SMOOTH",
"322 552 OFFCURVE",
"351 536 OFFCURVE",
"368 503 CURVE SMOOTH",
"385 470 OFFCURVE",
"394 412 OFFCURVE",
"394 330 CURVE SMOOTH",
"394 247 OFFCURVE",
"385 190 OFFCURVE",
"368 157 CURVE SMOOTH",
"351 124 OFFCURVE",
"322 108 OFFCURVE",
"281 108 CURVE SMOOTH"
);
}
);
width = 560;
}
);
rightKerningGroup = numbersign;
unicode = 0030;
},
{
glyphname = one;
lastChange = "2015-07-09 23:11:24 +0000";
layers = (
{
layerId = "E174F030-6324-451A-8951-EA6336064495";
name = Bold;
paths = (
{
closed = 1;
nodes = (
"418 0 LINE",
"418 660 LINE",
"292 660 LINE",
"74 515 LINE",
"137 412 LINE",
"280 504 LINE",
"280 0 LINE"
);
}
);
width = 560;
}
);
rightKerningGroup = numbersign;
unicode = 0031;
},
{
glyphname = two;
lastChange = "2015-07-09 23:11:24 +0000";
layers = (
{
layerId = "E174F030-6324-451A-8951-EA6336064495";
name = Bold;
paths = (
{
closed = 1;
nodes = (
"493 0 LINE",
"493 120 LINE",
"219 120 LINE",
"334 224 LINE SMOOTH",
"446 327 OFFCURVE",
"482 384 OFFCURVE",
"482 483 CURVE SMOOTH",
"482 609 OFFCURVE",
"412 672 OFFCURVE",
"272 672 CURVE SMOOTH",
"202 672 OFFCURVE",
"134 662 OFFCURVE",
"69 642 CURVE",
"76 535 LINE",
"100 538 LINE SMOOTH",
"153 546 OFFCURVE",
"201 550 OFFCURVE",
"246 550 CURVE SMOOTH",
"306 550 OFFCURVE",
"340 528 OFFCURVE",
"340 466 CURVE SMOOTH",
"340 404 OFFCURVE",
"306 363 OFFCURVE",
"206 260 CURVE SMOOTH",
"65 117 LINE",
"65 0 LINE"
);
}
);
width = 560;
}
);
rightKerningGroup = numbersign;
unicode = 0032;
},
{
glyphname = three;
lastChange = "2015-07-09 23:11:24 +0000";
layers = (
{
layerId = "E174F030-6324-451A-8951-EA6336064495";
name = Bold;
paths = (
{
closed = 1;
nodes = (
"429 -12 OFFCURVE",
"497 56 OFFCURVE",
"497 199 CURVE SMOOTH",
"497 280 OFFCURVE",
"472 307 OFFCURVE",
"408 342 CURVE",
"459 376 OFFCURVE",
"485 425 OFFCURVE",
"485 489 CURVE SMOOTH",
"485 617 OFFCURVE",
"419 672 OFFCURVE",
"268 672 CURVE SMOOTH",
"192 672 OFFCURVE",
"123 660 OFFCURVE",
"62 636 CURVE",
"71 534 LINE",
"97 538 LINE SMOOTH",
"149 547 OFFCURVE",
"198 552 OFFCURVE",
"244 552 CURVE SMOOTH",
"310 552 OFFCURVE",
"343 528 OFFCURVE",
"343 481 CURVE SMOOTH",
"343 436 OFFCURVE",
"303 391 OFFCURVE",
"259 391 CURVE SMOOTH",
"126 391 LINE",
"126 277 LINE",
"259 277 LINE SMOOTH",
"316 277 OFFCURVE",
"355 245 OFFCURVE",
"355 196 CURVE SMOOTH",
"355 137 OFFCURVE",
"321 108 OFFCURVE",
"252 108 CURVE SMOOTH",
"201 108 OFFCURVE",
"139 114 OFFCURVE",
"64 127 CURVE",
"57 22 LINE",
"89 14 LINE SMOOTH",
"153 -3 OFFCURVE",
"214 -12 OFFCURVE",
"272 -12 CURVE SMOOTH"
);
}
);
width = 560;
}
);
rightKerningGroup = numbersign;
unicode = 0033;
},
{
glyphname = four;
lastChange = "2015-07-09 23:11:24 +0000";
layers = (
{
layerId = "E174F030-6324-451A-8951-EA6336064495";
name = Bold;
paths = (
{
closed = 1;
nodes = (
"458 0 LINE",
"458 109 LINE",
"521 109 LINE",
"521 229 LINE",
"458 229 LINE",
"458 414 LINE",
"320 414 LINE",
"320 229 LINE",
"178 229 LINE",
"355 660 LINE",
"203 660 LINE",
"40 214 LINE",
"40 109 LINE",
"320 109 LINE",
"320 0 LINE"
);
}
);
width = 560;
}
);
rightKerningGroup = numbersign;
unicode = 0034;
},
{
glyphname = five;
lastChange = "2015-07-09 23:11:24 +0000";
layers = (
{
layerId = "E174F030-6324-451A-8951-EA6336064495";
name = Bold;
paths = (
{
closed = 1;
nodes = (
"428 -12 OFFCURVE",
"510 73 OFFCURVE",
"510 222 CURVE SMOOTH",
"510 355 OFFCURVE",
"439 421 OFFCURVE",
"296 421 CURVE SMOOTH",
"259 421 OFFCURVE",
"219 413 OFFCURVE",
"178 397 CURVE",
"195 540 LINE",
"490 540 LINE",
"490 660 LINE",
"87 660 LINE",
"69 303 LINE",
"151 284 LINE",
"166 288 LINE SMOOTH",
"200 297 OFFCURVE",
"239 301 OFFCURVE",
"284 301 CURVE SMOOTH",
"337 301 OFFCURVE",
"368 273 OFFCURVE",
"368 209 CURVE SMOOTH",
"368 144 OFFCURVE",
"332 108 OFFCURVE",
"267 108 CURVE SMOOTH",
"213 108 OFFCURVE",
"146 114 OFFCURVE",
"65 127 CURVE",
"50 25 LINE",
"86 16 LINE SMOOTH",
"133 3 OFFCURVE",
"223 -12 OFFCURVE",
"284 -12 CURVE SMOOTH"
);
}
);
width = 560;
}
);
rightKerningGroup = numbersign;
unicode = 0035;
},
{
glyphname = six;
lastChange = "2015-07-09 23:11:24 +0000";
layers = (
{
layerId = "E174F030-6324-451A-8951-EA6336064495";
name = Bold;
paths = (
{
closed = 1;
nodes = (
"443 -12 OFFCURVE",
"530 64 OFFCURVE",
"530 210 CURVE SMOOTH",
"530 356 OFFCURVE",
"454 423 OFFCURVE",
"303 423 CURVE SMOOTH",
"277 423 OFFCURVE",
"242 417 OFFCURVE",
"198 404 CURVE SMOOTH",
"177 398 LINE",
"177 501 OFFCURVE",
"224 552 OFFCURVE",
"319 552 CURVE SMOOTH",
"369 552 OFFCURVE",
"428 547 OFFCURVE",
"496 537 CURVE",
"508 643 LINE",
"477 650 LINE SMOOTH",
"418 665 OFFCURVE",
"362 672 OFFCURVE",
"310 672 CURVE SMOOTH",
"133 672 OFFCURVE",
"35 566 OFFCURVE",
"35 337 CURVE SMOOTH",
"35 108 OFFCURVE",
"119 -12 OFFCURVE",
"281 -12 CURVE SMOOTH"
);
},
{
closed = 1;
nodes = (
"213 108 OFFCURVE",
"176 166 OFFCURVE",
"176 281 CURVE",
"193 286 LINE SMOOTH",
"227 297 OFFCURVE",
"260 303 OFFCURVE",
"291 303 CURVE SMOOTH",
"356 303 OFFCURVE",
"388 272 OFFCURVE",
"388 209 CURVE SMOOTH",
"388 145 OFFCURVE",
"352 108 OFFCURVE",
"288 108 CURVE SMOOTH"
);
}
);
width = 560;
}
);
rightKerningGroup = numbersign;
unicode = 0036;
},
{
glyphname = seven;
lastChange = "2015-07-09 23:11:24 +0000";
layers = (
{
layerId = "E174F030-6324-451A-8951-EA6336064495";
name = Bold;
paths = (
{
closed = 1;
nodes = (
"491 504 LINE",
"491 660 LINE",
"69 660 LINE",
"69 537 LINE",
"353 537 LINE",
"353 505 LINE",
"128 24 LINE",
"256 -12 LINE"
);
}
);
width = 560;
}
);
rightKerningGroup = numbersign;
unicode = 0037;
},
{
glyphname = eight;
lastChange = "2015-07-09 23:11:24 +0000";
layers = (
{
layerId = "E174F030-6324-451A-8951-EA6336064495";
name = Bold;
paths = (
{
closed = 1;
nodes = (
"429 -12 OFFCURVE",
"531 48 OFFCURVE",
"531 179 CURVE SMOOTH",
"531 256 OFFCURVE",
"508 291 OFFCURVE",
"449 340 CURVE",
"508 387 OFFCURVE",
"521 414 OFFCURVE",
"521 491 CURVE SMOOTH",
"521 604 OFFCURVE",
"423 672 OFFCURVE",
"278 672 CURVE SMOOTH",
"205 672 OFFCURVE",
"147 656 OFFCURVE",
"104 625 CURVE SMOOTH",
"61 593 OFFCURVE",
"39 549 OFFCURVE",
"39 492 CURVE SMOOTH",
"39 421 OFFCURVE",
"55 385 OFFCURVE",
"111 340 CURVE",
"52 291 OFFCURVE",
"28 253 OFFCURVE",
"28 168 CURVE SMOOTH",
"28 48 OFFCURVE",
"111 -12 OFFCURVE",
"278 -12 CURVE SMOOTH"
);
},
{
closed = 1;
nodes = (
"211 112 OFFCURVE",
"176 141 OFFCURVE",
"176 200 CURVE SMOOTH",
"176 235 OFFCURVE",
"196 260 OFFCURVE",
"236 275 CURVE",
"324 275 LINE",
"363 260 OFFCURVE",
"383 235 OFFCURVE",
"383 200 CURVE SMOOTH",
"383 141 OFFCURVE",
"349 112 OFFCURVE",
"280 112 CURVE SMOOTH"
);
},
{
closed = 1;
nodes = (
"203 415 OFFCURVE",
"187 440 OFFCURVE",
"187 467 CURVE SMOOTH",
"187 522 OFFCURVE",
"220 548 OFFCURVE",
"280 548 CURVE SMOOTH",
"342 548 OFFCURVE",
"373 522 OFFCURVE",
"373 470 CURVE SMOOTH",
"373 441 OFFCURVE",
"357 415 OFFCURVE",
"324 392 CURVE",
"236 392 LINE"
);
}
);
width = 560;
}
);
rightKerningGroup = numbersign;
unicode = 0038;
},
{
glyphname = nine;
lastChange = "2015-07-09 23:11:24 +0000";
layers = (
{
layerId = "E174F030-6324-451A-8951-EA6336064495";
name = Bold;
paths = (
{
closed = 1;
nodes = (
"428 -12 OFFCURVE",
"523 88 OFFCURVE",
"523 321 CURVE SMOOTH",
"523 553 OFFCURVE",
"437 672 OFFCURVE",
"278 672 CURVE SMOOTH",
"118 672 OFFCURVE",
"28 590 OFFCURVE",
"28 451 CURVE SMOOTH",
"28 311 OFFCURVE",
"110 240 OFFCURVE",
"255 240 CURVE SMOOTH",
"279 240 OFFCURVE",
"314 248 OFFCURVE",
"360 263 CURVE SMOOTH",
"381 270 LINE",
"381 162 OFFCURVE",
"337 108 OFFCURVE",
"248 108 CURVE SMOOTH",
"192 108 OFFCURVE",
"130 113 OFFCURVE",
"62 123 CURVE",
"50 17 LINE",
"81 10 LINE SMOOTH",
"140 -5 OFFCURVE",
"196 -12 OFFCURVE",
"248 -12 CURVE SMOOTH"
);
},
{
closed = 1;
nodes = (
"202 360 OFFCURVE",
"170 390 OFFCURVE",
"170 451 CURVE SMOOTH",
"170 515 OFFCURVE",
"206 552 OFFCURVE",
"270 552 CURVE SMOOTH",
"345 552 OFFCURVE",
"382 496 OFFCURVE",
"382 383 CURVE",
"366 378 LINE SMOOTH",
"331 366 OFFCURVE",
"298 360 OFFCURVE",
"267 360 CURVE SMOOTH"
);
}
);
width = 560;
}
);
rightKerningGroup = numbersign;
unicode = 0039;
},
{
glyphname = colon;
lastChange = "2015-07-09 23:11:24 +0000";
layers = (
{
layerId = "E174F030-6324-451A-8951-EA6336064495";
name = Bold;
paths = (
{
closed = 1;
nodes = (
"200 289 LINE",
"200 455 LINE",
"56 455 LINE",
"56 289 LINE"
);
},
{
closed = 1;
nodes = (
"200 0 LINE",
"200 166 LINE",
"56 166 LINE",
"56 0 LINE"
);
}
);
width = 256;
}
);
leftKerningGroup = colon;
rightKerningGroup = colon;
unicode = 003A;
},
{
glyphname = semicolon;
lastChange = "2015-07-09 23:11:24 +0000";
layers = (
{
layerId = "E174F030-6324-451A-8951-EA6336064495";
name = Bold;
paths = (
{
closed = 1;
nodes = (
"135 -123 LINE",
"225 137 LINE",
"77 137 LINE",
"27 -123 LINE"
);
},
{
closed = 1;
nodes = (
"213 289 LINE",
"213 455 LINE",
"69 455 LINE",
"69 289 LINE"
);
}
);
width = 279;
}
);
leftKerningGroup = colon;
rightKerningGroup = colon;
unicode = 003B;
},
{
glyphname = less;
lastChange = "2015-07-09 23:11:24 +0000";
layers = (
{
layerId = "E174F030-6324-451A-8951-EA6336064495";
name = Bold;
paths = (
{
closed = 1;
nodes = (
"472 146 LINE",
"211 254 LINE",
"472 353 LINE",
"472 489 LINE",
"66 306 LINE",
"66 196 LINE",
"472 10 LINE"
);
}
);
width = 560;
}
);
rightKerningGroup = numbersign;
unicode = 003C;
},
{
glyphname = equal;
lastChange = "2015-07-09 23:11:24 +0000";
layers = (
{
layerId = "E174F030-6324-451A-8951-EA6336064495";
name = Bold;
paths = (
{
closed = 1;
nodes = (
"502 295 LINE",
"502 416 LINE",
"58 416 LINE",
"58 295 LINE"
);
},
{
closed = 1;
nodes = (
"502 87 LINE",
"502 208 LINE",
"58 208 LINE",
"58 87 LINE"
);
}
);
width = 560;
}
);
rightKerningGroup = numbersign;
unicode = 003D;
},
{
glyphname = greater;
lastChange = "2015-07-09 23:11:24 +0000";
layers = (
{
layerId = "E174F030-6324-451A-8951-EA6336064495";
name = Bold;
paths = (
{
closed = 1;
nodes = (
"494 196 LINE",
"494 306 LINE",
"88 489 LINE",
"88 353 LINE",
"349 254 LINE",
"88 146 LINE",
"88 10 LINE"
);
}
);
width = 560;
}
);
rightKerningGroup = numbersign;
unicode = 003E;
},
{
glyphname = question;
lastChange = "2015-07-09 23:11:24 +0000";
layers = (
{
layerId = "E174F030-6324-451A-8951-EA6336064495";
name = Bold;
paths = (
{
closed = 1;
nodes = (
"248 217 LINE",
"248 248 LINE SMOOTH",
"248 264 OFFCURVE",
"252 279 OFFCURVE",
"261 292 CURVE SMOOTH",
"270 305 OFFCURVE",
"291 325 OFFCURVE",
"324 350 CURVE SMOOTH",
"391 400 OFFCURVE",
"405 432 OFFCURVE",
"405 536 CURVE SMOOTH",
"405 640 OFFCURVE",
"340 692 OFFCURVE",
"212 692 CURVE SMOOTH",
"148 692 OFFCURVE",
"87 680 OFFCURVE",
"30 657 CURVE",
"37 556 LINE",
"58 560 LINE SMOOTH",
"100 568 OFFCURVE",
"141 572 OFFCURVE",
"181 572 CURVE SMOOTH",
"238 572 OFFCURVE",
"266 552 OFFCURVE",
"266 513 CURVE SMOOTH",
"266 494 OFFCURVE",
"261 479 OFFCURVE",
"252 466 CURVE",
"242 453 OFFCURVE",
"216 429 OFFCURVE",
"174 395 CURVE SMOOTH",
"131 361 OFFCURVE",
"110 332 OFFCURVE",
"110 308 CURVE SMOOTH",
"110 270 OFFCURVE",
"120 240 OFFCURVE",
"141 217 CURVE"
);
},
{
closed = 1;
nodes = (
"263 0 LINE",
"263 161 LINE",
"119 161 LINE",
"119 0 LINE"
);
}
);
width = 437;
}
);
rightKerningGroup = numbersign;
unicode = 003F;
},
{
glyphname = at;
lastChange = "2015-07-09 23:11:24 +0000";
layers = (
{
layerId = "E174F030-6324-451A-8951-EA6336064495";
name = Bold;
paths = (
{
closed = 1;
nodes = (
"542 -209 OFFCURVE",
"591 -206 OFFCURVE",
"651 -199 CURVE",
"646 -82 LINE",
"503 -91 LINE",
"264 -91 OFFCURVE",
"172 18 OFFCURVE",
"172 252 CURVE SMOOTH",
"172 486 OFFCURVE",
"289 611 OFFCURVE",
"503 611 CURVE SMOOTH",
"717 611 OFFCURVE",
"810 519 OFFCURVE",
"810 306 CURVE SMOOTH",
"810 297 LINE SMOOTH",
"810 226 OFFCURVE",
"805 177 OFFCURVE",
"796 151 CURVE SMOOTH",
"786 125 OFFCURVE",
"770 112 OFFCURVE",
"749 112 CURVE SMOOTH",
"733 112 OFFCURVE",
"725 112 OFFCURVE",
"717 123 CURVE",
"712 128 OFFCURVE",
"708 138 OFFCURVE",
"705 151 CURVE",
"701 164 OFFCURVE",
"699 217 OFFCURVE",
"699 309 CURVE SMOOTH",
"699 488 LINE",
"565 488 LINE",
"565 475 LINE",
"550 482 LINE SMOOTH",
"523 494 OFFCURVE",
"497 500 OFFCURVE",
"474 500 CURVE SMOOTH",
"335 500 OFFCURVE",
"283 422 OFFCURVE",
"283 248 CURVE SMOOTH",
"283 74 OFFCURVE",
"345 0 OFFCURVE",
"470 0 CURVE SMOOTH",
"515 0 OFFCURVE",
"565 19 OFFCURVE",
"618 56 CURVE",
"623 48 OFFCURVE",
"628 41 OFFCURVE",
"635 36 CURVE",
"665 12 OFFCURVE",
"704 0 OFFCURVE",
"751 0 CURVE SMOOTH",
"879 0 OFFCURVE",
"944 92 OFFCURVE",
"944 297 CURVE SMOOTH",
"944 305 LINE SMOOTH",
"944 581 OFFCURVE",
"794 729 OFFCURVE",
"505 729 CURVE SMOOTH",
"216 729 OFFCURVE",
"38 569 OFFCURVE",
"38 261 CURVE SMOOTH",
"38 85 OFFCURVE",
"79 -39 OFFCURVE",
"160 -110 CURVE SMOOTH",
"243 -181 OFFCURVE",
"350 -209 OFFCURVE",
"503 -209 CURVE SMOOTH"
);
},
{
closed = 1;
nodes = (
"440 118 OFFCURVE",
"419 162 OFFCURVE",
"419 251 CURVE SMOOTH",
"419 348 OFFCURVE",
"435 382 OFFCURVE",
"504 382 CURVE SMOOTH",
"517 382 OFFCURVE",
"537 379 OFFCURVE",
"565 372 CURVE",
"565 249 LINE SMOOTH",
"565 202 OFFCURVE",
"567 167 OFFCURVE",
"571 143 CURVE",
"536 126 OFFCURVE",
"506 118 OFFCURVE",
"481 118 CURVE SMOOTH"
);
}
);
width = 973;
}
);
rightKerningGroup = numbersign;
unicode = 0040;
},
{
glyphname = A;
lastChange = "2015-07-09 23:11:24 +0000";
layers = (
{
layerId = "E174F030-6324-451A-8951-EA6336064495";
name = Bold;
paths = (
{
closed = 1;
nodes = (
"155 0 LINE",
"182 123 LINE",
"420 123 LINE",
"447 0 LINE",
"585 0 LINE",
"432 680 LINE",
"170 680 LINE",
"17 0 LINE"
);
},
{
closed = 1;
nodes = (
"277 566 LINE",
"325 566 LINE",
"394 243 LINE",
"208 243 LINE"
);
}
);
width = 602;
}
);
leftKerningGroup = A;
rightKerningGroup = numbersign;
unicode = 0041;
},
{
glyphname = B;
lastChange = "2015-07-09 23:11:23 +0000";
layers = (
{
layerId = "E174F030-6324-451A-8951-EA6336064495";
name = Bold;
paths = (
{
closed = 1;
nodes = (
"345 0 LINE SMOOTH",
"485 0 OFFCURVE",
"566 63 OFFCURVE",
"566 195 CURVE SMOOTH",
"566 280 OFFCURVE",
"538 325 OFFCURVE",
"478 350 CURVE",
"533 385 OFFCURVE",
"553 424 OFFCURVE",
"553 500 CURVE SMOOTH",
"553 627 OFFCURVE",
"482 680 OFFCURVE",
"341 680 CURVE SMOOTH",
"74 680 LINE",
"74 0 LINE"
);
},
{
closed = 1;
nodes = (
"212 284 LINE",
"338 284 LINE SMOOTH",
"397 284 OFFCURVE",
"426 257 OFFCURVE",
"426 202 CURVE SMOOTH",
"426 138 OFFCURVE",
"398 118 OFFCURVE",
"338 118 CURVE SMOOTH",
"212 118 LINE"
);
},
{
closed = 1;
nodes = (
"212 562 LINE",
"334 562 LINE SMOOTH",
"387 562 OFFCURVE",
"413 535 OFFCURVE",
"413 481 CURVE SMOOTH",
"413 427 OFFCURVE",
"387 400 OFFCURVE",
"335 400 CURVE SMOOTH",
"212 400 LINE"
);
}
);
width = 609;
}
);
leftKerningGroup = B;
rightKerningGroup = numbersign;
unicode = 0042;
},
{
glyphname = C;
lastChange = "2015-07-09 23:11:24 +0000";
layers = (
{
layerId = "E174F030-6324-451A-8951-EA6336064495";
name = Bold;
paths = (
{
closed = 1;
nodes = (
"371 -12 OFFCURVE",
"434 -4 OFFCURVE",
"505 11 CURVE",
"502 124 LINE",
"440 115 OFFCURVE",
"382 110 OFFCURVE",
"327 110 CURVE SMOOTH",
"217 110 OFFCURVE",
"189 162 OFFCURVE",
"189 319 CURVE SMOOTH",
"189 398 OFFCURVE",
"194 453 OFFCURVE",
"203 486 CURVE SMOOTH",
"221 551 OFFCURVE",
"250 570 OFFCURVE",
"338 570 CURVE SMOOTH",
"381 570 OFFCURVE",
"436 565 OFFCURVE",
"502 555 CURVE",
"506 665 LINE",
"431 683 OFFCURVE",
"364 692 OFFCURVE",
"307 692 CURVE SMOOTH",
"108 692 OFFCURVE",
"47 603 OFFCURVE",
"47 340 CURVE SMOOTH",
"47 215 OFFCURVE",
"59 137 OFFCURVE",
"98 76 CURVE SMOOTH",
"137 15 OFFCURVE",
"201 -12 OFFCURVE",
"314 -12 CURVE SMOOTH"
);
}
);
width = 543;
}
);
leftKerningGroup = C;
rightKerningGroup = C;
unicode = 0043;
},
{
glyphname = D;
lastChange = "2015-07-09 23:11:24 +0000";
layers = (
{
layerId = "E174F030-6324-451A-8951-EA6336064495";
name = Bold;
paths = (
{
closed = 1;
nodes = (
"303 0 LINE SMOOTH",
"423 0 OFFCURVE",
"499 27 OFFCURVE",
"540 91 CURVE SMOOTH",
"580 154 OFFCURVE",
"592 228 OFFCURVE",
"592 351 CURVE SMOOTH",
"592 474 OFFCURVE",
"579 544 OFFCURVE",
"537 601 CURVE SMOOTH",
"495 657 OFFCURVE",
"420 680 OFFCURVE",
"303 680 CURVE SMOOTH",
"74 680 LINE",
"74 0 LINE"
);
},
{
closed = 1;
nodes = (
"212 560 LINE",
"303 560 LINE SMOOTH",
"370 560 OFFCURVE",
"407 548 OFFCURVE",
"427 511 CURVE SMOOTH",
"447 474 OFFCURVE",
"450 434 OFFCURVE",
"450 359 CURVE SMOOTH",
"450 321 OFFCURVE",
"449 291 OFFCURVE",
"448 270 CURVE",
"439 162 OFFCURVE",
"403 120 OFFCURVE",
"303 120 CURVE SMOOTH",
"212 120 LINE"
);
}
);
width = 638;
}
);
leftKerningGroup = B;
rightKerningGroup = D;
unicode = 0044;
},
{
glyphname = E;
lastChange = "2015-07-09 23:11:24 +0000";
layers = (
{
layerId = "E174F030-6324-451A-8951-EA6336064495";
name = Bold;
paths = (
{
closed = 1;
nodes = (
"514 0 LINE",
"514 120 LINE",
"212 120 LINE",
"212 283 LINE",
"454 283 LINE",
"454 401 LINE",
"212 401 LINE",
"212 560 LINE",
"514 560 LINE",
"514 680 LINE",
"74 680 LINE",
"74 0 LINE"
);
}
);
width = 554;
}
);
leftKerningGroup = B;
rightKerningGroup = E;
unicode = 0045;
},
{
glyphname = F;
lastChange = "2015-07-09 23:11:24 +0000";
layers = (
{
layerId = "E174F030-6324-451A-8951-EA6336064495";
name = Bold;
paths = (
{
closed = 1;
nodes = (
"212 0 LINE",
"212 240 LINE",
"454 240 LINE",
"454 360 LINE",
"212 360 LINE",
"212 560 LINE",
"508 560 LINE",
"508 680 LINE",
"74 680 LINE",
"74 0 LINE"
);
}
);
width = 531;
}
);
leftKerningGroup = B;
rightKerningGroup = numbersign;
unicode = 0046;
},
{
glyphname = G;
lastChange = "2015-07-09 23:11:24 +0000";
layers = (
{
layerId = "E174F030-6324-451A-8951-EA6336064495";
name = Bold;
paths = (
{
closed = 1;
nodes = (
"382 -12 OFFCURVE",
"460 -4 OFFCURVE",
"555 11 CURVE",
"555 364 LINE",
"357 364 LINE",
"357 244 LINE",
"419 244 LINE",
"419 112 LINE",
"336 108 LINE",
"215 108 OFFCURVE",
"187 163 OFFCURVE",
"187 320 CURVE SMOOTH",
"187 398 OFFCURVE",
"192 453 OFFCURVE",
"202 486 CURVE SMOOTH",
"221 550 OFFCURVE",
"253 570 OFFCURVE",
"355 570 CURVE SMOOTH",
"406 570 OFFCURVE",
"471 566 OFFCURVE",
"551 557 CURVE",
"555 664 LINE",
"519 671 LINE SMOOTH",
"447 685 OFFCURVE",
"380 692 OFFCURVE",
"318 692 CURVE SMOOTH",
"119 692 OFFCURVE",
"45 590 OFFCURVE",
"45 343 CURVE SMOOTH",
"45 96 OFFCURVE",
"111 -12 OFFCURVE",
"323 -12 CURVE SMOOTH"
);
}
);
width = 611;
}
);
leftKerningGroup = G;
rightKerningGroup = G;
unicode = 0047;
},
{
glyphname = H;
lastChange = "2015-07-09 23:11:24 +0000";
layers = (
{
layerId = "E174F030-6324-451A-8951-EA6336064495";
name = Bold;
paths = (
{
closed = 1;
nodes = (
"212 0 LINE",
"212 282 LINE",
"465 282 LINE",
"465 0 LINE",
"603 0 LINE",
"603 680 LINE",
"465 680 LINE",
"465 402 LINE",
"212 402 LINE",
"212 680 LINE",
"74 680 LINE",
"74 0 LINE"
);
}
);
width = 677;
}
);
leftKerningGroup = B;
rightKerningGroup = H;
unicode = 0048;
},
{
glyphname = I;
lastChange = "2015-07-09 23:11:24 +0000";
layers = (
{
layerId = "E174F030-6324-451A-8951-EA6336064495";
name = Bold;
paths = (
{
closed = 1;
nodes = (
"212 0 LINE",
"212 680 LINE",
"74 680 LINE",
"74 0 LINE"
);
}
);
width = 286;
}
);
leftKerningGroup = B;
rightKerningGroup = H;
unicode = 0049;
},
{
glyphname = J;
lastChange = "2015-07-09 23:11:24 +0000";
layers = (
{
layerId = "E174F030-6324-451A-8951-EA6336064495";
name = Bold;
paths = (
{
closed = 1;
nodes = (
"175 -70 OFFCURVE",
"233 -30 OFFCURVE",
"233 115 CURVE SMOOTH",
"232 680 LINE",
"95 680 LINE",
"95 121 LINE SMOOTH",
"95 66 OFFCURVE",
"72 50 OFFCURVE",
"19 50 CURVE",
"19 -70 LINE"
);
}
);
width = 302;
}
);
leftKerningGroup = J;
rightKerningGroup = J;
unicode = 004A;
},
{
glyphname = K;
lastChange = "2015-07-09 23:11:24 +0000";
layers = (
{
layerId = "E174F030-6324-451A-8951-EA6336064495";
name = Bold;
paths = (
{
closed = 1;
nodes = (
"212 0 LINE",
"212 261 LINE",
"304 271 LINE",
"418 0 LINE",
"577 0 LINE",
"425 339 LINE",
"573 680 LINE",
"416 680 LINE",
"304 391 LINE",
"212 381 LINE",
"212 680 LINE",
"74 680 LINE",
"74 0 LINE"
);
}
);
width = 593;
}
);
leftKerningGroup = B;
rightKerningGroup = K;
unicode = 004B;
},
{
glyphname = L;
lastChange = "2015-07-09 23:11:24 +0000";
layers = (
{
layerId = "E174F030-6324-451A-8951-EA6336064495";
name = Bold;
paths = (
{
closed = 1;
nodes = (
"461 0 LINE",
"461 122 LINE",
"212 122 LINE",
"212 680 LINE",
"74 680 LINE",
"74 0 LINE"
);
}
);
width = 472;
}
);
leftKerningGroup = B;
rightKerningGroup = L;
unicode = 004C;
},
{
glyphname = M;
lastChange = "2015-07-09 23:11:23 +0000";
layers = (
{
layerId = "E174F030-6324-451A-8951-EA6336064495";
name = Bold;
paths = (
{
closed = 1;
nodes = (
"212 0 LINE",
"212 526 LINE",
"227 526 LINE",
"360 30 LINE",
"498 30 LINE",
"631 526 LINE",
"646 526 LINE",
"646 0 LINE",
"784 0 LINE",
"784 680 LINE",
"549 680 LINE",
"429 184 LINE",
"309 680 LINE",
"74 680 LINE",
"74 0 LINE"
);
}
);
width = 858;
}
);
leftKerningGroup = B;
rightKerningGroup = H;
unicode = 004D;
},
{
glyphname = N;
lastChange = "2015-07-09 23:11:24 +0000";
layers = (
{
layerId = "E174F030-6324-451A-8951-EA6336064495";
name = Bold;
paths = (
{
closed = 1;
nodes = (
"212 0 LINE",
"212 560 LINE",
"222 560 LINE",
"392 0 LINE",
"619 0 LINE",
"619 680 LINE",
"481 680 LINE",
"481 120 LINE",
"471 120 LINE",
"307 680 LINE",
"74 680 LINE",
"74 0 LINE"
);
}
);
width = 693;
}
);
leftKerningGroup = B;
rightKerningGroup = H;
unicode = 004E;
},
{
glyphname = O;
lastChange = "2015-07-09 23:11:24 +0000";
layers = (
{
layerId = "E174F030-6324-451A-8951-EA6336064495";
name = Bold;
paths = (
{
closed = 1;
nodes = (
"429 -12 OFFCURVE",
"502 16 OFFCURVE",
"545 73 CURVE SMOOTH",
"587 129 OFFCURVE",
"608 217 OFFCURVE",
"608 337 CURVE SMOOTH",
"608 577 OFFCURVE",
"533 692 OFFCURVE",
"326 692 CURVE SMOOTH",
"119 692 OFFCURVE",
"44 577 OFFCURVE",
"44 337 CURVE SMOOTH",
"44 97 OFFCURVE",
"119 -12 OFFCURVE",
"326 -12 CURVE SMOOTH"
);
},
{
closed = 1;
nodes = (
"272 108 OFFCURVE",
"235 126 OFFCURVE",
"216 161 CURVE SMOOTH",
"196 196 OFFCURVE",
"186 254 OFFCURVE",
"186 337 CURVE SMOOTH",
"186 501 OFFCURVE",
"219 572 OFFCURVE",
"326 572 CURVE SMOOTH",
"433 572 OFFCURVE",
"466 501 OFFCURVE",
"466 337 CURVE SMOOTH",
"466 172 OFFCURVE",
"434 108 OFFCURVE",
"326 108 CURVE SMOOTH"
);
}
);
width = 652;
}
);
leftKerningGroup = G;
rightKerningGroup = O;
unicode = 004F;
},
{
glyphname = P;
lastChange = "2015-07-09 23:11:24 +0000";
layers = (
{
layerId = "E174F030-6324-451A-8951-EA6336064495";
name = Bold;
paths = (
{
closed = 1;
nodes = (
"212 0 LINE",
"212 198 LINE",
"324 198 LINE SMOOTH",
"483 198 OFFCURVE",
"566 285 OFFCURVE",
"566 444 CURVE SMOOTH",
"566 601 OFFCURVE",
"485 680 OFFCURVE",
"324 680 CURVE SMOOTH",
"74 680 LINE",
"74 0 LINE"
);
},
{
closed = 1;
nodes = (
"212 562 LINE",
"323 562 LINE SMOOTH",
"394 562 OFFCURVE",
"426 528 OFFCURVE",
"426 444 CURVE SMOOTH",
"426 359 OFFCURVE",
"392 316 OFFCURVE",
"323 316 CURVE SMOOTH",
"212 316 LINE"
);
}
);
width = 589;
}
);
leftKerningGroup = B;
rightKerningGroup = numbersign;
unicode = 0050;
},
{
glyphname = Q;
lastChange = "2015-07-09 23:11:24 +0000";
layers = (
{
layerId = "E174F030-6324-451A-8951-EA6336064495";
name = Bold;
paths = (
{
closed = 1;
nodes = (
"586 -97 LINE",
"503 37 LINE",
"573 88 OFFCURVE",
"608 188 OFFCURVE",
"608 336 CURVE SMOOTH",
"608 577 OFFCURVE",
"533 692 OFFCURVE",
"326 692 CURVE SMOOTH",
"119 692 OFFCURVE",
"44 577 OFFCURVE",
"44 337 CURVE SMOOTH",
"44 96 OFFCURVE",
"118 -12 OFFCURVE",
"326 -12 CURVE SMOOTH",
"349 -12 OFFCURVE",
"363 -11 OFFCURVE",
"370 -9 CURVE",
"460 -156 LINE"
);
},
{
closed = 1;
nodes = (
"272 108 OFFCURVE",
"235 125 OFFCURVE",
"216 160 CURVE SMOOTH",
"196 195 OFFCURVE",
"186 253 OFFCURVE",
"186 336 CURVE SMOOTH",
"186 501 OFFCURVE",
"219 572 OFFCURVE",
"326 572 CURVE SMOOTH",
"433 572 OFFCURVE",
"466 501 OFFCURVE",
"466 336 CURVE SMOOTH",
"466 171 OFFCURVE",
"434 108 OFFCURVE",
"326 108 CURVE SMOOTH"
);
}
);
width = 652;
}
);
leftKerningGroup = G;
rightKerningGroup = O;
unicode = 0051;
},
{
glyphname = R;
lastChange = "2015-07-09 23:11:24 +0000";
layers = (
{
layerId = "E174F030-6324-451A-8951-EA6336064495";
name = Bold;
paths = (
{
closed = 1;
nodes = (
"212 0 LINE",
"212 228 LINE",
"345 228 LINE",
"424 0 LINE",
"575 0 LINE",
"478 260 LINE",
"545 302 OFFCURVE",
"578 367 OFFCURVE",
"578 456 CURVE SMOOTH",
"578 605 OFFCURVE",
"498 680 OFFCURVE",
"338 680 CURVE SMOOTH",
"74 680 LINE",
"74 0 LINE"
);
},
{
closed = 1;
nodes = (
"212 562 LINE",
"338 562 LINE SMOOTH",
"402 562 OFFCURVE",
"437 520 OFFCURVE",
"437 455 CURVE SMOOTH",
"437 390 OFFCURVE",
"405 346 OFFCURVE",
"340 346 CURVE SMOOTH",
"212 346 LINE"
);
}
);
width = 620;
}
);
leftKerningGroup = B;
rightKerningGroup = R;
unicode = 0052;
},
{
glyphname = S;
lastChange = "2015-07-09 23:11:24 +0000";
layers = (
{
layerId = "E174F030-6324-451A-8951-EA6336064495";
name = Bold;
paths = (
{
closed = 1;
nodes = (
"412 -12 OFFCURVE",
"507 62 OFFCURVE",
"507 205 CURVE SMOOTH",
"507 317 OFFCURVE",
"460 359 OFFCURVE",
"328 402 CURVE SMOOTH",
"261 423 OFFCURVE",
"219 440 OFFCURVE",
"201 451 CURVE SMOOTH",
"183 462 OFFCURVE",
"174 479 OFFCURVE",
"174 500 CURVE SMOOTH",
"174 548 OFFCURVE",
"210 572 OFFCURVE",
"283 572 CURVE SMOOTH",
"322 572 OFFCURVE",
"388 567 OFFCURVE",
"482 556 CURVE",
"493 665 LINE",
"457 672 LINE SMOOTH",
"381 685 OFFCURVE",
"318 692 OFFCURVE",
"269 692 CURVE SMOOTH",
"125 692 OFFCURVE",
"37 626 OFFCURVE",
"37 490 CURVE SMOOTH",
"37 382 OFFCURVE",
"93 329 OFFCURVE",
"248 285 CURVE SMOOTH",
"297 271 OFFCURVE",
"329 258 OFFCURVE",
"346 246 CURVE SMOOTH",
"362 234 OFFCURVE",
"370 217 OFFCURVE",
"370 196 CURVE SMOOTH",
"370 137 OFFCURVE",
"335 108 OFFCURVE",
"264 108 CURVE SMOOTH",
"217 108 OFFCURVE",
"148 114 OFFCURVE",
"59 126 CURVE",
"45 19 LINE",
"81 12 LINE SMOOTH",
"156 -4 OFFCURVE",
"220 -12 OFFCURVE",
"272 -12 CURVE SMOOTH"
);
}
);
width = 544;
}
);
leftKerningGroup = S;
rightKerningGroup = S;
unicode = 0053;
},
{
glyphname = T;
lastChange = "2015-07-09 23:11:23 +0000";
layers = (
{
layerId = "E174F030-6324-451A-8951-EA6336064495";
name = Bold;
paths = (
{
closed = 1;
nodes = (
"333 0 LINE",
"333 558 LINE",
"513 558 LINE",
"513 680 LINE",
"13 680 LINE",
"13 558 LINE",
"195 558 LINE",
"195 0 LINE"
);
}
);
width = 526;
}
);
leftKerningGroup = T;
rightKerningGroup = T;
unicode = 0054;
},
{
glyphname = U;
lastChange = "2015-07-09 23:11:24 +0000";
layers = (
{
layerId = "E174F030-6324-451A-8951-EA6336064495";
name = Bold;
paths = (
{
closed = 1;
nodes = (
"500 -12 OFFCURVE",
"586 63 OFFCURVE",
"586 230 CURVE SMOOTH",
"586 680 LINE",
"448 680 LINE",
"448 227 LINE SMOOTH",
"448 148 OFFCURVE",
"408 108 OFFCURVE",
"327 108 CURVE SMOOTH",
"246 108 OFFCURVE",
"206 148 OFFCURVE",
"206 227 CURVE SMOOTH",
"206 680 LINE",
"68 680 LINE",
"68 230 LINE SMOOTH",
"68 63 OFFCURVE",
"154 -12 OFFCURVE",
"327 -12 CURVE SMOOTH"
);
}
);
width = 654;
}
);
leftKerningGroup = U;
rightKerningGroup = U;
unicode = 0055;
},
{
glyphname = V;
lastChange = "2015-07-09 23:11:23 +0000";
layers = (
{
layerId = "E174F030-6324-451A-8951-EA6336064495";
name = Bold;
paths = (
{
closed = 1;
nodes = (
"429 0 LINE",
"587 680 LINE",
"442 680 LINE",
"324 120 LINE",
"279 120 LINE",
"161 680 LINE",
"16 680 LINE",
"174 0 LINE"
);
}
);
width = 603;
}
);
rightKerningGroup = numbersign;
unicode = 0056;
},
{
glyphname = W;
lastChange = "2015-07-09 23:11:24 +0000";
layers = (
{
layerId = "E174F030-6324-451A-8951-EA6336064495";
name = Bold;
paths = (
{
closed = 1;
nodes = (
"358 0 LINE",
"465 517 LINE",
"572 0 LINE",
"781 0 LINE",
"911 680 LINE",
"766 680 LINE",
"682 118 LINE",
"667 118 LINE",
"545 680 LINE",
"385 680 LINE",
"263 118 LINE",
"248 118 LINE",
"164 680 LINE",
"19 680 LINE",
"149 0 LINE"
);
}
);
width = 930;
}
);
leftKerningGroup = W;
rightKerningGroup = W;
unicode = 0057;
},
{
glyphname = X;
lastChange = "2015-07-09 23:11:23 +0000";
layers = (
{
layerId = "E174F030-6324-451A-8951-EA6336064495";
name = Bold;
paths = (
{
closed = 1;
nodes = (
"152 0 LINE",
"281 235 LINE",
"407 0 LINE",
"560 0 LINE",
"364 333 LINE",
"560 680 LINE",
"417 680 LINE",
"288 430 LINE",
"162 680 LINE",
"9 680 LINE",
"205 326 LINE",
"9 0 LINE"
);
}
);
width = 569;
}
);
rightKerningGroup = numbersign;
unicode = 0058;
},
{
glyphname = Y;
lastChange = "2015-07-09 23:11:24 +0000";
layers = (
{
layerId = "E174F030-6324-451A-8951-EA6336064495";
name = Bold;
paths = (
{
closed = 1;
nodes = (
"348 0 LINE",
"348 275 LINE",
"556 680 LINE",
"403 680 LINE",
"278 409 LINE",
"153 680 LINE",
"0 680 LINE",
"210 275 LINE",
"210 0 LINE"
);
}
);
width = 557;
}
);
leftKerningGroup = Y;
rightKerningGroup = Y;
unicode = 0059;
},
{
glyphname = Z;
lastChange = "2015-07-09 23:11:23 +0000";
layers = (
{
layerId = "E174F030-6324-451A-8951-EA6336064495";
name = Bold;
paths = (
{
closed = 1;
nodes = (
"491 0 LINE",
"491 120 LINE",
"207 120 LINE",
"207 138 LINE",
"491 560 LINE",
"491 680 LINE",
"41 680 LINE",
"41 560 LINE",
"325 560 LINE",
"325 542 LINE",
"41 119 LINE",
"41 0 LINE"
);
}
);
width = 532;
}
);
leftKerningGroup = Z;
rightKerningGroup = Z;
unicode = 005A;
},
{
glyphname = bracketleft;
lastChange = "2015-07-09 23:11:24 +0000";
layers = (
{
layerId = "E174F030-6324-451A-8951-EA6336064495";
name = Bold;
paths = (
{
closed = 1;
nodes = (
"320 -123 LINE",
"320 -3 LINE",
"205 -3 LINE",
"205 629 LINE",
"320 629 LINE",
"320 749 LINE",
"68 749 LINE",
"68 -123 LINE"
);
}
);
width = 355;
}
);
rightKerningGroup = numbersign;
unicode = 005B;
},
{
glyphname = backslash;
lastChange = "2015-07-09 23:11:24 +0000";
layers = (
{
layerId = "E174F030-6324-451A-8951-EA6336064495";
name = Bold;
paths = (
{
closed = 1;
nodes = (
"466 13 LINE",
"146 716 LINE",
"32 664 LINE",
"350 -36 LINE"
);
}
);
width = 498;
}
);
rightKerningGroup = numbersign;
unicode = 005C;
},
{
glyphname = bracketright;
lastChange = "2015-07-09 23:11:24 +0000";
layers = (
{
layerId = "E174F030-6324-451A-8951-EA6336064495";
name = Bold;
paths = (
{
closed = 1;
nodes = (
"287 -123 LINE",
"287 749 LINE",
"35 749 LINE",
"35 629 LINE",
"150 629 LINE",
"150 -3 LINE",
"35 -3 LINE",
"35 -123 LINE"
);
}
);
width = 355;
}
);
rightKerningGroup = numbersign;
unicode = 005D;
},
{
glyphname = asciicircum;
lastChange = "2015-07-09 23:11:24 +0000";
layers = (
{
layerId = "E174F030-6324-451A-8951-EA6336064495";
name = Bold;
paths = (
{
closed = 1;
nodes = (
"161 313 LINE",
"274 530 LINE",
"383 313 LINE",
"523 313 LINE",
"329 660 LINE",
"215 660 LINE",
"21 313 LINE"
);
}
);
width = 560;
}
);
rightKerningGroup = numbersign;
unicode = 005E;
},
{
glyphname = underscore;
lastChange = "2015-07-09 23:11:24 +0000";
layers = (
{
layerId = "E174F030-6324-451A-8951-EA6336064495";
name = Bold;
paths = (
{
closed = 1;
nodes = (
"524 -187 LINE",
"524 -73 LINE",
"96 -73 LINE",
"96 -187 LINE"
);
}
);
width = 620;
}
);
rightKerningGroup = numbersign;
unicode = 005F;
},
{
glyphname = grave;
lastChange = "2015-07-09 23:11:24 +0000";
layers = (
{
layerId = "E174F030-6324-451A-8951-EA6336064495";
name = Bold;
paths = (
{
closed = 1;
nodes = (
"275 651 LINE",
"23 753 LINE",
"-17 638 LINE",
"245 564 LINE"
);
}
);
width = 268;
}
);
rightKerningGroup = numbersign;
unicode = 0060;
},
{
glyphname = a;
lastChange = "2015-07-09 23:11:24 +0000";
layers = (
{
layerId = "E174F030-6324-451A-8951-EA6336064495";
name = Bold;
paths = (
{
closed = 1;
nodes = (
"234 -12 OFFCURVE",
"283 0 OFFCURVE",
"331 23 CURVE",
"372 -5 OFFCURVE",
"406 -12 OFFCURVE",
"474 -12 CURVE",
"478 89 LINE",
"453 94 OFFCURVE",
"448 104 OFFCURVE",
"445 136 CURVE",
"445 344 LINE SMOOTH",
"445 461 OFFCURVE",
"392 512 OFFCURVE",
"264 512 CURVE SMOOTH",
"199 512 OFFCURVE",
"131 502 OFFCURVE",
"60 483 CURVE",
"64 390 LINE",
"252 398 LINE",
"293 398 OFFCURVE",
"311 385 OFFCURVE",
"311 344 CURVE SMOOTH",
"311 313 LINE",
"204 305 LINE SMOOTH",
"85 297 OFFCURVE",
"29 259 OFFCURVE",
"29 152 CURVE SMOOTH",
"29 43 OFFCURVE",
"81 -12 OFFCURVE",
"184 -12 CURVE SMOOTH"
);
},
{
closed = 1;
nodes = (
"180 97 OFFCURVE",
"164 115 OFFCURVE",
"164 152 CURVE SMOOTH",
"164 189 OFFCURVE",
"183 209 OFFCURVE",
"220 212 CURVE SMOOTH",
"311 220 LINE",
"311 113 LINE",
"296 109 LINE SMOOTH",
"266 101 OFFCURVE",
"238 97 OFFCURVE",
"213 97 CURVE SMOOTH"
);
}
);
width = 511;
}
);
leftKerningGroup = a;
rightKerningGroup = a;
unicode = 0061;
},
{
glyphname = b;
lastChange = "2015-07-09 23:11:24 +0000";
layers = (
{
layerId = "E174F030-6324-451A-8951-EA6336064495";
name = Bold;
paths = (
{
closed = 1;
nodes = (
"440 -12 OFFCURVE",
"506 52 OFFCURVE",
"506 249 CURVE SMOOTH",
"506 446 OFFCURVE",
"444 512 OFFCURVE",
"304 512 CURVE SMOOTH",
"275 512 OFFCURVE",
"239 503 OFFCURVE",
"196 485 CURVE",
"196 700 LINE",
"62 700 LINE",
"62 2 LINE",
"100 -2 LINE SMOOTH",
"176 -9 OFFCURVE",
"228 -12 OFFCURVE",
"257 -12 CURVE SMOOTH"
);
},
{
closed = 1;
nodes = (
"247 108 OFFCURVE",
"227 109 OFFCURVE",
"196 112 CURVE",
"196 379 LINE",
"210 382 LINE",
"234 389 OFFCURVE",
"259 392 OFFCURVE",
"286 392 CURVE SMOOTH",
"342 392 OFFCURVE",
"370 347 OFFCURVE",
"370 257 CURVE SMOOTH",
"370 145 OFFCURVE",
"346 108 OFFCURVE",
"257 108 CURVE SMOOTH"
);
}
);
width = 544;
}
);
leftKerningGroup = b;
rightKerningGroup = b;
unicode = 0062;
},
{
glyphname = c;
lastChange = "2015-07-09 23:11:23 +0000";
layers = (
{
layerId = "E174F030-6324-451A-8951-EA6336064495";
name = Bold;
paths = (
{
closed = 1;
nodes = (
"283 -12 OFFCURVE",
"338 -5 OFFCURVE",
"409 9 CURVE",
"405 116 LINE",
"289 108 LINE",
"196 108 OFFCURVE",
"174 142 OFFCURVE",
"174 251 CURVE SMOOTH",
"174 360 OFFCURVE",
"196 392 OFFCURVE",
"288 392 CURVE SMOOTH",
"313 392 OFFCURVE",
"352 389 OFFCURVE",
"405 384 CURVE",
"409 490 LINE",
"382 496 LINE SMOOTH",
"328 507 OFFCURVE",
"284 512 OFFCURVE",
"249 512 CURVE SMOOTH",
"101 512 OFFCURVE",
"38 435 OFFCURVE",
"38 251 CURVE SMOOTH",
"38 67 OFFCURVE",
"98 -12 OFFCURVE",
"246 -12 CURVE SMOOTH"
);
}
);
width = 446;
}
);
leftKerningGroup = c;
rightKerningGroup = c;
unicode = 0063;
},
{
glyphname = d;
lastChange = "2015-07-09 23:11:23 +0000";
layers = (
{
layerId = "E174F030-6324-451A-8951-EA6336064495";
name = Bold;
paths = (
{
closed = 1;
nodes = (
"267 -12 OFFCURVE",
"307 -1 OFFCURVE",
"354 21 CURVE",
"354 0 LINE",
"487 0 LINE",
"487 700 LINE",
"353 700 LINE",
"353 498 LINE",
"334 502 LINE SMOOTH",
"296 509 OFFCURVE",
"266 512 OFFCURVE",
"245 512 CURVE SMOOTH",
"106 512 OFFCURVE",
"38 433 OFFCURVE",
"38 251 CURVE SMOOTH",
"38 69 OFFCURVE",
"88 -12 OFFCURVE",
"233 -12 CURVE SMOOTH"
);
},
{
closed = 1;
nodes = (
"196 108 OFFCURVE",
"174 148 OFFCURVE",
"174 252 CURVE SMOOTH",
"174 348 OFFCURVE",
"201 396 OFFCURVE",
"255 396 CURVE SMOOTH",
"284 396 OFFCURVE",
"316 393 OFFCURVE",
"353 386 CURVE",
"353 123 LINE",
"339 120 LINE",
"308 112 OFFCURVE",
"279 108 OFFCURVE",
"252 108 CURVE SMOOTH"
);
}
);
width = 549;
}
);
leftKerningGroup = d;
rightKerningGroup = numbersign;
unicode = 0064;
},
{
glyphname = e;
lastChange = "2015-07-09 23:11:24 +0000";
layers = (
{
layerId = "E174F030-6324-451A-8951-EA6336064495";
name = Bold;
paths = (
{
closed = 1;
nodes = (
"314 -12 OFFCURVE",
"383 -3 OFFCURVE",
"460 16 CURVE",
"458 115 LINE",
"430 112 LINE SMOOTH",
"381 108 OFFCURVE",
"326 106 OFFCURVE",
"264 106 CURVE SMOOTH",
"205 106 OFFCURVE",
"173 132 OFFCURVE",
"172 193 CURVE",
"466 193 LINE",
"476 286 LINE",
"476 437 OFFCURVE",
"403 512 OFFCURVE",
"258 512 CURVE SMOOTH",
"111 512 OFFCURVE",
"37 422 OFFCURVE",
"37 243 CURVE SMOOTH",
"37 63 OFFCURVE",
"101 -12 OFFCURVE",
"252 -12 CURVE SMOOTH"
);
},
{
closed = 1;
nodes = (
"172 372 OFFCURVE",
"195 402 OFFCURVE",
"259 402 CURVE SMOOTH",
"322 402 OFFCURVE",
"344 375 OFFCURVE",
"344 295 CURVE",
"171 295 LINE"
);
}
);
width = 510;
}
);
leftKerningGroup = c;
rightKerningGroup = e;
unicode = 0065;
},
{
glyphname = f;
lastChange = "2015-07-09 23:11:24 +0000";
layers = (
{
layerId = "E174F030-6324-451A-8951-EA6336064495";
name = Bold;
paths = (
{
closed = 1;
nodes = (
"220 0 LINE",
"220 386 LINE",
"341 386 LINE",
"341 500 LINE",
"220 500 LINE",
"220 521 LINE SMOOTH",
"220 573 OFFCURVE",
"230 592 OFFCURVE",
"270 592 CURVE SMOOTH",
"290 592 OFFCURVE",
"315 591 OFFCURVE",
"344 590 CURVE",
"346 699 LINE",
"325 702 LINE",
"287 709 OFFCURVE",
"256 712 OFFCURVE",
"232 712 CURVE SMOOTH",
"123 712 OFFCURVE",
"86 666 OFFCURVE",
"86 522 CURVE SMOOTH",
"86 500 LINE",
"32 500 LINE",
"32 386 LINE",
"86 386 LINE",
"86 0 LINE"
);
}
);
width = 357;
}
);
rightKerningGroup = numbersign;
unicode = 0066;
},
{
glyphname = g;
lastChange = "2015-07-09 23:11:24 +0000";
layers = (
{
layerId = "E174F030-6324-451A-8951-EA6336064495";
name = Bold;
paths = (
{
closed = 1;
nodes = (
"421 -230 OFFCURVE",
"515 -176 OFFCURVE",
"515 -62 CURVE SMOOTH",
"515 52 OFFCURVE",
"465 88 OFFCURVE",
"297 89 CURVE SMOOTH",
"255 90 OFFCURVE",
"228 92 OFFCURVE",
"217 96 CURVE SMOOTH",
"206 100 OFFCURVE",
"200 108 OFFCURVE",
"200 119 CURVE SMOOTH",
"200 130 OFFCURVE",
"203 144 OFFCURVE",
"210 161 CURVE",
"222 158 OFFCURVE",
"236 157 OFFCURVE",
"251 157 CURVE SMOOTH",
"396 157 OFFCURVE",
"462 200 OFFCURVE",
"462 333 CURVE SMOOTH",
"462 356 OFFCURVE",
"455 378 OFFCURVE",
"440 401 CURVE",
"515 395 LINE",
"515 502 LINE",
"354 497 LINE",
"338 500 LINE",
"310 507 OFFCURVE",
"282 510 OFFCURVE",
"253 510 CURVE SMOOTH",
"126 510 OFFCURVE",
"43 456 OFFCURVE",
"43 329 CURVE SMOOTH",
"43 265 OFFCURVE",
"66 217 OFFCURVE",
"111 184 CURVE",
"102 170 LINE SMOOTH",
"82 139 OFFCURVE",
"72 117 OFFCURVE",
"72 104 CURVE SMOOTH",
"72 70 OFFCURVE",
"84 45 OFFCURVE",
"109 28 CURVE",
"61 -9 OFFCURVE",
"37 -49 OFFCURVE",
"37 -91 CURVE SMOOTH",
"37 -196 OFFCURVE",
"121 -230 OFFCURVE",
"271 -230 CURVE SMOOTH"
);
},
{
closed = 1;
nodes = (
"204 -120 OFFCURVE",
"169 -106 OFFCURVE",
"169 -77 CURVE SMOOTH",
"169 -57 OFFCURVE",
"178 -38 OFFCURVE",
"196 -20 CURVE",
"286 -27 LINE",
"325 -28 OFFCURVE",
"350 -30 OFFCURVE",
"362 -35 CURVE SMOOTH",
"374 -40 OFFCURVE",
"380 -52 OFFCURVE",
"380 -70 CURVE SMOOTH",
"380 -103 OFFCURVE",
"345 -120 OFFCURVE",
"275 -120 CURVE SMOOTH"
);
},
{
closed = 1;
nodes = (
"203 259 OFFCURVE",
"177 284 OFFCURVE",
"177 333 CURVE SMOOTH",
"177 382 OFFCURVE",
"203 406 OFFCURVE",
"254 406 CURVE SMOOTH",
"305 406 OFFCURVE",
"330 382 OFFCURVE",
"330 333 CURVE SMOOTH",
"330 284 OFFCURVE",
"305 259 OFFCURVE",
"254 259 CURVE SMOOTH"
);
}
);
width = 534;
}
);
leftKerningGroup = g;
rightKerningGroup = g;
unicode = 0067;
},
{
glyphname = h;
lastChange = "2015-07-09 23:11:23 +0000";
layers = (
{
layerId = "E174F030-6324-451A-8951-EA6336064495";
name = Bold;
paths = (
{
closed = 1;
nodes = (
"196 0 LINE",
"196 376 LINE",
"209 380 LINE SMOOTH",
"235 388 OFFCURVE",
"261 392 OFFCURVE",
"287 392 CURVE SMOOTH",
"347 392 OFFCURVE",
"362 352 OFFCURVE",
"362 268 CURVE SMOOTH",
"362 0 LINE",
"496 0 LINE",
"496 271 LINE SMOOTH",
"496 435 OFFCURVE",
"453 512 OFFCURVE",
"320 512 CURVE SMOOTH",
"283 512 OFFCURVE",
"242 500 OFFCURVE",
"196 476 CURVE",
"196 700 LINE",
"62 700 LINE",
"62 0 LINE"
);
}
);
width = 553;
}
);
leftKerningGroup = h;
rightKerningGroup = h;
unicode = 0068;
},
{
glyphname = i;
lastChange = "2015-07-09 23:11:24 +0000";
layers = (
{
layerId = "E174F030-6324-451A-8951-EA6336064495";
name = Bold;
paths = (
{
closed = 1;
nodes = (
"196 0 LINE",
"196 500 LINE",
"62 500 LINE",
"62 0 LINE"
);
},
{
closed = 1;
nodes = (
"196 564 LINE",
"196 700 LINE",
"62 700 LINE",
"62 564 LINE"
);
}
);
width = 258;
}
);
leftKerningGroup = i;
rightKerningGroup = numbersign;
unicode = 0069;
},
{
glyphname = j;
lastChange = "2015-07-09 23:11:24 +0000";
layers = (
{
layerId = "E174F030-6324-451A-8951-EA6336064495";
name = Bold;
paths = (
{
closed = 1;
nodes = (
"162 -158 OFFCURVE",
"197 -113 OFFCURVE",
"197 23 CURVE SMOOTH",
"197 500 LINE",
"63 500 LINE",
"63 24 LINE SMOOTH",
"63 -5 OFFCURVE",
"60 -28 OFFCURVE",
"55 -43 CURVE SMOOTH",
"44 -75 OFFCURVE",
"26 -91 OFFCURVE",
"-34 -131 CURVE",
"19 -230 LINE"
);
},
{
closed = 1;
nodes = (
"197 564 LINE",
"197 700 LINE",
"63 700 LINE",
"63 564 LINE"
);
}
);
width = 259;
}
);
leftKerningGroup = i;
rightKerningGroup = numbersign;
unicode = 006A;
},
{
glyphname = k;
lastChange = "2015-07-09 23:11:24 +0000";
layers = (
{
layerId = "E174F030-6324-451A-8951-EA6336064495";
name = Bold;
paths = (
{
closed = 1;
nodes = (
"196 0 LINE",
"196 186 LINE",
"251 195 LINE",
"352 0 LINE",
"503 0 LINE",
"366 263 LINE",
"496 500 LINE",
"346 500 LINE",
"247 311 LINE",
"196 302 LINE",
"196 700 LINE",
"62 700 LINE",
"62 0 LINE"
);
}
);
width = 515;
}
);
leftKerningGroup = h;
rightKerningGroup = k;
unicode = 006B;
},
{
glyphname = l;
lastChange = "2015-07-09 23:11:24 +0000";
layers = (
{
layerId = "E174F030-6324-451A-8951-EA6336064495";
name = Bold;
paths = (
{
closed = 1;
nodes = (
"202 0 LINE",
"202 700 LINE",
"68 700 LINE",
"68 0 LINE"
);
}
);
width = 270;
}
);
leftKerningGroup = l;
rightKerningGroup = numbersign;
unicode = 006C;
},
{
glyphname = m;
lastChange = "2015-07-09 23:11:24 +0000";
layers = (
{
layerId = "E174F030-6324-451A-8951-EA6336064495";
name = Bold;
paths = (
{
closed = 1;
nodes = (
"196 0 LINE",
"196 374 LINE",
"208 378 LINE SMOOTH",
"233 387 OFFCURVE",
"259 392 OFFCURVE",
"285 392 CURVE SMOOTH",
"344 392 OFFCURVE",
"355 356 OFFCURVE",
"355 257 CURVE SMOOTH",
"355 0 LINE",
"489 0 LINE",
"489 259 LINE SMOOTH",
"489 285 OFFCURVE",
"488 323 OFFCURVE",
"485 373 CURVE",
"500 378 LINE",
"531 387 OFFCURVE",
"557 392 OFFCURVE",
"578 392 CURVE SMOOTH",
"634 392 OFFCURVE",
"648 352 OFFCURVE",
"648 267 CURVE SMOOTH",
"648 0 LINE",
"782 0 LINE",
"782 271 LINE SMOOTH",
"782 439 OFFCURVE",
"738 512 OFFCURVE",
"606 512 CURVE SMOOTH",
"555 512 OFFCURVE",
"499 496 OFFCURVE",
"438 465 CURVE",
"409 496 OFFCURVE",
"367 512 OFFCURVE",
"313 512 CURVE SMOOTH",
"280 512 OFFCURVE",
"241 499 OFFCURVE",
"195 472 CURVE",
"195 500 LINE",
"62 500 LINE",
"62 0 LINE"
);
}
);
width = 839;
}
);
leftKerningGroup = m;
rightKerningGroup = h;
unicode = 006D;
},
{
glyphname = n;
lastChange = "2015-07-09 23:11:24 +0000";
layers = (
{
layerId = "E174F030-6324-451A-8951-EA6336064495";
name = Bold;
paths = (
{
closed = 1;
nodes = (
"196 0 LINE",
"196 374 LINE",
"208 378 LINE SMOOTH",
"233 387 OFFCURVE",
"260 392 OFFCURVE",
"287 392 CURVE SMOOTH",
"347 392 OFFCURVE",
"362 352 OFFCURVE",
"362 267 CURVE SMOOTH",
"362 0 LINE",
"496 0 LINE",
"496 271 LINE SMOOTH",
"496 435 OFFCURVE",
"453 512 OFFCURVE",
"320 512 CURVE SMOOTH",
"282 512 OFFCURVE",
"240 499 OFFCURVE",
"195 472 CURVE",
"195 500 LINE",
"62 500 LINE",
"62 0 LINE"
);
}
);
width = 553;
}
);
leftKerningGroup = m;
rightKerningGroup = h;
unicode = 006E;
},
{
glyphname = o;
lastChange = "2015-07-09 23:11:23 +0000";
layers = (
{
layerId = "E174F030-6324-451A-8951-EA6336064495";
name = Bold;
paths = (
{
closed = 1;
nodes = (
"419 -12 OFFCURVE",
"496 76 OFFCURVE",
"496 251 CURVE SMOOTH",
"496 416 OFFCURVE",
"431 512 OFFCURVE",
"266 512 CURVE SMOOTH",
"183 512 OFFCURVE",
"124 489 OFFCURVE",
"89 444 CURVE SMOOTH",
"54 398 OFFCURVE",
"36 334 OFFCURVE",
"36 251 CURVE SMOOTH",
"36 76 OFFCURVE",
"113 -12 OFFCURVE",
"266 -12 CURVE SMOOTH"
);
},
{
closed = 1;
nodes = (
"231 102 OFFCURVE",
"206 114 OFFCURVE",
"193 138 CURVE SMOOTH",
"179 162 OFFCURVE",
"172 200 OFFCURVE",
"172 251 CURVE SMOOTH",
"172 354 OFFCURVE",
"195 398 OFFCURVE",
"266 398 CURVE SMOOTH",
"337 398 OFFCURVE",
"360 354 OFFCURVE",
"360 251 CURVE SMOOTH",
"360 148 OFFCURVE",
"337 102 OFFCURVE",
"266 102 CURVE SMOOTH"
);
}
);
width = 532;
}
);
leftKerningGroup = c;
rightKerningGroup = o;
unicode = 006F;
},
{
glyphname = p;
lastChange = "2015-07-09 23:11:24 +0000";
layers = (
{
layerId = "E174F030-6324-451A-8951-EA6336064495";
name = Bold;
paths = (
{
closed = 1;
nodes = (
"196 -210 LINE",
"196 -4 LINE",
"208 -6 LINE SMOOTH",
"233 -10 OFFCURVE",
"257 -12 OFFCURVE",
"279 -12 CURVE SMOOTH",
"440 -12 OFFCURVE",
"506 53 OFFCURVE",
"506 246 CURVE SMOOTH",
"506 439 OFFCURVE",
"444 512 OFFCURVE",
"309 512 CURVE SMOOTH",
"276 512 OFFCURVE",
"238 499 OFFCURVE",
"195 473 CURVE",
"195 500 LINE",
"62 500 LINE",
"62 -210 LINE"
);
},
{
closed = 1;
nodes = (
"250 104 OFFCURVE",
"226 106 OFFCURVE",
"196 110 CURVE",
"196 372 LINE",
"208 377 LINE SMOOTH",
"233 387 OFFCURVE",
"258 392 OFFCURVE",
"283 392 CURVE SMOOTH",
"341 392 OFFCURVE",
"370 346 OFFCURVE",
"370 254 CURVE SMOOTH",
"370 145 OFFCURVE",
"346 104 OFFCURVE",
"269 104 CURVE SMOOTH"
);
}
);
width = 544;
}
);
leftKerningGroup = m;
rightKerningGroup = b;
unicode = 0070;
},
{
glyphname = q;
lastChange = "2015-07-09 23:11:24 +0000";
layers = (
{
layerId = "E174F030-6324-451A-8951-EA6336064495";
name = Bold;
paths = (
{
closed = 1;
nodes = (
"481 -210 LINE",
"481 499 LINE",
"445 502 LINE SMOOTH",
"380 509 OFFCURVE",
"327 512 OFFCURVE",
"286 512 CURVE SMOOTH",
"103 512 OFFCURVE",
"38 450 OFFCURVE",
"38 252 CURVE SMOOTH",
"38 54 OFFCURVE",
"99 -12 OFFCURVE",
"239 -12 CURVE SMOOTH",
"268 -12 OFFCURVE",
"304 -3 OFFCURVE",
"347 15 CURVE",
"347 -210 LINE"
);
},
{
closed = 1;
nodes = (
"200 108 OFFCURVE",
"172 153 OFFCURVE",
"172 243 CURVE SMOOTH",
"172 355 OFFCURVE",
"197 396 OFFCURVE",
"286 396 CURVE SMOOTH",
"302 396 OFFCURVE",
"322 395 OFFCURVE",
"347 392 CURVE",
"347 121 LINE",
"334 118 LINE",
"309 111 OFFCURVE",
"284 108 OFFCURVE",
"257 108 CURVE SMOOTH"
);
}
);
width = 543;
}
);
leftKerningGroup = d;
rightKerningGroup = q;
unicode = 0071;
},
{
glyphname = r;
lastChange = "2015-07-09 23:11:23 +0000";
layers = (
{
layerId = "E174F030-6324-451A-8951-EA6336064495";
name = Bold;
paths = (
{
closed = 1;
nodes = (
"196 0 LINE",
"196 335 LINE",
"216 342 LINE",
"255 354 OFFCURVE",
"301 366 OFFCURVE",
"355 377 CURVE",
"355 512 LINE",
"304 502 OFFCURVE",
"251 480 OFFCURVE",
"195 447 CURVE",
"195 500 LINE",
"62 500 LINE",
"62 0 LINE"
);
}
);
width = 372;
}
);
leftKerningGroup = m;
rightKerningGroup = r;
unicode = 0072;
},
{
glyphname = s;
lastChange = "2015-07-09 23:11:23 +0000";
layers = (
{
layerId = "E174F030-6324-451A-8951-EA6336064495";
name = Bold;
paths = (
{
closed = 1;
nodes = (
"370 -12 OFFCURVE",
"437 42 OFFCURVE",
"437 150 CURVE SMOOTH",
"437 249 OFFCURVE",
"396 285 OFFCURVE",
"289 305 CURVE SMOOTH",
"235 314 OFFCURVE",
"202 322 OFFCURVE",
"189 327 CURVE SMOOTH",
"176 332 OFFCURVE",
"169 341 OFFCURVE",
"169 354 CURVE SMOOTH",
"169 367 OFFCURVE",
"174 376 OFFCURVE",
"184 382 CURVE",
"193 388 OFFCURVE",
"215 391 OFFCURVE",
"248 391 CURVE SMOOTH",
"281 391 OFFCURVE",
"338 386 OFFCURVE",
"421 375 CURVE",
"423 486 LINE",
"390 492 LINE SMOOTH",
"322 505 OFFCURVE",
"268 511 OFFCURVE",
"229 511 CURVE SMOOTH",
"116 511 OFFCURVE",
"36 457 OFFCURVE",
"36 351 CURVE SMOOTH",
"36 245 OFFCURVE",
"86 213 OFFCURVE",
"190 196 CURVE SMOOTH",
"241 187 OFFCURVE",
"273 180 OFFCURVE",
"286 174 CURVE SMOOTH",
"298 168 OFFCURVE",
"304 159 OFFCURVE",
"304 146 CURVE SMOOTH",
"304 133 OFFCURVE",
"298 124 OFFCURVE",
"287 118 CURVE SMOOTH",
"275 111 OFFCURVE",
"253 108 OFFCURVE",
"221 108 CURVE SMOOTH",
"188 108 OFFCURVE",
"131 113 OFFCURVE",
"48 124 CURVE",
"44 12 LINE",
"76 6 LINE SMOOTH",
"139 -6 OFFCURVE",
"192 -12 OFFCURVE",
"236 -12 CURVE SMOOTH"
);
}
);
width = 472;
}
);
leftKerningGroup = s;
rightKerningGroup = s;
unicode = 0073;
},
{
glyphname = t;
lastChange = "2015-07-09 23:11:24 +0000";
layers = (
{
layerId = "E174F030-6324-451A-8951-EA6336064495";
name = Bold;
paths = (
{
closed = 1;
nodes = (
"261 -12 OFFCURVE",
"295 -7 OFFCURVE",
"340 3 CURVE",
"334 110 LINE",
"258 108 LINE SMOOTH",
"231 108 OFFCURVE",
"220 122 OFFCURVE",
"218 139 CURVE SMOOTH",
"217 147 OFFCURVE",
"216 161 OFFCURVE",
"216 181 CURVE SMOOTH",
"216 386 LINE",
"339 386 LINE",
"339 500 LINE",
"216 500 LINE",
"216 639 LINE",
"82 639 LINE",
"82 500 LINE",
"23 500 LINE",
"23 386 LINE",
"82 386 LINE",
"82 178 LINE SMOOTH",
"82 33 OFFCURVE",
"118 -12 OFFCURVE",
"238 -12 CURVE SMOOTH"
);
}
);
width = 364;
}
);
leftKerningGroup = t;
rightKerningGroup = t;
unicode = 0074;
},
{
glyphname = u;
lastChange = "2015-07-09 23:11:24 +0000";
layers = (
{
layerId = "E174F030-6324-451A-8951-EA6336064495";
name = Bold;
paths = (
{
closed = 1;
nodes = (
"268 -12 OFFCURVE",
"310 1 OFFCURVE",
"358 28 CURVE",
"358 0 LINE",
"491 0 LINE",
"491 500 LINE",
"357 500 LINE",
"357 126 LINE",
"344 122 LINE SMOOTH",
"318 113 OFFCURVE",
"290 108 OFFCURVE",
"261 108 CURVE SMOOTH",
"200 108 OFFCURVE",
"191 137 OFFCURVE",
"191 236 CURVE SMOOTH",
"191 500 LINE",
"57 500 LINE",
"57 238 LINE SMOOTH",
"57 58 OFFCURVE",
"94 -12 OFFCURVE",
"233 -12 CURVE SMOOTH"
);
}
);
width = 553;
}
);
leftKerningGroup = u;
rightKerningGroup = q;
unicode = 0075;
},
{
glyphname = v;
lastChange = "2015-07-09 23:11:24 +0000";
layers = (
{
layerId = "E174F030-6324-451A-8951-EA6336064495";
name = Bold;
paths = (
{
closed = 1;
nodes = (
"363 0 LINE",
"483 500 LINE",
"347 500 LINE",
"263 114 LINE",
"235 114 LINE",
"155 500 LINE",
"15 500 LINE",
"135 0 LINE"
);
}
);
width = 498;
}
);
rightKerningGroup = numbersign;
unicode = 0076;
},
{
glyphname = w;
lastChange = "2015-07-09 23:11:24 +0000";
layers = (
{
layerId = "E174F030-6324-451A-8951-EA6336064495";
name = Bold;
paths = (
{
closed = 1;
nodes = (
"329 0 LINE",
"386 306 LINE",
"443 0 LINE",
"653 0 LINE",
"748 500 LINE",
"616 500 LINE",
"555 114 LINE",
"531 114 LINE",
"455 490 LINE",
"317 490 LINE",
"241 114 LINE",
"217 114 LINE",
"156 500 LINE",
"24 500 LINE",
"119 0 LINE"
);
}
);
width = 772;
}
);
leftKerningGroup = w;
rightKerningGroup = w;
unicode = 0077;
},
{
glyphname = x;
lastChange = "2015-07-09 23:11:24 +0000";
layers = (
{
layerId = "E174F030-6324-451A-8951-EA6336064495";
name = Bold;
paths = (
{
closed = 1;
nodes = (
"157 0 LINE",
"237 153 LINE",
"318 0 LINE",
"461 0 LINE",
"319 255 LINE",
"461 500 LINE",
"318 500 LINE",
"237 345 LINE",
"157 500 LINE",
"14 500 LINE",
"151 251 LINE",
"14 0 LINE"
);
}
);
width = 474;
}
);
rightKerningGroup = numbersign;
unicode = 0078;
},
{
glyphname = y;
lastChange = "2015-07-09 23:11:24 +0000";
layers = (
{
layerId = "E174F030-6324-451A-8951-EA6336064495";
name = Bold;
paths = (
{
closed = 1;
nodes = (
"309 -210 LINE",
"485 500 LINE",
"353 500 LINE",
"262 114 LINE",
"239 114 LINE",
"148 500 LINE",
"16 500 LINE",
"139 0 LINE",
"233 0 LINE",
"178 -210 LINE"
);
}
);
width = 500;
}
);
leftKerningGroup = y;
rightKerningGroup = y;
unicode = 0079;
},
{
glyphname = z;
lastChange = "2015-07-09 23:11:24 +0000";
layers = (
{
layerId = "E174F030-6324-451A-8951-EA6336064495";
name = Bold;
paths = (
{
closed = 1;
nodes = (
"412 0 LINE",
"412 120 LINE",
"202 120 LINE",
"412 380 LINE",
"412 500 LINE",
"41 500 LINE",
"41 380 LINE",
"251 380 LINE",
"41 120 LINE",
"41 0 LINE"
);
}
);
width = 454;
}
);
leftKerningGroup = z;
rightKerningGroup = z;
unicode = 007A;
},
{
glyphname = braceleft;
lastChange = "2015-07-09 23:11:23 +0000";
layers = (
{
layerId = "E174F030-6324-451A-8951-EA6336064495";
name = Bold;
paths = (
{
closed = 1;
nodes = (
"323 -20 LINE",
"267 -16 OFFCURVE",
"252 10 OFFCURVE",
"252 55 CURVE",
"259 172 LINE",
"259 257 OFFCURVE",
"239 291 OFFCURVE",
"146 314 CURVE",
"241 337 OFFCURVE",
"258 364 OFFCURVE",
"258 448 CURVE",
"251 576 LINE",
"251 620 OFFCURVE",
"268 642 OFFCURVE",
"325 647 CURVE",
"325 761 LINE",
"174 756 OFFCURVE",
"121 713 OFFCURVE",
"121 586 CURVE",
"128 459 LINE",
"128 414 OFFCURVE",
"91 382 OFFCURVE",
"16 365 CURVE",
"16 261 LINE",
"91 242 OFFCURVE",
"128 208 OFFCURVE",
"128 159 CURVE",
"121 38 LINE",
"121 -82 OFFCURVE",
"175 -129 OFFCURVE",
"323 -134 CURVE"
);
}
);
width = 361;
}
);
rightKerningGroup = numbersign;
unicode = 007B;
},
{
glyphname = bar;
lastChange = "2015-07-09 23:11:24 +0000";
layers = (
{
layerId = "E174F030-6324-451A-8951-EA6336064495";
name = Bold;
paths = (
{
closed = 1;
nodes = (
"201 -210 LINE",
"201 700 LINE",
"67 700 LINE",
"67 -210 LINE"
);
}
);
width = 268;
}
);
rightKerningGroup = numbersign;
unicode = 007C;
},
{
glyphname = braceright;
lastChange = "2015-07-09 23:11:24 +0000";
layers = (
{
layerId = "E174F030-6324-451A-8951-EA6336064495";
name = Bold;
paths = (
{
closed = 1;
nodes = (
"186 -129 OFFCURVE",
"240 -82 OFFCURVE",
"240 38 CURVE",
"233 159 LINE",
"233 208 OFFCURVE",
"270 242 OFFCURVE",
"345 261 CURVE",
"345 365 LINE",
"270 382 OFFCURVE",
"233 414 OFFCURVE",
"233 459 CURVE",
"240 586 LINE",
"240 713 OFFCURVE",
"187 756 OFFCURVE",
"36 761 CURVE",
"36 647 LINE",
"93 642 OFFCURVE",
"110 620 OFFCURVE",
"110 576 CURVE",
"103 448 LINE",
"103 364 OFFCURVE",
"120 337 OFFCURVE",
"215 314 CURVE",
"122 291 OFFCURVE",
"102 257 OFFCURVE",
"102 172 CURVE",
"109 55 LINE",
"109 10 OFFCURVE",
"94 -16 OFFCURVE",
"38 -20 CURVE",
"38 -134 LINE"
);
}
);
width = 361;
}
);
rightKerningGroup = numbersign;
unicode = 007D;
},
{
glyphname = asciitilde;
lastChange = "2015-07-09 23:11:24 +0000";
layers = (
{
layerId = "E174F030-6324-451A-8951-EA6336064495";
name = Bold;
paths = (
{
closed = 1;
nodes = (
"402 170 OFFCURVE",
"422 175 OFFCURVE",
"445 186 CURVE SMOOTH",
"467 197 OFFCURVE",
"484 208 OFFCURVE",
"497 221 CURVE",
"489 328 LINE",
"472 318 LINE SMOOTH",
"438 299 OFFCURVE",
"409 290 OFFCURVE",
"384 290 CURVE SMOOTH",
"371 290 OFFCURVE",
"339 297 OFFCURVE",
"288 312 CURVE SMOOTH",
"237 327 OFFCURVE",
"203 334 OFFCURVE",
"184 334 CURVE SMOOTH",
"144 334 OFFCURVE",
"103 317 OFFCURVE",
"61 282 CURVE",
"71 175 LINE",
"88 184 LINE",
"109 197 OFFCURVE",
"153 214 OFFCURVE",
"178 214 CURVE SMOOTH",
"191 214 OFFCURVE",
"223 207 OFFCURVE",
"276 192 CURVE SMOOTH",
"329 177 OFFCURVE",
"364 170 OFFCURVE",
"383 170 CURVE SMOOTH"
);
}
);
width = 560;
}
);
rightKerningGroup = numbersign;
unicode = 007E;
},
{
glyphname = exclamdown;
lastChange = "2015-07-09 23:11:23 +0000";
layers = (
{
layerId = "E174F030-6324-451A-8951-EA6336064495";
name = Bold;
paths = (
{
closed = 1;
nodes = (
"204 -180 LINE",
"191 250 LINE",
"73 250 LINE",
"59 -180 LINE"
);
},
{
closed = 1;
nodes = (
"204 339 LINE",
"204 500 LINE",
"60 500 LINE",
"60 339 LINE"
);
}
);
width = 264;
}
);
rightKerningGroup = numbersign;
unicode = 00A1;
},
{
glyphname = cent;
lastChange = "2015-07-09 23:11:23 +0000";
layers = (
{
layerId = "E174F030-6324-451A-8951-EA6336064495";
name = Bold;
paths = (
{
closed = 1;
nodes = (
"380 -75 LINE",
"380 34 LINE",
"407 36 OFFCURVE",
"433 40 OFFCURVE",
"459 47 CURVE",
"455 147 LINE",
"339 143 LINE SMOOTH",
"255 143 OFFCURVE",
"224 174 OFFCURVE",
"224 250 CURVE SMOOTH",
"224 326 OFFCURVE",
"258 356 OFFCURVE",
"326 356 CURVE SMOOTH",
"359 356 OFFCURVE",
"402 355 OFFCURVE",
"455 353 CURVE",
"459 453 LINE",
"380 466 LINE",
"380 571 LINE",
"270 571 LINE",
"270 470 LINE",
"149 460 OFFCURVE",
"88 386 OFFCURVE",
"88 249 CURVE SMOOTH",
"88 111 OFFCURVE",
"149 38 OFFCURVE",
"270 29 CURVE",
"270 -75 LINE"
);
}
);
width = 560;
}
);
rightKerningGroup = numbersign;
unicode = 00A2;
},
{
glyphname = sterling;
lastChange = "2015-07-09 23:11:24 +0000";
layers = (
{
layerId = "E174F030-6324-451A-8951-EA6336064495";
name = Bold;
paths = (
{
closed = 1;
nodes = (
"414 0 LINE",
"495 18 LINE",
"474 130 LINE",
"405 114 LINE",
"281 114 LINE",
"281 319 LINE",
"434 319 LINE",
"434 433 LINE",
"281 433 LINE",
"281 486 LINE SMOOTH",
"281 529 OFFCURVE",
"298 551 OFFCURVE",
"333 551 CURVE SMOOTH",
"375 551 OFFCURVE",
"419 548 OFFCURVE",
"464 543 CURVE",
"468 647 LINE",
"446 653 LINE SMOOTH",
"403 665 OFFCURVE",
"360 671 OFFCURVE",
"315 671 CURVE SMOOTH",
"200 671 OFFCURVE",
"149 631 OFFCURVE",
"149 492 CURVE SMOOTH",
"149 433 LINE",
"85 433 LINE",
"85 319 LINE",
"149 319 LINE",
"149 114 LINE",
"75 114 LINE",
"75 0 LINE"
);
}
);
width = 560;
}
);
rightKerningGroup = numbersign;
unicode = 00A3;
},
{
glyphname = currency;
lastChange = "2015-07-09 23:11:24 +0000";
layers = (
{
layerId = "E174F030-6324-451A-8951-EA6336064495";
name = Bold;
paths = (
{
closed = 1;
nodes = (
"195 75 LINE",
"222 62 OFFCURVE",
"250 55 OFFCURVE",
"280 55 CURVE SMOOTH",
"310 55 OFFCURVE",
"338 62 OFFCURVE",
"365 75 CURVE",
"438 2 LINE",
"530 94 LINE",
"457 166 LINE",
"470 193 OFFCURVE",
"477 221 OFFCURVE",
"477 252 CURVE SMOOTH",
"477 282 OFFCURVE",
"470 310 OFFCURVE",
"457 337 CURVE",
"530 410 LINE",
"438 502 LINE",
"365 429 LINE",
"338 442 OFFCURVE",
"310 449 OFFCURVE",
"280 449 CURVE SMOOTH",
"249 449 OFFCURVE",
"221 442 OFFCURVE",
"194 429 CURVE",
"122 502 LINE",
"30 410 LINE",
"102 337 LINE",
"89 310 OFFCURVE",
"83 281 OFFCURVE",
"83 252 CURVE SMOOTH",
"83 222 OFFCURVE",
"89 193 OFFCURVE",
"102 166 CURVE",
"30 94 LINE",
"122 2 LINE"
);
},
{
closed = 1;
nodes = (
"257 166 OFFCURVE",
"237 175 OFFCURVE",
"220 192 CURVE SMOOTH",
"203 209 OFFCURVE",
"194 229 OFFCURVE",
"194 252 CURVE SMOOTH",
"194 299 OFFCURVE",
"233 338 OFFCURVE",
"280 338 CURVE SMOOTH",
"327 338 OFFCURVE",
"366 299 OFFCURVE",
"366 252 CURVE SMOOTH",
"366 205 OFFCURVE",
"327 166 OFFCURVE",
"280 166 CURVE SMOOTH"
);
}
);
width = 560;
}
);
rightKerningGroup = numbersign;
unicode = 00A4;
},
{
glyphname = yen;
lastChange = "2015-07-09 23:11:24 +0000";
layers = (
{
layerId = "E174F030-6324-451A-8951-EA6336064495";
name = Bold;
paths = (
{
closed = 1;
nodes = (
"351 0 LINE",
"351 134 LINE",
"502 134 LINE",
"502 246 LINE",
"351 246 LINE",
"351 291 LINE",
"502 291 LINE",
"502 403 LINE",
"413 403 LINE",
"556 660 LINE",
"403 660 LINE",
"281 449 LINE",
"158 660 LINE",
"5 660 LINE",
"150 403 LINE",
"58 403 LINE",
"58 291 LINE",
"213 291 LINE",
"213 246 LINE",
"58 246 LINE",
"58 134 LINE",
"213 134 LINE",
"213 0 LINE"
);
}
);
width = 560;
}
);
rightKerningGroup = numbersign;
unicode = 00A5;
},
{
glyphname = brokenbar;
lastChange = "2015-07-09 23:11:24 +0000";
layers = (
{
layerId = "E174F030-6324-451A-8951-EA6336064495";
name = Bold;
paths = (
{
closed = 1;
nodes = (
"203 -210 LINE",
"203 170 LINE",
"69 170 LINE",
"69 -210 LINE"
);
},
{
closed = 1;
nodes = (
"203 328 LINE",
"203 700 LINE",
"69 700 LINE",
"69 328 LINE"
);
}
);
width = 272;
}
);
rightKerningGroup = numbersign;
unicode = 00A6;
},
{
glyphname = section;
lastChange = "2015-07-09 23:11:23 +0000";
layers = (
{
layerId = "E174F030-6324-451A-8951-EA6336064495";
name = Bold;
paths = (
{
closed = 1;
nodes = (
"398 -190 OFFCURVE",
"463 -136 OFFCURVE",
"463 -7 CURVE SMOOTH",
"463 54 OFFCURVE",
"452 77 OFFCURVE",
"425 102 CURVE",
"458 149 OFFCURVE",
"475 196 OFFCURVE",
"475 243 CURVE SMOOTH",
"475 335 OFFCURVE",
"442 363 OFFCURVE",
"327 391 CURVE SMOOTH",
"270 405 OFFCURVE",
"232 416 OFFCURVE",
"214 424 CURVE",
"196 431 OFFCURVE",
"187 442 OFFCURVE",
"187 457 CURVE SMOOTH",
"187 506 OFFCURVE",
"207 522 OFFCURVE",
"278 522 CURVE SMOOTH",
"313 522 OFFCURVE",
"369 517 OFFCURVE",
"444 506 CURVE",
"450 614 LINE",
"422 620 LINE SMOOTH",
"366 632 OFFCURVE",
"317 638 OFFCURVE",
"274 638 CURVE SMOOTH",
"129 638 OFFCURVE",
"57 577 OFFCURVE",
"57 455 CURVE SMOOTH",
"57 404 OFFCURVE",
"72 368 OFFCURVE",
"101 347 CURVE",
"69 320 OFFCURVE",
"37 260 OFFCURVE",
"37 213 CURVE SMOOTH",
"37 118 OFFCURVE",
"75 87 OFFCURVE",
"195 57 CURVE SMOOTH",
"255 42 OFFCURVE",
"293 30 OFFCURVE",
"310 22 CURVE SMOOTH",
"327 14 OFFCURVE",
"335 1 OFFCURVE",
"335 -18 CURVE SMOOTH",
"335 -56 OFFCURVE",
"306 -74 OFFCURVE",
"235 -74 CURVE SMOOTH",
"199 -74 OFFCURVE",
"145 -69 OFFCURVE",
"73 -59 CURVE",
"60 -167 LINE",
"91 -172 LINE SMOOTH",
"157 -184 OFFCURVE",
"209 -190 OFFCURVE",
"246 -190 CURVE SMOOTH"
);
},
{
closed = 1;
nodes = (
"290 160 OFFCURVE",
"261 169 OFFCURVE",
"235 176 CURVE SMOOTH",
"182 191 OFFCURVE",
"172 198 OFFCURVE",
"172 243 CURVE SMOOTH",
"172 265 OFFCURVE",
"178 285 OFFCURVE",
"189 302 CURVE",
"196 300 OFFCURVE",
"208 297 OFFCURVE",
"225 293 CURVE SMOOTH",
"242 289 OFFCURVE",
"260 285 OFFCURVE",
"279 280 CURVE SMOOTH",
"317 270 OFFCURVE",
"339 255 OFFCURVE",
"339 222 CURVE SMOOTH",
"339 189 OFFCURVE",
"333 164 OFFCURVE",
"321 149 CURVE"
);
}
);
width = 517;
}
);
rightKerningGroup = numbersign;
unicode = 00A7;
},
{
glyphname = dieresis;
lastChange = "2015-07-09 23:11:24 +0000";
layers = (
{
layerId = "E174F030-6324-451A-8951-EA6336064495";
name = Bold;
paths = (
{
closed = 1;
nodes = (
"314 596 LINE",
"314 728 LINE",
"186 728 LINE",
"186 596 LINE"
);
},
{
closed = 1;
nodes = (
"98 596 LINE",
"98 728 LINE",
"-30 728 LINE",
"-30 596 LINE"
);
}
);
width = 268;
}
);
rightKerningGroup = numbersign;
unicode = 00A8;
},
{
glyphname = copyright;
lastChange = "2015-07-09 23:11:23 +0000";
layers = (
{
layerId = "E174F030-6324-451A-8951-EA6336064495";
name = Bold;
paths = (
{
closed = 1;
nodes = (
"485 150 OFFCURVE",
"597 271 OFFCURVE",
"597 432 CURVE SMOOTH",
"597 593 OFFCURVE",
"486 718 OFFCURVE",
"324 718 CURVE SMOOTH",
"162 718 OFFCURVE",
"46 598 OFFCURVE",
"46 436 CURVE SMOOTH",
"46 274 OFFCURVE",
"163 150 OFFCURVE",
"324 150 CURVE SMOOTH"
);
},
{
closed = 1;
nodes = (
"365 269 OFFCURVE",
"395 275 OFFCURVE",
"414 287 CURVE",
"407 369 LINE",
"340 364 LINE",
"317 364 OFFCURVE",
"305 389 OFFCURVE",
"305 439 CURVE SMOOTH",
"305 487 OFFCURVE",
"311 503 OFFCURVE",
"346 503 CURVE SMOOTH",
"363 503 OFFCURVE",
"384 501 OFFCURVE",
"407 497 CURVE",
"414 583 LINE",
"404 586 LINE",
"383 594 OFFCURVE",
"360 598 OFFCURVE",
"334 598 CURVE SMOOTH",
"239 598 OFFCURVE",
"202 559 OFFCURVE",
"202 435 CURVE SMOOTH",
"202 310 OFFCURVE",
"240 269 OFFCURVE",
"324 269 CURVE SMOOTH"
);
},
{
closed = 1;
nodes = (
"200 210 OFFCURVE",
"108 310 OFFCURVE",
"108 434 CURVE SMOOTH",
"108 496 OFFCURVE",
"129 549 OFFCURVE",
"170 593 CURVE SMOOTH",
"211 636 OFFCURVE",
"261 658 OFFCURVE",
"322 658 CURVE SMOOTH",
"442 658 OFFCURVE",
"535 557 OFFCURVE",
"535 433 CURVE SMOOTH",
"535 309 OFFCURVE",
"444 210 OFFCURVE",
"322 210 CURVE SMOOTH"
);
}
);
width = 643;
}
);
rightKerningGroup = numbersign;
unicode = 00A9;
},
{
glyphname = ordfeminine;
lastChange = "2015-07-09 23:11:24 +0000";
layers = (
{
layerId = "E174F030-6324-451A-8951-EA6336064495";
name = Bold;
paths = (
{
closed = 1;
nodes = (
"369 395 LINE",
"362 396 OFFCURVE",
"356 399 OFFCURVE",
"351 403 CURVE",
"351 544 LINE SMOOTH",
"351 632 OFFCURVE",
"301 659 OFFCURVE",
"202 659 CURVE SMOOTH",
"153 659 OFFCURVE",
"105 650 OFFCURVE",
"58 633 CURVE",
"61 558 LINE",
"192 565 LINE",
"221 565 OFFCURVE",
"236 560 OFFCURVE",
"236 550 CURVE SMOOTH",
"236 528 LINE",
"169 525 LINE SMOOTH",
"84 521 OFFCURVE",
"42 487 OFFCURVE",
"42 424 CURVE SMOOTH",
"42 356 OFFCURVE",
"81 314 OFFCURVE",
"148 314 CURVE SMOOTH",
"181 314 OFFCURVE",
"212 325 OFFCURVE",
"240 346 CURVE",
"248 334 OFFCURVE",
"260 326 OFFCURVE",
"276 321 CURVE SMOOTH",
"291 316 OFFCURVE",
"322 313 OFFCURVE",
"367 313 CURVE"
);
},
{
closed = 1;
nodes = (
"167 402 OFFCURVE",
"157 411 OFFCURVE",
"157 428 CURVE SMOOTH",
"157 444 OFFCURVE",
"168 453 OFFCURVE",
"189 455 CURVE SMOOTH",
"236 458 LINE",
"236 418 LINE",
"216 407 OFFCURVE",
"200 402 OFFCURVE",
"188 402 CURVE SMOOTH"
);
}
);
width = 416;
}
);
rightKerningGroup = numbersign;
unicode = 00AA;
},
{
glyphname = guillemotleft;
lastChange = "2015-07-09 23:11:24 +0000";
layers = (
{
layerId = "E174F030-6324-451A-8951-EA6336064495";
name = Bold;
paths = (
{
closed = 1;
nodes = (
"546 158 LINE",
"437 244 LINE",
"546 319 LINE",
"546 454 LINE",
"323 290 LINE",
"323 194 LINE",
"546 23 LINE"
);
},
{
closed = 1;
nodes = (
"263 158 LINE",
"154 244 LINE",
"263 319 LINE",
"263 454 LINE",
"40 290 LINE",
"40 194 LINE",
"263 23 LINE"
);
}
);
width = 601;
}
);
leftKerningGroup = guillemotleft;
rightKerningGroup = guillemotleft;
unicode = 00AB;
},
{
glyphname = logicalnot;
lastChange = "2015-07-09 23:11:24 +0000";
layers = (
{
layerId = "E174F030-6324-451A-8951-EA6336064495";
name = Bold;
paths = (
{
closed = 1;
nodes = (
"493 104 LINE",
"493 358 LINE",
"57 358 LINE",
"57 238 LINE",
"373 238 LINE",
"373 104 LINE"
);
}
);
width = 560;
}
);
rightKerningGroup = numbersign;
unicode = 00AC;
},
{
glyphname = registered;
lastChange = "2015-07-09 23:11:24 +0000";
layers = (
{
layerId = "E174F030-6324-451A-8951-EA6336064495";
name = Bold;
paths = (
{
closed = 1;
nodes = (
"487 150 OFFCURVE",
"597 271 OFFCURVE",
"597 432 CURVE SMOOTH",
"597 593 OFFCURVE",
"484 718 OFFCURVE",
"323 718 CURVE SMOOTH",
"162 718 OFFCURVE",
"46 598 OFFCURVE",
"46 435 CURVE SMOOTH",
"46 272 OFFCURVE",
"163 150 OFFCURVE",
"325 150 CURVE SMOOTH"
);
},
{
closed = 1;
nodes = (
"202 210 OFFCURVE",
"108 311 OFFCURVE",
"108 434 CURVE SMOOTH",
"108 495 OFFCURVE",
"129 548 OFFCURVE",
"170 592 CURVE SMOOTH",
"211 636 OFFCURVE",
"261 658 OFFCURVE",
"322 658 CURVE SMOOTH",
"442 658 OFFCURVE",
"535 557 OFFCURVE",
"535 434 CURVE SMOOTH",
"535 310 OFFCURVE",
"443 210 OFFCURVE",
"323 210 CURVE SMOOTH"
);
},
{
closed = 1;
nodes = (
"297 276 LINE",
"297 369 LINE",
"326 369 LINE",
"354 276 LINE",
"454 276 LINE",
"413 386 LINE",
"442 410 OFFCURVE",
"451 432 OFFCURVE",
"451 494 CURVE SMOOTH",
"451 556 OFFCURVE",
"406 591 OFFCURVE",
"337 591 CURVE SMOOTH",
"201 591 LINE",
"201 276 LINE"
);
},
{
closed = 1;
nodes = (
"296 519 LINE",
"323 519 LINE SMOOTH",
"346 519 OFFCURVE",
"358 506 OFFCURVE",
"358 480 CURVE SMOOTH",
"358 453 OFFCURVE",
"347 440 OFFCURVE",
"324 440 CURVE SMOOTH",
"296 440 LINE"
);
}
);
width = 643;
}
);
rightKerningGroup = numbersign;
unicode = 00AE;
},
{
glyphname = macron;
lastChange = "2015-07-09 23:11:23 +0000";
layers = (
{
layerId = "E174F030-6324-451A-8951-EA6336064495";
name = Bold;
paths = (
{
closed = 1;
nodes = (
"282 597 LINE",
"282 697 LINE",
"-5 697 LINE",
"-5 597 LINE"
);
}
);
width = 268;
}
);
rightKerningGroup = numbersign;
unicode = 00AF;
},
{
glyphname = degree;
lastChange = "2015-07-09 23:11:24 +0000";
layers = (
{
layerId = "E174F030-6324-451A-8951-EA6336064495";
name = Bold;
paths = (
{
closed = 1;
nodes = (
"369 393 OFFCURVE",
"430 453 OFFCURVE",
"430 542 CURVE SMOOTH",
"430 631 OFFCURVE",
"369 692 OFFCURVE",
"280 692 CURVE SMOOTH",
"191 692 OFFCURVE",
"130 631 OFFCURVE",
"130 542 CURVE SMOOTH",
"130 497 OFFCURVE",
"144 461 OFFCURVE",
"172 434 CURVE SMOOTH",
"199 407 OFFCURVE",
"235 393 OFFCURVE",
"280 393 CURVE SMOOTH"
);
},
{
closed = 1;
nodes = (
"235 466 OFFCURVE",
"205 497 OFFCURVE",
"205 542 CURVE SMOOTH",
"205 565 OFFCURVE",
"212 583 OFFCURVE",
"226 598 CURVE SMOOTH",
"239 612 OFFCURVE",
"257 619 OFFCURVE",
"280 619 CURVE SMOOTH",
"325 619 OFFCURVE",
"357 587 OFFCURVE",
"357 542 CURVE SMOOTH",
"357 497 OFFCURVE",
"325 466 OFFCURVE",
"280 466 CURVE SMOOTH"
);
}
);
width = 560;
}
);
rightKerningGroup = numbersign;
unicode = 00B0;
},
{
glyphname = plusminus;
lastChange = "2015-07-09 23:11:24 +0000";
layers = (
{
layerId = "E174F030-6324-451A-8951-EA6336064495";
name = Bold;
paths = (
{
closed = 1;
nodes = (
"339 170 LINE",
"339 270 LINE",
"510 270 LINE",
"510 390 LINE",
"339 390 LINE",
"339 498 LINE",
"219 498 LINE",
"219 390 LINE",
"50 390 LINE",
"50 270 LINE",
"219 270 LINE",
"219 170 LINE"
);
},
{
closed = 1;
nodes = (
"510 19 LINE",
"510 139 LINE",
"50 139 LINE",
"50 19 LINE"
);
}
);
width = 560;
}
);
rightKerningGroup = numbersign;
unicode = 00B1;
},
{
glyphname = twosuperior;
lastChange = "2015-07-09 23:11:24 +0000";
layers = (
{
layerId = "E174F030-6324-451A-8951-EA6336064495";
name = Bold;
paths = (
{
closed = 1;
nodes = (
"252 478 LINE",
"252 573 LINE",
"158 573 LINE",
"196 601 LINE SMOOTH",
"236 630 OFFCURVE",
"252 654 OFFCURVE",
"252 712 CURVE SMOOTH",
"252 770 OFFCURVE",
"220 801 OFFCURVE",
"149 801 CURVE SMOOTH",
"114 801 OFFCURVE",
"72 798 OFFCURVE",
"23 792 CURVE",
"27 693 LINE",
"103 699 LINE",
"128 699 OFFCURVE",
"140 694 OFFCURVE",
"140 684 CURVE SMOOTH",
"140 671 OFFCURVE",
"125 652 OFFCURVE",
"94 627 CURVE SMOOTH",
"21 568 LINE",
"21 478 LINE"
);
}
);
width = 280;
}
);
rightKerningGroup = numbersign;
unicode = 00B2;
},
{
glyphname = threesuperior;
lastChange = "2015-07-09 23:11:24 +0000";
layers = (
{
layerId = "E174F030-6324-451A-8951-EA6336064495";
name = Bold;
paths = (
{
closed = 1;
nodes = (
"220 467 OFFCURVE",
"259 502 OFFCURVE",
"259 572 CURVE SMOOTH",
"259 609 OFFCURVE",
"247 632 OFFCURVE",
"224 642 CURVE",
"243 653 OFFCURVE",
"253 677 OFFCURVE",
"253 712 CURVE SMOOTH",
"253 771 OFFCURVE",
"213 801 OFFCURVE",
"132 801 CURVE SMOOTH",
"105 801 OFFCURVE",
"69 798 OFFCURVE",
"24 792 CURVE",
"30 701 LINE",
"114 706 LINE",
"132 706 OFFCURVE",
"141 701 OFFCURVE",
"141 692 CURVE SMOOTH",
"141 682 OFFCURVE",
"134 677 OFFCURVE",
"121 677 CURVE SMOOTH",
"57 677 LINE",
"57 592 LINE",
"123 592 LINE SMOOTH",
"140 592 OFFCURVE",
"149 587 OFFCURVE",
"149 578 CURVE SMOOTH",
"149 567 OFFCURVE",
"139 562 OFFCURVE",
"118 562 CURVE SMOOTH",
"97 562 OFFCURVE",
"67 564 OFFCURVE",
"26 568 CURVE",
"20 475 LINE",
"141 467 LINE"
);
}
);
width = 280;
}
);
rightKerningGroup = numbersign;
unicode = 00B3;
},
{
glyphname = acute;
lastChange = "2015-07-09 23:11:23 +0000";
layers = (
{
layerId = "E174F030-6324-451A-8951-EA6336064495";
name = Bold;
paths = (
{
closed = 1;
nodes = (
"297 638 LINE",
"257 753 LINE",
"5 651 LINE",
"35 564 LINE"
);
}
);
width = 268;
}
);
rightKerningGroup = numbersign;
unicode = 00B4;
},
{
glyphname = mu;
lastChange = "2015-07-09 23:11:24 +0000";
layers = (
{
layerId = "E174F030-6324-451A-8951-EA6336064495";
name = Bold;
paths = (
{
closed = 1;
nodes = (
"197 -210 LINE",
"197 -9 LINE",
"210 -11 OFFCURVE",
"224 -12 OFFCURVE",
"239 -12 CURVE SMOOTH",
"274 -12 OFFCURVE",
"316 1 OFFCURVE",
"364 28 CURVE",
"364 0 LINE",
"497 0 LINE",
"497 500 LINE",
"363 500 LINE",
"363 126 LINE",
"350 122 LINE SMOOTH",
"324 113 OFFCURVE",
"296 108 OFFCURVE",
"267 108 CURVE SMOOTH",
"210 108 OFFCURVE",
"198 134 OFFCURVE",
"197 211 CURVE SMOOTH",
"197 500 LINE",
"63 500 LINE",
"63 -210 LINE"
);
}
);
width = 560;
}
);
rightKerningGroup = numbersign;
unicode = 00B5;
},
{
glyphname = paragraph;
lastChange = "2015-07-09 23:11:24 +0000";
layers = (
{
layerId = "E174F030-6324-451A-8951-EA6336064495";
name = Bold;
paths = (
{
closed = 1;
nodes = (
"335 0 LINE",
"335 566 LINE",
"397 566 LINE",
"397 0 LINE",
"511 0 LINE",
"511 566 LINE",
"547 566 LINE",
"547 680 LINE",
"216 680 LINE SMOOTH",
"104 680 OFFCURVE",
"28 598 OFFCURVE",
"28 482 CURVE SMOOTH",
"28 366 OFFCURVE",
"102 286 OFFCURVE",
"214 286 CURVE SMOOTH",
"221 286 LINE",
"221 0 LINE"
);
}
);
width = 599;
}
);
rightKerningGroup = numbersign;
unicode = 00B6;
},
{
glyphname = periodcentered;
lastChange = "2015-07-09 23:11:23 +0000";
layers = (
{
layerId = "E174F030-6324-451A-8951-EA6336064495";
name = Bold;
paths = (
{
closed = 1;
nodes = (
"200 167 LINE",
"200 333 LINE",
"56 333 LINE",
"56 167 LINE"
);
}
);
width = 256;
}
);
rightKerningGroup = numbersign;
unicode = 00B7;
},
{
glyphname = cedilla;
lastChange = "2015-07-09 23:11:24 +0000";
layers = (
{
layerId = "E174F030-6324-451A-8951-EA6336064495";
name = Bold;
paths = (
{
closed = 1;
nodes = (
"194 -241 OFFCURVE",
"234 -202 OFFCURVE",
"234 -129 CURVE SMOOTH",
"234 -56 OFFCURVE",
"196 -38 OFFCURVE",
"111 -37 CURVE",
"111 1 LINE",
"58 1 LINE",
"58 -105 LINE",
"82 -105 LINE SMOOTH",
"107 -105 OFFCURVE",
"120 -112 OFFCURVE",
"120 -127 CURVE SMOOTH",
"120 -144 OFFCURVE",
"107 -153 OFFCURVE",
"82 -153 CURVE SMOOTH",
"71 -153 OFFCURVE",
"55 -153 OFFCURVE",
"34 -152 CURVE",
"30 -230 LINE",
"44 -233 LINE SMOOTH",
"67 -238 OFFCURVE",
"94 -241 OFFCURVE",
"123 -241 CURVE SMOOTH"
);
}
);
width = 264;
}
);
rightKerningGroup = numbersign;
unicode = 00B8;
},
{
glyphname = onesuperior;
lastChange = "2015-07-09 23:11:23 +0000";
layers = (
{
layerId = "E174F030-6324-451A-8951-EA6336064495";
name = Bold;
paths = (
{
closed = 1;
nodes = (
"212 478 LINE",
"212 790 LINE",
"116 790 LINE",
"10 715 LINE",
"59 641 LINE",
"106 673 LINE",
"106 478 LINE"
);
}
);
width = 280;
}
);
rightKerningGroup = numbersign;
unicode = 00B9;
},
{
glyphname = ordmasculine;
lastChange = "2015-07-09 23:11:24 +0000";
layers = (
{
layerId = "E174F030-6324-451A-8951-EA6336064495";
name = Bold;
paths = (
{
closed = 1;
nodes = (
"324 314 OFFCURVE",
"380 372 OFFCURVE",
"380 487 CURVE SMOOTH",
"380 602 OFFCURVE",
"324 659 OFFCURVE",
"211 659 CURVE SMOOTH",
"97 659 OFFCURVE",
"40 602 OFFCURVE",
"40 487 CURVE SMOOTH",
"40 372 OFFCURVE",
"97 314 OFFCURVE",
"211 314 CURVE SMOOTH"
);
},
{
closed = 1;
nodes = (
"192 419 OFFCURVE",
"178 425 OFFCURVE",
"171 436 CURVE SMOOTH",
"164 447 OFFCURVE",
"160 464 OFFCURVE",
"160 488 CURVE SMOOTH",
"160 536 OFFCURVE",
"172 555 OFFCURVE",
"211 555 CURVE SMOOTH",
"250 555 OFFCURVE",
"259 537 OFFCURVE",
"259 488 CURVE SMOOTH",
"259 439 OFFCURVE",
"250 419 OFFCURVE",
"211 419 CURVE SMOOTH"
);
}
);
width = 420;
}
);
rightKerningGroup = numbersign;
unicode = 00BA;
},
{
glyphname = guillemotright;
lastChange = "2015-07-09 23:11:24 +0000";
layers = (
{
layerId = "E174F030-6324-451A-8951-EA6336064495";
name = Bold;
paths = (
{
closed = 1;
nodes = (
"561 194 LINE",
"561 290 LINE",
"338 454 LINE",
"338 319 LINE",
"447 244 LINE",
"338 158 LINE",
"338 23 LINE"
);
},
{
closed = 1;
nodes = (
"278 194 LINE",
"278 290 LINE",
"55 454 LINE",
"55 319 LINE",
"164 244 LINE",
"55 158 LINE",
"55 23 LINE"
);
}
);
width = 603;
}
);
leftKerningGroup = guillemotright;
rightKerningGroup = guillemotright;
unicode = 00BB;
},
{
glyphname = onequarter;
lastChange = "2015-07-09 23:11:24 +0000";
layers = (
{
layerId = "E174F030-6324-451A-8951-EA6336064495";
name = Bold;
paths = (
{
closed = 1;
nodes = (
"475 626 LINE",
"422 661 LINE",
"29 29 LINE",
"82 -7 LINE"
);
},
{
closed = 1;
nodes = (
"514 -100 LINE",
"514 -65 LINE",
"525 -65 LINE",
"525 30 LINE",
"514 30 LINE",
"514 120 LINE",
"423 120 LINE",
"409 30 LINE",
"382 30 LINE",
"434 212 LINE",
"316 212 LINE",
"277 23 LINE",
"277 -65 LINE",
"409 -65 LINE",
"409 -100 LINE"
);
},
{
closed = 1;
nodes = (
"220 478 LINE",
"220 790 LINE",
"124 790 LINE",
"18 715 LINE",
"67 641 LINE",
"114 673 LINE",
"114 478 LINE"
);
}
);
width = 548;
}
);
rightKerningGroup = numbersign;
unicode = 00BC;
},
{
glyphname = onehalf;
lastChange = "2015-07-09 23:11:23 +0000";
layers = (
{
layerId = "E174F030-6324-451A-8951-EA6336064495";
name = Bold;
paths = (
{
closed = 1;
nodes = (
"475 626 LINE",
"422 661 LINE",
"29 29 LINE",
"82 -7 LINE"
);
},
{
closed = 1;
nodes = (
"512 -100 LINE",
"512 -5 LINE",
"418 -5 LINE",
"456 23 LINE SMOOTH",
"496 52 OFFCURVE",
"512 76 OFFCURVE",
"512 134 CURVE SMOOTH",
"512 192 OFFCURVE",
"480 223 OFFCURVE",
"409 223 CURVE SMOOTH",
"374 223 OFFCURVE",
"332 220 OFFCURVE",
"283 214 CURVE",
"287 115 LINE",
"363 121 LINE",
"388 121 OFFCURVE",
"400 116 OFFCURVE",
"400 106 CURVE SMOOTH",
"400 93 OFFCURVE",
"385 74 OFFCURVE",
"354 49 CURVE SMOOTH",
"281 -10 LINE",
"281 -100 LINE"
);
},
{
closed = 1;
nodes = (
"220 478 LINE",
"220 790 LINE",
"124 790 LINE",
"18 715 LINE",
"67 641 LINE",
"114 673 LINE",
"114 478 LINE"
);
}
);
width = 542;
}
);
rightKerningGroup = numbersign;
unicode = 00BD;
},
{
glyphname = threequarters;
lastChange = "2015-07-09 23:11:24 +0000";
layers = (
{
layerId = "E174F030-6324-451A-8951-EA6336064495";
name = Bold;
paths = (
{
closed = 1;
nodes = (
"489 626 LINE",
"436 661 LINE",
"43 29 LINE",
"96 -7 LINE"
);
},
{
closed = 1;
nodes = (
"528 -100 LINE",
"528 -65 LINE",
"539 -65 LINE",
"539 30 LINE",
"528 30 LINE",
"528 120 LINE",
"437 120 LINE",
"423 30 LINE",
"396 30 LINE",
"448 212 LINE",
"330 212 LINE",
"291 23 LINE",
"291 -65 LINE",
"423 -65 LINE",
"423 -100 LINE"
);
},
{
closed = 1;
nodes = (
"236 467 OFFCURVE",
"275 502 OFFCURVE",
"275 572 CURVE SMOOTH",
"275 609 OFFCURVE",
"263 632 OFFCURVE",
"240 642 CURVE",
"259 653 OFFCURVE",
"269 677 OFFCURVE",
"269 712 CURVE SMOOTH",
"269 771 OFFCURVE",
"229 801 OFFCURVE",
"148 801 CURVE SMOOTH",
"121 801 OFFCURVE",
"85 798 OFFCURVE",
"40 792 CURVE",
"46 701 LINE",
"130 706 LINE",
"148 706 OFFCURVE",
"157 701 OFFCURVE",
"157 692 CURVE SMOOTH",
"157 682 OFFCURVE",
"150 677 OFFCURVE",
"137 677 CURVE SMOOTH",
"73 677 LINE",
"73 592 LINE",
"139 592 LINE SMOOTH",
"156 592 OFFCURVE",
"165 587 OFFCURVE",
"165 578 CURVE SMOOTH",
"165 567 OFFCURVE",
"155 562 OFFCURVE",
"134 562 CURVE SMOOTH",
"113 562 OFFCURVE",
"83 564 OFFCURVE",
"42 568 CURVE",
"36 475 LINE",
"157 467 LINE"
);
}
);
width = 561;
}
);
rightKerningGroup = numbersign;
unicode = 00BE;
},
{
glyphname = questiondown;
lastChange = "2015-07-09 23:11:24 +0000";
layers = (
{
layerId = "E174F030-6324-451A-8951-EA6336064495";
name = Bold;
paths = (
{
closed = 1;
nodes = (
"286 -192 OFFCURVE",
"347 -180 OFFCURVE",
"404 -157 CURVE",
"397 -56 LINE",
"376 -60 LINE SMOOTH",
"334 -68 OFFCURVE",
"293 -72 OFFCURVE",
"253 -72 CURVE SMOOTH",
"196 -72 OFFCURVE",
"168 -52 OFFCURVE",
"168 -13 CURVE SMOOTH",
"168 6 OFFCURVE",
"173 22 OFFCURVE",
"183 35 CURVE",
"192 48 OFFCURVE",
"218 71 OFFCURVE",
"261 105 CURVE SMOOTH",
"303 139 OFFCURVE",
"324 168 OFFCURVE",
"324 192 CURVE SMOOTH",
"324 230 OFFCURVE",
"314 260 OFFCURVE",
"293 283 CURVE",
"186 283 LINE",
"186 252 LINE SMOOTH",
"186 236 OFFCURVE",
"182 221 OFFCURVE",
"173 208 CURVE SMOOTH",
"164 195 OFFCURVE",
"143 176 OFFCURVE",
"110 151 CURVE SMOOTH",
"43 101 OFFCURVE",
"29 68 OFFCURVE",
"29 -36 CURVE SMOOTH",
"29 -140 OFFCURVE",
"94 -192 OFFCURVE",
"222 -192 CURVE SMOOTH"
);
},
{
closed = 1;
nodes = (
"315 339 LINE",
"315 500 LINE",
"171 500 LINE",
"171 339 LINE"
);
}
);
width = 433;
}
);
rightKerningGroup = numbersign;
unicode = 00BF;
},
{
glyphname = Agrave;
lastChange = "2015-07-09 23:11:24 +0000";
layers = (
{
layerId = "E174F030-6324-451A-8951-EA6336064495";
name = Bold;
paths = (
{
closed = 1;
nodes = (
"155 0 LINE",
"182 123 LINE",
"420 123 LINE",
"447 0 LINE",
"585 0 LINE",
"432 680 LINE",
"170 680 LINE",
"17 0 LINE"
);
},
{
closed = 1;
nodes = (
"277 566 LINE",
"325 566 LINE",
"394 243 LINE",
"208 243 LINE"
);
},
{
closed = 1;
nodes = (
"435 839 LINE",
"183 945 LINE",
"142 825 LINE",
"402 746 LINE"
);
}
);
width = 602;
}
);
leftKerningGroup = A;
rightKerningGroup = numbersign;
unicode = 00C0;
},
{
glyphname = Aacute;
lastChange = "2015-07-09 23:11:24 +0000";
layers = (
{
layerId = "E174F030-6324-451A-8951-EA6336064495";
name = Bold;
paths = (
{
closed = 1;
nodes = (
"155 0 LINE",
"182 123 LINE",
"420 123 LINE",
"447 0 LINE",
"585 0 LINE",
"432 680 LINE",
"170 680 LINE",
"17 0 LINE"
);
},
{
closed = 1;
nodes = (
"277 566 LINE",
"325 566 LINE",
"394 243 LINE",
"208 243 LINE"
);
},
{
closed = 1;
nodes = (
"455 825 LINE",
"414 945 LINE",
"162 839 LINE",
"195 746 LINE"
);
}
);
width = 602;
}
);
leftKerningGroup = A;
rightKerningGroup = numbersign;
unicode = 00C1;
},
{
glyphname = Acircumflex;
lastChange = "2015-07-09 23:11:24 +0000";
layers = (
{
layerId = "E174F030-6324-451A-8951-EA6336064495";
name = Bold;
paths = (
{
closed = 1;
nodes = (
"155 0 LINE",
"182 123 LINE",
"420 123 LINE",
"447 0 LINE",
"585 0 LINE",
"432 680 LINE",
"170 680 LINE",
"17 0 LINE"
);
},
{
closed = 1;
nodes = (
"277 566 LINE",
"325 566 LINE",
"394 243 LINE",
"208 243 LINE"
);
},
{
closed = 1;
nodes = (
"249 765 LINE",
"301 821 LINE",
"350 765 LINE",
"492 765 LINE",
"358 914 LINE",
"241 914 LINE",
"107 765 LINE"
);
}
);
width = 602;
}
);
leftKerningGroup = A;
rightKerningGroup = numbersign;
unicode = 00C2;
},
{
glyphname = Atilde;
lastChange = "2015-07-09 23:11:23 +0000";
layers = (
{
layerId = "E174F030-6324-451A-8951-EA6336064495";
name = Bold;
paths = (
{
closed = 1;
nodes = (
"155 0 LINE",
"182 123 LINE",
"420 123 LINE",
"447 0 LINE",
"585 0 LINE",
"432 680 LINE",
"170 680 LINE",
"17 0 LINE"
);
},
{
closed = 1;
nodes = (
"277 566 LINE",
"325 566 LINE",
"394 243 LINE",
"208 243 LINE"
);
},
{
closed = 1;
nodes = (
"394 758 OFFCURVE",
"413 765 OFFCURVE",
"434 778 CURVE SMOOTH",
"455 791 OFFCURVE",
"472 805 OFFCURVE",
"486 821 CURVE",
"457 918 LINE",
"442 908 LINE",
"413 887 OFFCURVE",
"391 876 OFFCURVE",
"376 876 CURVE SMOOTH",
"369 876 OFFCURVE",
"345 884 OFFCURVE",
"304 899 CURVE SMOOTH",
"263 914 OFFCURVE",
"233 922 OFFCURVE",
"214 922 CURVE SMOOTH",
"174 922 OFFCURVE",
"128 890 OFFCURVE",
"101 858 CURVE",
"130 762 LINE",
"144 772 LINE SMOOTH",
"172 793 OFFCURVE",
"194 804 OFFCURVE",
"211 804 CURVE SMOOTH",
"220 804 OFFCURVE",
"245 796 OFFCURVE",
"288 781 CURVE SMOOTH",
"330 766 OFFCURVE",
"360 758 OFFCURVE",
"377 758 CURVE SMOOTH"
);
}
);
width = 602;
}
);
leftKerningGroup = A;
rightKerningGroup = numbersign;
unicode = 00C3;
},
{
glyphname = Adieresis;
lastChange = "2015-07-09 23:11:24 +0000";
layers = (
{
layerId = "E174F030-6324-451A-8951-EA6336064495";
name = Bold;
paths = (
{
closed = 1;
nodes = (
"155 0 LINE",
"182 123 LINE",
"420 123 LINE",
"447 0 LINE",
"585 0 LINE",
"432 680 LINE",
"170 680 LINE",
"17 0 LINE"
);
},
{
closed = 1;
nodes = (
"277 566 LINE",
"325 566 LINE",
"394 243 LINE",
"208 243 LINE"
);
},
{
closed = 1;
nodes = (
"257 764 LINE",
"257 896 LINE",
"129 896 LINE",
"129 764 LINE"
);
},
{
closed = 1;
nodes = (
"471 764 LINE",
"471 896 LINE",
"343 896 LINE",
"343 764 LINE"
);
}
);
width = 602;
}
);
leftKerningGroup = A;
rightKerningGroup = numbersign;
unicode = 00C4;
},
{
glyphname = Aring;
lastChange = "2015-07-09 23:11:24 +0000";
layers = (
{
layerId = "E174F030-6324-451A-8951-EA6336064495";
name = Bold;
paths = (
{
closed = 1;
nodes = (
"155 0 LINE",
"182 123 LINE",
"420 123 LINE",
"447 0 LINE",
"585 0 LINE",
"436 662 LINE",
"446 681 OFFCURVE",
"451 700 OFFCURVE",
"451 721 CURVE SMOOTH",
"451 800 OFFCURVE",
"386 847 OFFCURVE",
"301 847 CURVE SMOOTH",
"216 847 OFFCURVE",
"151 800 OFFCURVE",
"151 721 CURVE SMOOTH",
"151 699 OFFCURVE",
"156 679 OFFCURVE",
"166 662 CURVE",
"17 0 LINE"
);
},
{
closed = 1;
nodes = (
"277 566 LINE",
"325 566 LINE",
"394 243 LINE",
"208 243 LINE"
);
},
{
closed = 1;
nodes = (
"262 681 OFFCURVE",
"242 697 OFFCURVE",
"242 722 CURVE SMOOTH",
"242 746 OFFCURVE",
"265 762 OFFCURVE",
"301 762 CURVE SMOOTH",
"337 762 OFFCURVE",
"360 746 OFFCURVE",
"360 721 CURVE SMOOTH",
"360 696 OFFCURVE",
"337 680 OFFCURVE",
"301 680 CURVE SMOOTH",
"295 680 LINE SMOOTH"
);
}
);
width = 602;
}
);
leftKerningGroup = A;
rightKerningGroup = numbersign;
unicode = 00C5;
},
{
glyphname = AE;
lastChange = "2015-07-09 23:11:24 +0000";
layers = (
{
layerId = "E174F030-6324-451A-8951-EA6336064495";
name = Bold;
paths = (
{
closed = 1;
nodes = (
"150 0 LINE",
"179 116 LINE",
"392 116 LINE",
"392 0 LINE",
"830 0 LINE",
"830 132 LINE",
"528 132 LINE",
"528 284 LINE",
"770 284 LINE",
"770 415 LINE",
"528 415 LINE",
"528 558 LINE",
"830 558 LINE",
"830 690 LINE",
"196 690 LINE",
"12 0 LINE"
);
},
{
closed = 1;
nodes = (
"293 558 LINE",
"393 558 LINE",
"392 249 LINE",
"213 249 LINE"
);
}
);
width = 871;
}
);
rightKerningGroup = E;
unicode = 00C6;
},
{
glyphname = Ccedilla;
lastChange = "2015-07-09 23:11:24 +0000";
layers = (
{
layerId = "E174F030-6324-451A-8951-EA6336064495";
name = Bold;
paths = (
{
closed = 1;
nodes = (
"398 -241 OFFCURVE",
"438 -202 OFFCURVE",
"438 -129 CURVE SMOOTH",
"438 -56 OFFCURVE",
"400 -38 OFFCURVE",
"315 -37 CURVE",
"315 -12 LINE",
"379 -11 OFFCURVE",
"442 -3 OFFCURVE",
"505 11 CURVE",
"502 124 LINE",
"440 115 OFFCURVE",
"382 110 OFFCURVE",
"327 110 CURVE SMOOTH",
"217 110 OFFCURVE",
"189 162 OFFCURVE",
"189 319 CURVE SMOOTH",
"189 398 OFFCURVE",
"194 453 OFFCURVE",
"203 486 CURVE SMOOTH",
"221 551 OFFCURVE",
"250 570 OFFCURVE",
"338 570 CURVE SMOOTH",
"381 570 OFFCURVE",
"436 565 OFFCURVE",
"502 555 CURVE",
"506 665 LINE",
"431 683 OFFCURVE",
"364 692 OFFCURVE",
"307 692 CURVE SMOOTH",
"108 692 OFFCURVE",
"47 599 OFFCURVE",
"47 352 CURVE SMOOTH",
"47 104 OFFCURVE",
"97 6 OFFCURVE",
"262 -10 CURVE",
"262 -105 LINE",
"286 -105 LINE SMOOTH",
"311 -105 OFFCURVE",
"324 -112 OFFCURVE",
"324 -127 CURVE SMOOTH",
"324 -144 OFFCURVE",
"311 -153 OFFCURVE",
"286 -153 CURVE SMOOTH",
"275 -153 OFFCURVE",
"259 -153 OFFCURVE",
"238 -152 CURVE",
"234 -230 LINE",
"248 -233 LINE SMOOTH",
"272 -238 OFFCURVE",
"298 -241 OFFCURVE",
"327 -241 CURVE SMOOTH"
);
}
);
width = 543;
}
);
leftKerningGroup = C;
rightKerningGroup = C;
unicode = 00C7;
},
{
glyphname = Egrave;
lastChange = "2015-07-09 23:11:24 +0000";
layers = (
{
layerId = "E174F030-6324-451A-8951-EA6336064495";
name = Bold;
paths = (
{
closed = 1;
nodes = (
"514 0 LINE",
"514 120 LINE",
"212 120 LINE",
"212 283 LINE",
"454 283 LINE",
"454 401 LINE",
"212 401 LINE",
"212 560 LINE",
"514 560 LINE",
"514 680 LINE",
"74 680 LINE",
"74 0 LINE"
);
},
{
closed = 1;
nodes = (
"432 839 LINE",
"180 945 LINE",
"139 825 LINE",
"399 746 LINE"
);
}
);
width = 554;
}
);
leftKerningGroup = B;
rightKerningGroup = E;
unicode = 00C8;
},
{
glyphname = Eacute;
lastChange = "2015-07-09 23:11:24 +0000";
layers = (
{
layerId = "E174F030-6324-451A-8951-EA6336064495";
name = Bold;
paths = (
{
closed = 1;
nodes = (
"514 0 LINE",
"514 120 LINE",
"212 120 LINE",
"212 283 LINE",
"454 283 LINE",
"454 401 LINE",
"212 401 LINE",
"212 560 LINE",
"514 560 LINE",
"514 680 LINE",
"74 680 LINE",
"74 0 LINE"
);
},
{
closed = 1;
nodes = (
"447 825 LINE",
"406 945 LINE",
"154 839 LINE",
"187 746 LINE"
);
}
);
width = 554;
}
);
leftKerningGroup = B;
rightKerningGroup = E;
unicode = 00C9;
},
{
glyphname = Ecircumflex;
lastChange = "2015-07-09 23:11:23 +0000";
layers = (
{
layerId = "E174F030-6324-451A-8951-EA6336064495";
name = Bold;
paths = (
{
closed = 1;
nodes = (
"514 0 LINE",
"514 120 LINE",
"212 120 LINE",
"212 283 LINE",
"454 283 LINE",
"454 401 LINE",
"212 401 LINE",
"212 560 LINE",
"514 560 LINE",
"514 680 LINE",
"74 680 LINE",
"74 0 LINE"
);
},
{
closed = 1;
nodes = (
"247 765 LINE",
"299 821 LINE",
"348 765 LINE",
"490 765 LINE",
"356 914 LINE",
"239 914 LINE",
"105 765 LINE"
);
}
);
width = 554;
}
);
leftKerningGroup = B;
rightKerningGroup = E;
unicode = 00CA;
},
{
glyphname = Edieresis;
lastChange = "2015-07-09 23:11:23 +0000";
layers = (
{
layerId = "E174F030-6324-451A-8951-EA6336064495";
name = Bold;
paths = (
{
closed = 1;
nodes = (
"514 0 LINE",
"514 120 LINE",
"212 120 LINE",
"212 283 LINE",
"454 283 LINE",
"454 401 LINE",
"212 401 LINE",
"212 560 LINE",
"514 560 LINE",
"514 680 LINE",
"74 680 LINE",
"74 0 LINE"
);
},
{
closed = 1;
nodes = (
"251 764 LINE",
"251 896 LINE",
"123 896 LINE",
"123 764 LINE"
);
},
{
closed = 1;
nodes = (
"465 764 LINE",
"465 896 LINE",
"337 896 LINE",
"337 764 LINE"
);
}
);
width = 554;
}
);
leftKerningGroup = B;
rightKerningGroup = E;
unicode = 00CB;
},
{
glyphname = Igrave;
lastChange = "2015-07-09 23:11:24 +0000";
layers = (
{
layerId = "E174F030-6324-451A-8951-EA6336064495";
name = Bold;
paths = (
{
closed = 1;
nodes = (
"212 0 LINE",
"212 680 LINE",
"74 680 LINE",
"74 0 LINE"
);
},
{
closed = 1;
nodes = (
"269 839 LINE",
"17 945 LINE",
"-24 825 LINE",
"236 746 LINE"
);
}
);
width = 286;
}
);
leftKerningGroup = B;
rightKerningGroup = H;
unicode = 00CC;
},
{
glyphname = Iacute;
lastChange = "2015-07-09 23:11:24 +0000";
layers = (
{
layerId = "E174F030-6324-451A-8951-EA6336064495";
name = Bold;
paths = (
{
closed = 1;
nodes = (
"212 0 LINE",
"212 680 LINE",
"74 680 LINE",
"74 0 LINE"
);
},
{
closed = 1;
nodes = (
"300 825 LINE",
"259 945 LINE",
"7 839 LINE",
"40 746 LINE"
);
}
);
width = 286;
}
);
leftKerningGroup = B;
rightKerningGroup = H;
unicode = 00CD;
},
{
glyphname = Icircumflex;
lastChange = "2015-07-09 23:11:24 +0000";
layers = (
{
layerId = "E174F030-6324-451A-8951-EA6336064495";
name = Bold;
paths = (
{
closed = 1;
nodes = (
"212 0 LINE",
"212 680 LINE",
"74 680 LINE",
"74 0 LINE"
);
},
{
closed = 1;
nodes = (
"92 765 LINE",
"144 821 LINE",
"193 765 LINE",
"335 765 LINE",
"201 914 LINE",
"84 914 LINE",
"-50 765 LINE"
);
}
);
width = 286;
}
);
leftKerningGroup = B;
rightKerningGroup = H;
unicode = 00CE;
},
{
glyphname = Idieresis;
lastChange = "2015-07-09 23:11:23 +0000";
layers = (
{
layerId = "E174F030-6324-451A-8951-EA6336064495";
name = Bold;
paths = (
{
closed = 1;
nodes = (
"212 0 LINE",
"212 680 LINE",
"74 680 LINE",
"74 0 LINE"
);
},
{
closed = 1;
nodes = (
"100 764 LINE",
"100 896 LINE",
"-28 896 LINE",
"-28 764 LINE"
);
},
{
closed = 1;
nodes = (
"314 764 LINE",
"314 896 LINE",
"186 896 LINE",
"186 764 LINE"
);
}
);
width = 286;
}
);
leftKerningGroup = B;
rightKerningGroup = H;
unicode = 00CF;
},
{
glyphname = Eth;
lastChange = "2015-07-09 23:11:24 +0000";
layers = (
{
layerId = "E174F030-6324-451A-8951-EA6336064495";
name = Bold;
paths = (
{
closed = 1;
nodes = (
"306 0 LINE SMOOTH",
"426 0 OFFCURVE",
"502 28 OFFCURVE",
"543 93 CURVE SMOOTH",
"583 157 OFFCURVE",
"595 232 OFFCURVE",
"595 356 CURVE SMOOTH",
"595 479 OFFCURVE",
"582 551 OFFCURVE",
"540 609 CURVE SMOOTH",
"498 667 OFFCURVE",
"423 690 OFFCURVE",
"306 690 CURVE SMOOTH",
"79 690 LINE",
"79 409 LINE",
"25 409 LINE",
"25 277 LINE",
"79 277 LINE",
"79 0 LINE"
);
},
{
closed = 1;
nodes = (
"215 277 LINE",
"345 277 LINE",
"345 409 LINE",
"215 409 LINE",
"215 559 LINE",
"306 559 LINE SMOOTH",
"351 559 OFFCURVE",
"383 552 OFFCURVE",
"404 538 CURVE",
"425 522 OFFCURVE",
"438 505 OFFCURVE",
"445 472 CURVE SMOOTH",
"452 439 OFFCURVE",
"453 411 OFFCURVE",
"453 354 CURVE SMOOTH",
"453 162 OFFCURVE",
"406 131 OFFCURVE",
"306 131 CURVE SMOOTH",
"215 131 LINE"
);
}
);
width = 642;
}
);
leftKerningGroup = B;
rightKerningGroup = D;
unicode = 00D0;
},
{
glyphname = Ntilde;
lastChange = "2015-07-09 23:11:23 +0000";
layers = (
{
layerId = "E174F030-6324-451A-8951-EA6336064495";
name = Bold;
paths = (
{
closed = 1;
nodes = (
"212 0 LINE",
"212 560 LINE",
"222 560 LINE",
"392 0 LINE",
"619 0 LINE",
"619 680 LINE",
"481 680 LINE",
"481 120 LINE",
"471 120 LINE",
"307 680 LINE",
"74 680 LINE",
"74 0 LINE"
);
},
{
closed = 1;
nodes = (
"442 758 OFFCURVE",
"461 765 OFFCURVE",
"482 778 CURVE SMOOTH",
"503 791 OFFCURVE",
"520 805 OFFCURVE",
"534 821 CURVE",
"505 918 LINE",
"490 908 LINE",
"461 887 OFFCURVE",
"439 876 OFFCURVE",
"424 876 CURVE SMOOTH",
"417 876 OFFCURVE",
"393 884 OFFCURVE",
"352 899 CURVE SMOOTH",
"311 914 OFFCURVE",
"281 922 OFFCURVE",
"262 922 CURVE SMOOTH",
"222 922 OFFCURVE",
"176 890 OFFCURVE",
"149 858 CURVE",
"178 762 LINE",
"192 772 LINE SMOOTH",
"220 793 OFFCURVE",
"242 804 OFFCURVE",
"259 804 CURVE SMOOTH",
"268 804 OFFCURVE",
"293 796 OFFCURVE",
"336 781 CURVE SMOOTH",
"378 766 OFFCURVE",
"408 758 OFFCURVE",
"425 758 CURVE SMOOTH"
);
}
);
width = 693;
}
);
leftKerningGroup = B;
rightKerningGroup = H;
unicode = 00D1;
},
{
glyphname = Ograve;
lastChange = "2015-07-09 23:11:23 +0000";
layers = (
{
layerId = "E174F030-6324-451A-8951-EA6336064495";
name = Bold;
paths = (
{
closed = 1;
nodes = (
"429 -12 OFFCURVE",
"502 16 OFFCURVE",
"545 73 CURVE SMOOTH",
"587 129 OFFCURVE",
"608 217 OFFCURVE",
"608 337 CURVE SMOOTH",
"608 577 OFFCURVE",
"533 692 OFFCURVE",
"326 692 CURVE SMOOTH",
"119 692 OFFCURVE",
"44 577 OFFCURVE",
"44 337 CURVE SMOOTH",
"44 97 OFFCURVE",
"119 -12 OFFCURVE",
"326 -12 CURVE SMOOTH"
);
},
{
closed = 1;
nodes = (
"272 108 OFFCURVE",
"235 126 OFFCURVE",
"216 161 CURVE SMOOTH",
"196 196 OFFCURVE",
"186 254 OFFCURVE",
"186 337 CURVE SMOOTH",
"186 501 OFFCURVE",
"219 572 OFFCURVE",
"326 572 CURVE SMOOTH",
"433 572 OFFCURVE",
"466 501 OFFCURVE",
"466 337 CURVE SMOOTH",
"466 172 OFFCURVE",
"434 108 OFFCURVE",
"326 108 CURVE SMOOTH"
);
},
{
closed = 1;
nodes = (
"456 839 LINE",
"204 945 LINE",
"163 825 LINE",
"423 746 LINE"
);
}
);
width = 652;
}
);
leftKerningGroup = G;
rightKerningGroup = O;
unicode = 00D2;
},
{
glyphname = Oacute;
lastChange = "2015-07-09 23:11:23 +0000";
layers = (
{
layerId = "E174F030-6324-451A-8951-EA6336064495";
name = Bold;
paths = (
{
closed = 1;
nodes = (
"429 -12 OFFCURVE",
"502 16 OFFCURVE",
"545 73 CURVE SMOOTH",
"587 129 OFFCURVE",
"608 217 OFFCURVE",
"608 337 CURVE SMOOTH",
"608 577 OFFCURVE",
"533 692 OFFCURVE",
"326 692 CURVE SMOOTH",
"119 692 OFFCURVE",
"44 577 OFFCURVE",
"44 337 CURVE SMOOTH",
"44 97 OFFCURVE",
"119 -12 OFFCURVE",
"326 -12 CURVE SMOOTH"
);
},
{
closed = 1;
nodes = (
"272 108 OFFCURVE",
"235 126 OFFCURVE",
"216 161 CURVE SMOOTH",
"196 196 OFFCURVE",
"186 254 OFFCURVE",
"186 337 CURVE SMOOTH",
"186 501 OFFCURVE",
"219 572 OFFCURVE",
"326 572 CURVE SMOOTH",
"433 572 OFFCURVE",
"466 501 OFFCURVE",
"466 337 CURVE SMOOTH",
"466 172 OFFCURVE",
"434 108 OFFCURVE",
"326 108 CURVE SMOOTH"
);
},
{
closed = 1;
nodes = (
"460 825 LINE",
"419 945 LINE",
"167 839 LINE",
"200 746 LINE"
);
}
);
width = 652;
}
);
leftKerningGroup = G;
rightKerningGroup = O;
unicode = 00D3;
},
{
glyphname = Ocircumflex;
lastChange = "2015-07-09 23:11:23 +0000";
layers = (
{
layerId = "E174F030-6324-451A-8951-EA6336064495";
name = Bold;
paths = (
{
closed = 1;
nodes = (
"429 -12 OFFCURVE",
"502 16 OFFCURVE",
"545 73 CURVE SMOOTH",
"587 129 OFFCURVE",
"608 217 OFFCURVE",
"608 337 CURVE SMOOTH",
"608 577 OFFCURVE",
"533 692 OFFCURVE",
"326 692 CURVE SMOOTH",
"119 692 OFFCURVE",
"44 577 OFFCURVE",
"44 337 CURVE SMOOTH",
"44 97 OFFCURVE",
"119 -12 OFFCURVE",
"326 -12 CURVE SMOOTH"
);
},
{
closed = 1;
nodes = (
"272 108 OFFCURVE",
"235 126 OFFCURVE",
"216 161 CURVE SMOOTH",
"196 196 OFFCURVE",
"186 254 OFFCURVE",
"186 337 CURVE SMOOTH",
"186 501 OFFCURVE",
"219 572 OFFCURVE",
"326 572 CURVE SMOOTH",
"433 572 OFFCURVE",
"466 501 OFFCURVE",
"466 337 CURVE SMOOTH",
"466 172 OFFCURVE",
"434 108 OFFCURVE",
"326 108 CURVE SMOOTH"
);
},
{
closed = 1;
nodes = (
"277 765 LINE",
"329 821 LINE",
"378 765 LINE",
"520 765 LINE",
"386 914 LINE",
"269 914 LINE",
"135 765 LINE"
);
}
);
width = 652;
}
);
leftKerningGroup = G;
rightKerningGroup = O;
unicode = 00D4;
},
{
glyphname = Otilde;
lastChange = "2015-07-09 23:11:23 +0000";
layers = (
{
layerId = "E174F030-6324-451A-8951-EA6336064495";
name = Bold;
paths = (
{
closed = 1;
nodes = (
"429 -12 OFFCURVE",
"502 16 OFFCURVE",
"545 73 CURVE SMOOTH",
"587 129 OFFCURVE",
"608 217 OFFCURVE",
"608 337 CURVE SMOOTH",
"608 577 OFFCURVE",
"533 692 OFFCURVE",
"326 692 CURVE SMOOTH",
"119 692 OFFCURVE",
"44 577 OFFCURVE",
"44 337 CURVE SMOOTH",
"44 97 OFFCURVE",
"119 -12 OFFCURVE",
"326 -12 CURVE SMOOTH"
);
},
{
closed = 1;
nodes = (
"272 108 OFFCURVE",
"235 126 OFFCURVE",
"216 161 CURVE SMOOTH",
"196 196 OFFCURVE",
"186 254 OFFCURVE",
"186 337 CURVE SMOOTH",
"186 501 OFFCURVE",
"219 572 OFFCURVE",
"326 572 CURVE SMOOTH",
"433 572 OFFCURVE",
"466 501 OFFCURVE",
"466 337 CURVE SMOOTH",
"466 172 OFFCURVE",
"434 108 OFFCURVE",
"326 108 CURVE SMOOTH"
);
},
{
closed = 1;
nodes = (
"426 758 OFFCURVE",
"445 765 OFFCURVE",
"466 778 CURVE SMOOTH",
"487 791 OFFCURVE",
"504 805 OFFCURVE",
"518 821 CURVE",
"489 918 LINE",
"474 908 LINE",
"445 887 OFFCURVE",
"423 876 OFFCURVE",
"408 876 CURVE SMOOTH",
"401 876 OFFCURVE",
"377 884 OFFCURVE",
"336 899 CURVE SMOOTH",
"295 914 OFFCURVE",
"265 922 OFFCURVE",
"246 922 CURVE SMOOTH",
"206 922 OFFCURVE",
"160 890 OFFCURVE",
"133 858 CURVE",
"162 762 LINE",
"176 772 LINE SMOOTH",
"204 793 OFFCURVE",
"226 804 OFFCURVE",
"243 804 CURVE SMOOTH",
"252 804 OFFCURVE",
"277 796 OFFCURVE",
"320 781 CURVE SMOOTH",
"362 766 OFFCURVE",
"392 758 OFFCURVE",
"409 758 CURVE SMOOTH"
);
}
);
width = 652;
}
);
leftKerningGroup = G;
rightKerningGroup = O;
unicode = 00D5;
},
{
glyphname = Odieresis;
lastChange = "2015-07-09 23:11:24 +0000";
layers = (
{
layerId = "E174F030-6324-451A-8951-EA6336064495";
name = Bold;
paths = (
{
closed = 1;
nodes = (
"429 -12 OFFCURVE",
"502 16 OFFCURVE",
"545 73 CURVE SMOOTH",
"587 129 OFFCURVE",
"608 217 OFFCURVE",
"608 337 CURVE SMOOTH",
"608 577 OFFCURVE",
"533 692 OFFCURVE",
"326 692 CURVE SMOOTH",
"119 692 OFFCURVE",
"44 577 OFFCURVE",
"44 337 CURVE SMOOTH",
"44 97 OFFCURVE",
"119 -12 OFFCURVE",
"326 -12 CURVE SMOOTH"
);
},
{
closed = 1;
nodes = (
"272 108 OFFCURVE",
"235 126 OFFCURVE",
"216 161 CURVE SMOOTH",
"196 196 OFFCURVE",
"186 254 OFFCURVE",
"186 337 CURVE SMOOTH",
"186 501 OFFCURVE",
"219 572 OFFCURVE",
"326 572 CURVE SMOOTH",
"433 572 OFFCURVE",
"466 501 OFFCURVE",
"466 337 CURVE SMOOTH",
"466 172 OFFCURVE",
"434 108 OFFCURVE",
"326 108 CURVE SMOOTH"
);
},
{
closed = 1;
nodes = (
"283 764 LINE",
"283 896 LINE",
"155 896 LINE",
"155 764 LINE"
);
},
{
closed = 1;
nodes = (
"497 764 LINE",
"497 896 LINE",
"369 896 LINE",
"369 764 LINE"
);
}
);
width = 652;
}
);
leftKerningGroup = G;
rightKerningGroup = O;
unicode = 00D6;
},
{
glyphname = multiply;
lastChange = "2015-07-09 23:11:23 +0000";
layers = (
{
layerId = "E174F030-6324-451A-8951-EA6336064495";
name = Bold;
paths = (
{
closed = 1;
nodes = (
"504 111 LINE",
"361 250 LINE",
"504 390 LINE",
"420 475 LINE",
"280 332 LINE",
"142 473 LINE",
"57 388 LINE",
"198 250 LINE",
"56 111 LINE",
"141 27 LINE",
"280 168 LINE",
"419 26 LINE"
);
}
);
width = 560;
}
);
rightKerningGroup = numbersign;
unicode = 00D7;
},
{
glyphname = Oslash;
lastChange = "2015-07-09 23:11:24 +0000";
layers = (
{
layerId = "E174F030-6324-451A-8951-EA6336064495";
name = Bold;
paths = (
{
closed = 1;
nodes = (
"230 -2 LINE",
"261 -9 OFFCURVE",
"293 -12 OFFCURVE",
"326 -12 CURVE SMOOTH",
"533 -12 OFFCURVE",
"608 97 OFFCURVE",
"608 336 CURVE SMOOTH",
"608 475 OFFCURVE",
"580 572 OFFCURVE",
"523 627 CURVE",
"588 767 LINE",
"488 810 LINE",
"427 680 LINE",
"398 688 OFFCURVE",
"365 692 OFFCURVE",
"326 692 CURVE SMOOTH",
"119 692 OFFCURVE",
"44 577 OFFCURVE",
"44 336 CURVE SMOOTH",
"44 195 OFFCURVE",
"73 98 OFFCURVE",
"132 46 CURVE",
"74 -78 LINE",
"172 -127 LINE"
);
},
{
closed = 1;
nodes = (
"191 227 OFFCURVE",
"186 279 OFFCURVE",
"186 352 CURVE SMOOTH",
"186 496 OFFCURVE",
"219 572 OFFCURVE",
"326 572 CURVE SMOOTH",
"342 572 OFFCURVE",
"358 570 OFFCURVE",
"374 565 CURVE",
"201 194 LINE"
);
},
{
closed = 1;
nodes = (
"309 108 OFFCURVE",
"294 109 OFFCURVE",
"283 112 CURVE",
"452 475 LINE",
"461 442 OFFCURVE",
"466 390 OFFCURVE",
"466 319 CURVE SMOOTH",
"466 178 OFFCURVE",
"434 108 OFFCURVE",
"326 108 CURVE SMOOTH"
);
}
);
width = 652;
}
);
leftKerningGroup = G;
rightKerningGroup = O;
unicode = 00D8;
},
{
glyphname = Ugrave;
lastChange = "2015-07-09 23:11:23 +0000";
layers = (
{
layerId = "E174F030-6324-451A-8951-EA6336064495";
name = Bold;
paths = (
{
closed = 1;
nodes = (
"500 -12 OFFCURVE",
"586 63 OFFCURVE",
"586 230 CURVE SMOOTH",
"586 680 LINE",
"448 680 LINE",
"448 227 LINE SMOOTH",
"448 148 OFFCURVE",
"408 108 OFFCURVE",
"327 108 CURVE SMOOTH",
"246 108 OFFCURVE",
"206 148 OFFCURVE",
"206 227 CURVE SMOOTH",
"206 680 LINE",
"68 680 LINE",
"68 230 LINE SMOOTH",
"68 63 OFFCURVE",
"154 -12 OFFCURVE",
"327 -12 CURVE SMOOTH"
);
},
{
closed = 1;
nodes = (
"468 839 LINE",
"216 945 LINE",
"175 825 LINE",
"435 746 LINE"
);
}
);
width = 654;
}
);
leftKerningGroup = U;
rightKerningGroup = U;
unicode = 00D9;
},
{
glyphname = Uacute;
lastChange = "2015-07-09 23:11:24 +0000";
layers = (
{
layerId = "E174F030-6324-451A-8951-EA6336064495";
name = Bold;
paths = (
{
closed = 1;
nodes = (
"500 -12 OFFCURVE",
"586 63 OFFCURVE",
"586 230 CURVE SMOOTH",
"586 680 LINE",
"448 680 LINE",
"448 227 LINE SMOOTH",
"448 148 OFFCURVE",
"408 108 OFFCURVE",
"327 108 CURVE SMOOTH",
"246 108 OFFCURVE",
"206 148 OFFCURVE",
"206 227 CURVE SMOOTH",
"206 680 LINE",
"68 680 LINE",
"68 230 LINE SMOOTH",
"68 63 OFFCURVE",
"154 -12 OFFCURVE",
"327 -12 CURVE SMOOTH"
);
},
{
closed = 1;
nodes = (
"468 825 LINE",
"427 945 LINE",
"175 839 LINE",
"208 746 LINE"
);
}
);
width = 654;
}
);
leftKerningGroup = U;
rightKerningGroup = U;
unicode = 00DA;
},
{
glyphname = Ucircumflex;
lastChange = "2015-07-09 23:11:24 +0000";
layers = (
{
layerId = "E174F030-6324-451A-8951-EA6336064495";
name = Bold;
paths = (
{
closed = 1;
nodes = (
"500 -12 OFFCURVE",
"586 63 OFFCURVE",
"586 230 CURVE SMOOTH",
"586 680 LINE",
"448 680 LINE",
"448 227 LINE SMOOTH",
"448 148 OFFCURVE",
"408 108 OFFCURVE",
"327 108 CURVE SMOOTH",
"246 108 OFFCURVE",
"206 148 OFFCURVE",
"206 227 CURVE SMOOTH",
"206 680 LINE",
"68 680 LINE",
"68 230 LINE SMOOTH",
"68 63 OFFCURVE",
"154 -12 OFFCURVE",
"327 -12 CURVE SMOOTH"
);
},
{
closed = 1;
nodes = (
"277 765 LINE",
"329 821 LINE",
"378 765 LINE",
"520 765 LINE",
"386 914 LINE",
"269 914 LINE",
"135 765 LINE"
);
}
);
width = 654;
}
);
leftKerningGroup = U;
rightKerningGroup = U;
unicode = 00DB;
},
{
glyphname = Udieresis;
lastChange = "2015-07-09 23:11:24 +0000";
layers = (
{
layerId = "E174F030-6324-451A-8951-EA6336064495";
name = Bold;
paths = (
{
closed = 1;
nodes = (
"500 -12 OFFCURVE",
"586 63 OFFCURVE",
"586 230 CURVE SMOOTH",
"586 680 LINE",
"448 680 LINE",
"448 227 LINE SMOOTH",
"448 148 OFFCURVE",
"408 108 OFFCURVE",
"327 108 CURVE SMOOTH",
"246 108 OFFCURVE",
"206 148 OFFCURVE",
"206 227 CURVE SMOOTH",
"206 680 LINE",
"68 680 LINE",
"68 230 LINE SMOOTH",
"68 63 OFFCURVE",
"154 -12 OFFCURVE",
"327 -12 CURVE SMOOTH"
);
},
{
closed = 1;
nodes = (
"284 764 LINE",
"284 896 LINE",
"156 896 LINE",
"156 764 LINE"
);
},
{
closed = 1;
nodes = (
"498 764 LINE",
"498 896 LINE",
"370 896 LINE",
"370 764 LINE"
);
}
);
width = 654;
}
);
leftKerningGroup = U;
rightKerningGroup = U;
unicode = 00DC;
},
{
glyphname = Yacute;
lastChange = "2015-07-09 23:11:24 +0000";
layers = (
{
layerId = "E174F030-6324-451A-8951-EA6336064495";
name = Bold;
paths = (
{
closed = 1;
nodes = (
"348 0 LINE",
"348 275 LINE",
"556 680 LINE",
"403 680 LINE",
"278 409 LINE",
"153 680 LINE",
"0 680 LINE",
"210 275 LINE",
"210 0 LINE"
);
},
{
closed = 1;
nodes = (
"426 825 LINE",
"385 945 LINE",
"133 839 LINE",
"166 746 LINE"
);
}
);
width = 557;
}
);
leftKerningGroup = Y;
rightKerningGroup = Y;
unicode = 00DD;
},
{
glyphname = Thorn;
lastChange = "2015-07-09 23:11:24 +0000";
layers = (
{
layerId = "E174F030-6324-451A-8951-EA6336064495";
name = Bold;
paths = (
{
closed = 1;
nodes = (
"212 0 LINE",
"212 99 LINE",
"324 99 LINE SMOOTH",
"483 99 OFFCURVE",
"568 192 OFFCURVE",
"568 353 CURVE SMOOTH",
"568 512 OFFCURVE",
"487 592 OFFCURVE",
"324 592 CURVE SMOOTH",
"212 592 LINE",
"212 690 LINE",
"74 690 LINE",
"74 0 LINE"
);
},
{
closed = 1;
nodes = (
"212 460 LINE",
"323 460 LINE SMOOTH",
"393 460 OFFCURVE",
"428 424 OFFCURVE",
"428 353 CURVE SMOOTH",
"428 277 OFFCURVE",
"391 233 OFFCURVE",
"323 233 CURVE SMOOTH",
"212 233 LINE"
);
}
);
width = 596;
}
);
leftKerningGroup = B;
rightKerningGroup = numbersign;
unicode = 00DE;
},
{
glyphname = germandbls;
lastChange = "2015-07-09 23:11:24 +0000";
layers = (
{
layerId = "E174F030-6324-451A-8951-EA6336064495";
name = Bold;
paths = (
{
closed = 1;
nodes = (
"534 -12 OFFCURVE",
"588 29 OFFCURVE",
"588 164 CURVE SMOOTH",
"588 241 OFFCURVE",
"557 271 OFFCURVE",
"469 312 CURVE SMOOTH",
"424 332 OFFCURVE",
"397 346 OFFCURVE",
"386 354 CURVE SMOOTH",
"375 362 OFFCURVE",
"370 371 OFFCURVE",
"370 380 CURVE SMOOTH",
"370 389 OFFCURVE",
"374 397 OFFCURVE",
"381 403 CURVE SMOOTH",
"388 409 OFFCURVE",
"407 419 OFFCURVE",
"436 432 CURVE SMOOTH",
"495 458 OFFCURVE",
"523 483 OFFCURVE",
"523 555 CURVE SMOOTH",
"523 666 OFFCURVE",
"449 712 OFFCURVE",
"289 712 CURVE SMOOTH",
"129 712 OFFCURVE",
"62 658 OFFCURVE",
"62 522 CURVE SMOOTH",
"62 0 LINE",
"196 0 LINE",
"196 519 LINE SMOOTH",
"196 572 OFFCURVE",
"220 594 OFFCURVE",
"292 594 CURVE SMOOTH",
"327 594 OFFCURVE",
"352 590 OFFCURVE",
"365 583 CURVE SMOOTH",
"378 576 OFFCURVE",
"385 565 OFFCURVE",
"385 551 CURVE SMOOTH",
"385 537 OFFCURVE",
"380 526 OFFCURVE",
"371 519 CURVE",
"361 512 OFFCURVE",
"341 502 OFFCURVE",
"312 490 CURVE SMOOTH",
"253 466 OFFCURVE",
"232 433 OFFCURVE",
"232 365 CURVE SMOOTH",
"232 297 OFFCURVE",
"266 256 OFFCURVE",
"354 219 CURVE SMOOTH",
"398 200 OFFCURVE",
"425 187 OFFCURVE",
"435 179 CURVE SMOOTH",
"445 171 OFFCURVE",
"450 159 OFFCURVE",
"450 144 CURVE SMOOTH",
"450 119 OFFCURVE",
"423 106 OFFCURVE",
"370 106 CURVE SMOOTH",
"345 106 OFFCURVE",
"301 110 OFFCURVE",
"236 118 CURVE",
"232 11 LINE",
"256 6 LINE SMOOTH",
"307 -6 OFFCURVE",
"350 -12 OFFCURVE",
"386 -12 CURVE SMOOTH"
);
}
);
width = 611;
}
);
leftKerningGroup = h;
rightKerningGroup = numbersign;
unicode = 00DF;
},
{
glyphname = agrave;
lastChange = "2015-07-09 23:11:24 +0000";
layers = (
{
layerId = "E174F030-6324-451A-8951-EA6336064495";
name = Bold;
paths = (
{
closed = 1;
nodes = (
"234 -12 OFFCURVE",
"283 0 OFFCURVE",
"331 23 CURVE",
"372 -5 OFFCURVE",
"406 -12 OFFCURVE",
"474 -12 CURVE",
"478 89 LINE",
"453 94 OFFCURVE",
"448 104 OFFCURVE",
"445 136 CURVE",
"445 344 LINE SMOOTH",
"445 461 OFFCURVE",
"392 512 OFFCURVE",
"264 512 CURVE SMOOTH",
"199 512 OFFCURVE",
"131 502 OFFCURVE",
"60 483 CURVE",
"64 390 LINE",
"252 398 LINE",
"293 398 OFFCURVE",
"311 385 OFFCURVE",
"311 344 CURVE SMOOTH",
"311 313 LINE",
"204 305 LINE SMOOTH",
"85 297 OFFCURVE",
"29 259 OFFCURVE",
"29 152 CURVE SMOOTH",
"29 43 OFFCURVE",
"81 -12 OFFCURVE",
"184 -12 CURVE SMOOTH"
);
},
{
closed = 1;
nodes = (
"180 97 OFFCURVE",
"164 115 OFFCURVE",
"164 152 CURVE SMOOTH",
"164 189 OFFCURVE",
"183 209 OFFCURVE",
"220 212 CURVE SMOOTH",
"311 220 LINE",
"311 113 LINE",
"296 109 LINE SMOOTH",
"266 101 OFFCURVE",
"238 97 OFFCURVE",
"213 97 CURVE SMOOTH"
);
},
{
closed = 1;
nodes = (
"395 651 LINE",
"143 753 LINE",
"103 638 LINE",
"365 564 LINE"
);
}
);
width = 511;
}
);
leftKerningGroup = a;
rightKerningGroup = a;
unicode = 00E0;
},
{
glyphname = aacute;
lastChange = "2015-07-09 23:11:24 +0000";
layers = (
{
layerId = "E174F030-6324-451A-8951-EA6336064495";
name = Bold;
paths = (
{
closed = 1;
nodes = (
"234 -12 OFFCURVE",
"283 0 OFFCURVE",
"331 23 CURVE",
"372 -5 OFFCURVE",
"406 -12 OFFCURVE",
"474 -12 CURVE",
"478 89 LINE",
"453 94 OFFCURVE",
"448 104 OFFCURVE",
"445 136 CURVE",
"445 344 LINE SMOOTH",
"445 461 OFFCURVE",
"392 512 OFFCURVE",
"264 512 CURVE SMOOTH",
"199 512 OFFCURVE",
"131 502 OFFCURVE",
"60 483 CURVE",
"64 390 LINE",
"252 398 LINE",
"293 398 OFFCURVE",
"311 385 OFFCURVE",
"311 344 CURVE SMOOTH",
"311 313 LINE",
"204 305 LINE SMOOTH",
"85 297 OFFCURVE",
"29 259 OFFCURVE",
"29 152 CURVE SMOOTH",
"29 43 OFFCURVE",
"81 -12 OFFCURVE",
"184 -12 CURVE SMOOTH"
);
},
{
closed = 1;
nodes = (
"180 97 OFFCURVE",
"164 115 OFFCURVE",
"164 152 CURVE SMOOTH",
"164 189 OFFCURVE",
"183 209 OFFCURVE",
"220 212 CURVE SMOOTH",
"311 220 LINE",
"311 113 LINE",
"296 109 LINE SMOOTH",
"266 101 OFFCURVE",
"238 97 OFFCURVE",
"213 97 CURVE SMOOTH"
);
},
{
closed = 1;
nodes = (
"388 638 LINE",
"348 753 LINE",
"96 651 LINE",
"126 564 LINE"
);
}
);
width = 511;
}
);
leftKerningGroup = a;
rightKerningGroup = a;
unicode = 00E1;
},
{
glyphname = acircumflex;
lastChange = "2015-07-09 23:11:24 +0000";
layers = (
{
layerId = "E174F030-6324-451A-8951-EA6336064495";
name = Bold;
paths = (
{
closed = 1;
nodes = (
"234 -12 OFFCURVE",
"283 0 OFFCURVE",
"331 23 CURVE",
"372 -5 OFFCURVE",
"406 -12 OFFCURVE",
"474 -12 CURVE",
"478 89 LINE",
"453 94 OFFCURVE",
"448 104 OFFCURVE",
"445 136 CURVE",
"445 344 LINE SMOOTH",
"445 461 OFFCURVE",
"392 512 OFFCURVE",
"264 512 CURVE SMOOTH",
"199 512 OFFCURVE",
"131 502 OFFCURVE",
"60 483 CURVE",
"64 390 LINE",
"252 398 LINE",
"293 398 OFFCURVE",
"311 385 OFFCURVE",
"311 344 CURVE SMOOTH",
"311 313 LINE",
"204 305 LINE SMOOTH",
"85 297 OFFCURVE",
"29 259 OFFCURVE",
"29 152 CURVE SMOOTH",
"29 43 OFFCURVE",
"81 -12 OFFCURVE",
"184 -12 CURVE SMOOTH"
);
},
{
closed = 1;
nodes = (
"180 97 OFFCURVE",
"164 115 OFFCURVE",
"164 152 CURVE SMOOTH",
"164 189 OFFCURVE",
"183 209 OFFCURVE",
"220 212 CURVE SMOOTH",
"311 220 LINE",
"311 113 LINE",
"296 109 LINE SMOOTH",
"266 101 OFFCURVE",
"238 97 OFFCURVE",
"213 97 CURVE SMOOTH"
);
},
{
closed = 1;
nodes = (
"206 580 LINE",
"252 647 LINE",
"298 580 LINE",
"421 580 LINE",
"293 731 LINE",
"209 731 LINE",
"83 580 LINE"
);
}
);
width = 511;
}
);
leftKerningGroup = a;
rightKerningGroup = a;
unicode = 00E2;
},
{
glyphname = atilde;
lastChange = "2015-07-09 23:11:24 +0000";
layers = (
{
layerId = "E174F030-6324-451A-8951-EA6336064495";
name = Bold;
paths = (
{
closed = 1;
nodes = (
"234 -12 OFFCURVE",
"283 0 OFFCURVE",
"331 23 CURVE",
"372 -5 OFFCURVE",
"406 -12 OFFCURVE",
"474 -12 CURVE",
"478 89 LINE",
"453 94 OFFCURVE",
"448 104 OFFCURVE",
"445 136 CURVE",
"445 344 LINE SMOOTH",
"445 461 OFFCURVE",
"392 512 OFFCURVE",
"264 512 CURVE SMOOTH",
"199 512 OFFCURVE",
"131 502 OFFCURVE",
"60 483 CURVE",
"64 390 LINE",
"252 398 LINE",
"293 398 OFFCURVE",
"311 385 OFFCURVE",
"311 344 CURVE SMOOTH",
"311 313 LINE",
"204 305 LINE SMOOTH",
"85 297 OFFCURVE",
"29 259 OFFCURVE",
"29 152 CURVE SMOOTH",
"29 43 OFFCURVE",
"81 -12 OFFCURVE",
"184 -12 CURVE SMOOTH"
);
},
{
closed = 1;
nodes = (
"180 97 OFFCURVE",
"164 115 OFFCURVE",
"164 152 CURVE SMOOTH",
"164 189 OFFCURVE",
"183 209 OFFCURVE",
"220 212 CURVE SMOOTH",
"311 220 LINE",
"311 113 LINE",
"296 109 LINE SMOOTH",
"266 101 OFFCURVE",
"238 97 OFFCURVE",
"213 97 CURVE SMOOTH"
);
},
{
closed = 1;
nodes = (
"320 585 OFFCURVE",
"365 616 OFFCURVE",
"378 630 CURVE",
"385 637 OFFCURVE",
"390 642 OFFCURVE",
"394 647 CURVE",
"365 723 LINE",
"351 714 LINE SMOOTH",
"323 697 OFFCURVE",
"301 689 OFFCURVE",
"285 689 CURVE SMOOTH",
"277 689 OFFCURVE",
"258 695 OFFCURVE",
"227 707 CURVE SMOOTH",
"196 719 OFFCURVE",
"173 725 OFFCURVE",
"158 725 CURVE SMOOTH",
"128 725 OFFCURVE",
"81 696 OFFCURVE",
"54 665 CURVE",
"83 590 LINE",
"96 598 LINE SMOOTH",
"121 613 OFFCURVE",
"143 621 OFFCURVE",
"162 621 CURVE SMOOTH",
"171 621 OFFCURVE",
"190 615 OFFCURVE",
"221 603 CURVE SMOOTH",
"252 591 OFFCURVE",
"275 585 OFFCURVE",
"290 585 CURVE SMOOTH"
);
}
);
width = 511;
}
);
leftKerningGroup = a;
rightKerningGroup = a;
unicode = 00E3;
},
{
glyphname = adieresis;
lastChange = "2015-07-09 23:11:24 +0000";
layers = (
{
layerId = "E174F030-6324-451A-8951-EA6336064495";
name = Bold;
paths = (
{
closed = 1;
nodes = (
"234 -12 OFFCURVE",
"283 0 OFFCURVE",
"331 23 CURVE",
"372 -5 OFFCURVE",
"406 -12 OFFCURVE",
"474 -12 CURVE",
"478 89 LINE",
"453 94 OFFCURVE",
"448 104 OFFCURVE",
"445 136 CURVE",
"445 344 LINE SMOOTH",
"445 461 OFFCURVE",
"392 512 OFFCURVE",
"264 512 CURVE SMOOTH",
"199 512 OFFCURVE",
"131 502 OFFCURVE",
"60 483 CURVE",
"64 390 LINE",
"252 398 LINE",
"293 398 OFFCURVE",
"311 385 OFFCURVE",
"311 344 CURVE SMOOTH",
"311 313 LINE",
"204 305 LINE SMOOTH",
"85 297 OFFCURVE",
"29 259 OFFCURVE",
"29 152 CURVE SMOOTH",
"29 43 OFFCURVE",
"81 -12 OFFCURVE",
"184 -12 CURVE SMOOTH"
);
},
{
closed = 1;
nodes = (
"180 97 OFFCURVE",
"164 115 OFFCURVE",
"164 152 CURVE SMOOTH",
"164 189 OFFCURVE",
"183 209 OFFCURVE",
"220 212 CURVE SMOOTH",
"311 220 LINE",
"311 113 LINE",
"296 109 LINE SMOOTH",
"266 101 OFFCURVE",
"238 97 OFFCURVE",
"213 97 CURVE SMOOTH"
);
},
{
closed = 1;
nodes = (
"193 596 LINE",
"193 728 LINE",
"65 728 LINE",
"65 596 LINE"
);
},
{
closed = 1;
nodes = (
"409 596 LINE",
"409 728 LINE",
"281 728 LINE",
"281 596 LINE"
);
}
);
width = 511;
}
);
leftKerningGroup = a;
rightKerningGroup = a;
unicode = 00E4;
},
{
glyphname = aring;
lastChange = "2015-07-09 23:11:24 +0000";
layers = (
{
layerId = "E174F030-6324-451A-8951-EA6336064495";
name = Bold;
paths = (
{
closed = 1;
nodes = (
"234 -12 OFFCURVE",
"283 0 OFFCURVE",
"331 23 CURVE",
"372 -5 OFFCURVE",
"406 -12 OFFCURVE",
"474 -12 CURVE",
"478 89 LINE",
"453 94 OFFCURVE",
"448 104 OFFCURVE",
"445 136 CURVE",
"445 344 LINE SMOOTH",
"445 461 OFFCURVE",
"392 512 OFFCURVE",
"264 512 CURVE SMOOTH",
"199 512 OFFCURVE",
"131 502 OFFCURVE",
"60 483 CURVE",
"64 390 LINE",
"252 398 LINE",
"293 398 OFFCURVE",
"311 385 OFFCURVE",
"311 344 CURVE SMOOTH",
"311 313 LINE",
"204 305 LINE SMOOTH",
"85 297 OFFCURVE",
"29 259 OFFCURVE",
"29 152 CURVE SMOOTH",
"29 43 OFFCURVE",
"81 -12 OFFCURVE",
"184 -12 CURVE SMOOTH"
);
},
{
closed = 1;
nodes = (
"180 97 OFFCURVE",
"164 115 OFFCURVE",
"164 152 CURVE SMOOTH",
"164 189 OFFCURVE",
"183 209 OFFCURVE",
"220 212 CURVE SMOOTH",
"311 220 LINE",
"311 113 LINE",
"296 109 LINE SMOOTH",
"266 101 OFFCURVE",
"238 97 OFFCURVE",
"213 97 CURVE SMOOTH"
);
},
{
closed = 1;
nodes = (
"331 521 OFFCURVE",
"382 572 OFFCURVE",
"382 638 CURVE SMOOTH",
"382 704 OFFCURVE",
"331 755 OFFCURVE",
"265 755 CURVE SMOOTH",
"199 755 OFFCURVE",
"148 704 OFFCURVE",
"148 638 CURVE SMOOTH",
"148 572 OFFCURVE",
"199 521 OFFCURVE",
"265 521 CURVE SMOOTH"
);
},
{
closed = 1;
nodes = (
"239 592 OFFCURVE",
"220 611 OFFCURVE",
"220 638 CURVE SMOOTH",
"220 651 OFFCURVE",
"224 662 OFFCURVE",
"233 671 CURVE",
"242 679 OFFCURVE",
"253 683 OFFCURVE",
"266 683 CURVE SMOOTH",
"293 683 OFFCURVE",
"311 665 OFFCURVE",
"311 638 CURVE SMOOTH",
"311 611 OFFCURVE",
"293 592 OFFCURVE",
"266 592 CURVE SMOOTH"
);
}
);
width = 511;
}
);
leftKerningGroup = a;
rightKerningGroup = a;
unicode = 00E5;
},
{
glyphname = ae;
lastChange = "2015-07-09 23:11:24 +0000";
layers = (
{
layerId = "E174F030-6324-451A-8951-EA6336064495";
name = Bold;
paths = (
{
closed = 1;
nodes = (
"238 -12 OFFCURVE",
"293 0 OFFCURVE",
"349 25 CURVE SMOOTH",
"372 36 LINE",
"406 4 OFFCURVE",
"456 -12 OFFCURVE",
"521 -12 CURVE SMOOTH",
"586 -12 OFFCURVE",
"656 -3 OFFCURVE",
"733 16 CURVE",
"731 120 LINE",
"703 118 LINE SMOOTH",
"638 113 OFFCURVE",
"582 111 OFFCURVE",
"537 111 CURVE SMOOTH",
"477 111 OFFCURVE",
"446 135 OFFCURVE",
"445 192 CURVE",
"739 192 LINE",
"749 286 LINE",
"749 436 OFFCURVE",
"676 511 OFFCURVE",
"531 511 CURVE SMOOTH",
"477 511 OFFCURVE",
"433 499 OFFCURVE",
"398 474 CURVE",
"369 499 OFFCURVE",
"329 511 OFFCURVE",
"276 511 CURVE SMOOTH",
"223 511 OFFCURVE",
"152 504 OFFCURVE",
"63 489 CURVE",
"67 372 LINE",
"99 375 LINE SMOOTH",
"156 380 OFFCURVE",
"208 383 OFFCURVE",
"256 383 CURVE SMOOTH",
"292 383 OFFCURVE",
"311 365 OFFCURVE",
"311 338 CURVE SMOOTH",
"311 313 LINE",
"203 306 LINE SMOOTH",
"87 299 OFFCURVE",
"29 258 OFFCURVE",
"29 154 CURVE SMOOTH",
"29 49 OFFCURVE",
"78 -12 OFFCURVE",
"185 -12 CURVE SMOOTH"
);
},
{
closed = 1;
nodes = (
"178 103 OFFCURVE",
"164 121 OFFCURVE",
"164 156 CURVE SMOOTH",
"164 188 OFFCURVE",
"183 205 OFFCURVE",
"220 207 CURVE SMOOTH",
"310 211 LINE",
"311 118 LINE",
"294 114 LINE SMOOTH",
"261 107 OFFCURVE",
"232 103 OFFCURVE",
"205 103 CURVE SMOOTH"
);
},
{
closed = 1;
nodes = (
"445 363 OFFCURVE",
"467 392 OFFCURVE",
"531 392 CURVE SMOOTH",
"594 392 OFFCURVE",
"617 366 OFFCURVE",
"617 295 CURVE",
"445 295 LINE"
);
}
);
width = 784;
}
);
leftKerningGroup = a;
rightKerningGroup = e;
unicode = 00E6;
},
{
glyphname = ccedilla;
lastChange = "2015-07-09 23:11:24 +0000";
layers = (
{
layerId = "E174F030-6324-451A-8951-EA6336064495";
name = Bold;
paths = (
{
closed = 1;
nodes = (
"338 -241 OFFCURVE",
"378 -202 OFFCURVE",
"378 -129 CURVE SMOOTH",
"378 -56 OFFCURVE",
"340 -38 OFFCURVE",
"255 -37 CURVE",
"255 -12 LINE",
"293 -11 OFFCURVE",
"344 -4 OFFCURVE",
"409 9 CURVE",
"405 116 LINE",
"289 108 LINE",
"196 108 OFFCURVE",
"174 142 OFFCURVE",
"174 251 CURVE SMOOTH",
"174 360 OFFCURVE",
"196 392 OFFCURVE",
"288 392 CURVE SMOOTH",
"313 392 OFFCURVE",
"352 389 OFFCURVE",
"405 384 CURVE",
"409 490 LINE",
"382 496 LINE SMOOTH",
"328 507 OFFCURVE",
"284 512 OFFCURVE",
"249 512 CURVE SMOOTH",
"101 512 OFFCURVE",
"38 433 OFFCURVE",
"38 259 CURVE SMOOTH",
"38 85 OFFCURVE",
"86 6 OFFCURVE",
"202 -9 CURVE",
"202 -105 LINE",
"226 -105 LINE SMOOTH",
"251 -105 OFFCURVE",
"264 -112 OFFCURVE",
"264 -127 CURVE SMOOTH",
"264 -144 OFFCURVE",
"251 -153 OFFCURVE",
"226 -153 CURVE SMOOTH",
"215 -153 OFFCURVE",
"199 -153 OFFCURVE",
"178 -152 CURVE",
"174 -230 LINE",
"188 -233 LINE SMOOTH",
"212 -238 OFFCURVE",
"238 -241 OFFCURVE",
"267 -241 CURVE SMOOTH"
);
}
);
width = 446;
}
);
leftKerningGroup = c;
rightKerningGroup = c;
unicode = 00E7;
},
{
glyphname = egrave;
lastChange = "2015-07-09 23:11:24 +0000";
layers = (
{
layerId = "E174F030-6324-451A-8951-EA6336064495";
name = Bold;
paths = (
{
closed = 1;
nodes = (
"314 -12 OFFCURVE",
"383 -3 OFFCURVE",
"460 16 CURVE",
"458 115 LINE",
"430 112 LINE SMOOTH",
"381 108 OFFCURVE",
"326 106 OFFCURVE",
"264 106 CURVE SMOOTH",
"205 106 OFFCURVE",
"173 132 OFFCURVE",
"172 193 CURVE",
"466 193 LINE",
"476 286 LINE",
"476 437 OFFCURVE",
"403 512 OFFCURVE",
"258 512 CURVE SMOOTH",
"111 512 OFFCURVE",
"37 422 OFFCURVE",
"37 243 CURVE SMOOTH",
"37 63 OFFCURVE",
"101 -12 OFFCURVE",
"252 -12 CURVE SMOOTH"
);
},
{
closed = 1;
nodes = (
"172 372 OFFCURVE",
"195 402 OFFCURVE",
"259 402 CURVE SMOOTH",
"322 402 OFFCURVE",
"344 375 OFFCURVE",
"344 295 CURVE",
"171 295 LINE"
);
},
{
closed = 1;
nodes = (
"402 651 LINE",
"150 753 LINE",
"110 638 LINE",
"372 564 LINE"
);
}
);
width = 510;
}
);
leftKerningGroup = c;
rightKerningGroup = e;
unicode = 00E8;
},
{
glyphname = eacute;
lastChange = "2015-07-09 23:11:24 +0000";
layers = (
{
layerId = "E174F030-6324-451A-8951-EA6336064495";
name = Bold;
paths = (
{
closed = 1;
nodes = (
"314 -12 OFFCURVE",
"383 -3 OFFCURVE",
"460 16 CURVE",
"458 115 LINE",
"430 112 LINE SMOOTH",
"381 108 OFFCURVE",
"326 106 OFFCURVE",
"264 106 CURVE SMOOTH",
"205 106 OFFCURVE",
"173 132 OFFCURVE",
"172 193 CURVE",
"466 193 LINE",
"476 286 LINE",
"476 437 OFFCURVE",
"403 512 OFFCURVE",
"258 512 CURVE SMOOTH",
"111 512 OFFCURVE",
"37 422 OFFCURVE",
"37 243 CURVE SMOOTH",
"37 63 OFFCURVE",
"101 -12 OFFCURVE",
"252 -12 CURVE SMOOTH"
);
},
{
closed = 1;
nodes = (
"172 372 OFFCURVE",
"195 402 OFFCURVE",
"259 402 CURVE SMOOTH",
"322 402 OFFCURVE",
"344 375 OFFCURVE",
"344 295 CURVE",
"171 295 LINE"
);
},
{
closed = 1;
nodes = (
"397 638 LINE",
"357 753 LINE",
"105 651 LINE",
"135 564 LINE"
);
}
);
width = 510;
}
);
leftKerningGroup = c;
rightKerningGroup = e;
unicode = 00E9;
},
{
glyphname = ecircumflex;
lastChange = "2015-07-09 23:11:24 +0000";
layers = (
{
layerId = "E174F030-6324-451A-8951-EA6336064495";
name = Bold;
paths = (
{
closed = 1;
nodes = (
"314 -12 OFFCURVE",
"383 -3 OFFCURVE",
"460 16 CURVE",
"458 115 LINE",
"430 112 LINE SMOOTH",
"381 108 OFFCURVE",
"326 106 OFFCURVE",
"264 106 CURVE SMOOTH",
"205 106 OFFCURVE",
"173 132 OFFCURVE",
"172 193 CURVE",
"466 193 LINE",
"476 286 LINE",
"476 437 OFFCURVE",
"403 512 OFFCURVE",
"258 512 CURVE SMOOTH",
"111 512 OFFCURVE",
"37 422 OFFCURVE",
"37 243 CURVE SMOOTH",
"37 63 OFFCURVE",
"101 -12 OFFCURVE",
"252 -12 CURVE SMOOTH"
);
},
{
closed = 1;
nodes = (
"172 372 OFFCURVE",
"195 402 OFFCURVE",
"259 402 CURVE SMOOTH",
"322 402 OFFCURVE",
"344 375 OFFCURVE",
"344 295 CURVE",
"171 295 LINE"
);
},
{
closed = 1;
nodes = (
"212 580 LINE",
"258 647 LINE",
"304 580 LINE",
"427 580 LINE",
"299 731 LINE",
"215 731 LINE",
"89 580 LINE"
);
}
);
width = 510;
}
);
leftKerningGroup = c;
rightKerningGroup = e;
unicode = 00EA;
},
{
glyphname = edieresis;
lastChange = "2015-07-09 23:11:23 +0000";
layers = (
{
layerId = "E174F030-6324-451A-8951-EA6336064495";
name = Bold;
paths = (
{
closed = 1;
nodes = (
"314 -12 OFFCURVE",
"383 -3 OFFCURVE",
"460 16 CURVE",
"458 115 LINE",
"430 112 LINE SMOOTH",
"381 108 OFFCURVE",
"326 106 OFFCURVE",
"264 106 CURVE SMOOTH",
"205 106 OFFCURVE",
"173 132 OFFCURVE",
"172 193 CURVE",
"466 193 LINE",
"476 286 LINE",
"476 437 OFFCURVE",
"403 512 OFFCURVE",
"258 512 CURVE SMOOTH",
"111 512 OFFCURVE",
"37 422 OFFCURVE",
"37 243 CURVE SMOOTH",
"37 63 OFFCURVE",
"101 -12 OFFCURVE",
"252 -12 CURVE SMOOTH"
);
},
{
closed = 1;
nodes = (
"172 372 OFFCURVE",
"195 402 OFFCURVE",
"259 402 CURVE SMOOTH",
"322 402 OFFCURVE",
"344 375 OFFCURVE",
"344 295 CURVE",
"171 295 LINE"
);
},
{
closed = 1;
nodes = (
"212 596 LINE",
"212 728 LINE",
"84 728 LINE",
"84 596 LINE"
);
},
{
closed = 1;
nodes = (
"428 596 LINE",
"428 728 LINE",
"300 728 LINE",
"300 596 LINE"
);
}
);
width = 510;
}
);
leftKerningGroup = c;
rightKerningGroup = e;
unicode = 00EB;
},
{
glyphname = igrave;
lastChange = "2015-07-09 23:11:24 +0000";
layers = (
{
layerId = "E174F030-6324-451A-8951-EA6336064495";
name = Bold;
paths = (
{
closed = 1;
nodes = (
"196 0 LINE",
"196 500 LINE",
"62 500 LINE",
"62 0 LINE"
);
},
{
closed = 1;
nodes = (
"233 651 LINE",
"-19 753 LINE",
"-59 638 LINE",
"203 564 LINE"
);
}
);
width = 258;
}
);
leftKerningGroup = i;
rightKerningGroup = numbersign;
unicode = 00EC;
},
{
glyphname = iacute;
lastChange = "2015-07-09 23:11:24 +0000";
layers = (
{
layerId = "E174F030-6324-451A-8951-EA6336064495";
name = Bold;
paths = (
{
closed = 1;
nodes = (
"196 0 LINE",
"196 500 LINE",
"62 500 LINE",
"62 0 LINE"
);
},
{
closed = 1;
nodes = (
"323 638 LINE",
"283 753 LINE",
"31 651 LINE",
"61 564 LINE"
);
}
);
width = 258;
}
);
leftKerningGroup = i;
rightKerningGroup = numbersign;
unicode = 00ED;
},
{
glyphname = icircumflex;
lastChange = "2015-07-09 23:11:23 +0000";
layers = (
{
layerId = "E174F030-6324-451A-8951-EA6336064495";
name = Bold;
paths = (
{
closed = 1;
nodes = (
"196 0 LINE",
"196 500 LINE",
"62 500 LINE",
"62 0 LINE"
);
},
{
closed = 1;
nodes = (
"78 580 LINE",
"124 647 LINE",
"170 580 LINE",
"293 580 LINE",
"165 731 LINE",
"81 731 LINE",
"-45 580 LINE"
);
}
);
width = 258;
}
);
leftKerningGroup = i;
rightKerningGroup = numbersign;
unicode = 00EE;
},
{
glyphname = idieresis;
lastChange = "2015-07-09 23:11:24 +0000";
layers = (
{
layerId = "E174F030-6324-451A-8951-EA6336064495";
name = Bold;
paths = (
{
closed = 1;
nodes = (
"196 0 LINE",
"196 500 LINE",
"62 500 LINE",
"62 0 LINE"
);
},
{
closed = 1;
nodes = (
"80 596 LINE",
"80 728 LINE",
"-48 728 LINE",
"-48 596 LINE"
);
},
{
closed = 1;
nodes = (
"296 596 LINE",
"296 728 LINE",
"168 728 LINE",
"168 596 LINE"
);
}
);
width = 258;
}
);
leftKerningGroup = i;
rightKerningGroup = numbersign;
unicode = 00EF;
},
{
glyphname = eth;
lastChange = "2015-07-09 23:11:24 +0000";
layers = (
{
layerId = "E174F030-6324-451A-8951-EA6336064495";
name = Bold;
paths = (
{
closed = 1;
nodes = (
"453 -9 OFFCURVE",
"528 102 OFFCURVE",
"528 351 CURVE SMOOTH",
"528 475 OFFCURVE",
"487 566 OFFCURVE",
"405 625 CURVE",
"459 661 LINE",
"405 737 LINE",
"309 673 LINE",
"250 693 OFFCURVE",
"181 706 OFFCURVE",
"100 712 CURVE",
"82 618 LINE",
"123 610 OFFCURVE",
"159 602 OFFCURVE",
"190 594 CURVE",
"114 543 LINE",
"168 467 LINE",
"297 553 LINE",
"356 520 OFFCURVE",
"379 477 OFFCURVE",
"386 414 CURVE",
"369 420 LINE SMOOTH",
"335 432 OFFCURVE",
"297 438 OFFCURVE",
"256 438 CURVE SMOOTH",
"111 438 OFFCURVE",
"38 355 OFFCURVE",
"38 216 CURVE SMOOTH",
"38 66 OFFCURVE",
"116 -9 OFFCURVE",
"273 -9 CURVE SMOOTH"
);
},
{
closed = 1;
nodes = (
"211 111 OFFCURVE",
"180 146 OFFCURVE",
"180 216 CURVE SMOOTH",
"180 273 OFFCURVE",
"209 320 OFFCURVE",
"264 320 CURVE SMOOTH",
"312 320 OFFCURVE",
"353 313 OFFCURVE",
"386 298 CURVE",
"386 166 OFFCURVE",
"348 111 OFFCURVE",
"273 111 CURVE SMOOTH"
);
}
);
width = 567;
}
);
rightKerningGroup = numbersign;
unicode = 00F0;
},
{
glyphname = ntilde;
lastChange = "2015-07-09 23:11:24 +0000";
layers = (
{
layerId = "E174F030-6324-451A-8951-EA6336064495";
name = Bold;
paths = (
{
closed = 1;
nodes = (
"196 0 LINE",
"196 374 LINE",
"225 386 OFFCURVE",
"255 392 OFFCURVE",
"286 392 CURVE SMOOTH",
"347 392 OFFCURVE",
"362 352 OFFCURVE",
"362 267 CURVE SMOOTH",
"362 0 LINE",
"496 0 LINE",
"496 181 OFFCURVE",
"496 271 OFFCURVE",
"496 271 CURVE",
"496 435 OFFCURVE",
"453 512 OFFCURVE",
"320 512 CURVE SMOOTH",
"287 512 OFFCURVE",
"238 495 OFFCURVE",
"214 482 CURVE SMOOTH",
"195 472 LINE",
"195 500 LINE",
"62 500 LINE",
"62 0 LINE"
);
},
{
closed = 1;
nodes = (
"377 585 OFFCURVE",
"422 616 OFFCURVE",
"435 630 CURVE",
"442 637 OFFCURVE",
"447 642 OFFCURVE",
"451 647 CURVE",
"422 723 LINE",
"408 714 LINE SMOOTH",
"380 697 OFFCURVE",
"358 689 OFFCURVE",
"342 689 CURVE SMOOTH",
"334 689 OFFCURVE",
"315 695 OFFCURVE",
"284 707 CURVE SMOOTH",
"253 719 OFFCURVE",
"230 725 OFFCURVE",
"215 725 CURVE SMOOTH",
"185 725 OFFCURVE",
"138 696 OFFCURVE",
"111 665 CURVE",
"140 590 LINE",
"153 598 LINE SMOOTH",
"178 613 OFFCURVE",
"199 621 OFFCURVE",
"218 621 CURVE SMOOTH",
"227 621 OFFCURVE",
"247 615 OFFCURVE",
"278 603 CURVE SMOOTH",
"309 591 OFFCURVE",
"332 585 OFFCURVE",
"347 585 CURVE SMOOTH"
);
}
);
width = 553;
}
);
leftKerningGroup = m;
rightKerningGroup = h;
unicode = 00F1;
},
{
glyphname = ograve;
lastChange = "2015-07-09 23:11:24 +0000";
layers = (
{
layerId = "E174F030-6324-451A-8951-EA6336064495";
name = Bold;
paths = (
{
closed = 1;
nodes = (
"419 -12 OFFCURVE",
"496 76 OFFCURVE",
"496 251 CURVE SMOOTH",
"496 416 OFFCURVE",
"431 512 OFFCURVE",
"266 512 CURVE SMOOTH",
"183 512 OFFCURVE",
"124 489 OFFCURVE",
"89 444 CURVE SMOOTH",
"54 398 OFFCURVE",
"36 334 OFFCURVE",
"36 251 CURVE SMOOTH",
"36 76 OFFCURVE",
"113 -12 OFFCURVE",
"266 -12 CURVE SMOOTH"
);
},
{
closed = 1;
nodes = (
"231 102 OFFCURVE",
"206 114 OFFCURVE",
"193 138 CURVE SMOOTH",
"179 162 OFFCURVE",
"172 200 OFFCURVE",
"172 251 CURVE SMOOTH",
"172 354 OFFCURVE",
"195 398 OFFCURVE",
"266 398 CURVE SMOOTH",
"337 398 OFFCURVE",
"360 354 OFFCURVE",
"360 251 CURVE SMOOTH",
"360 148 OFFCURVE",
"337 102 OFFCURVE",
"266 102 CURVE SMOOTH"
);
},
{
closed = 1;
nodes = (
"415 651 LINE",
"163 753 LINE",
"123 638 LINE",
"385 564 LINE"
);
}
);
width = 532;
}
);
leftKerningGroup = c;
rightKerningGroup = o;
unicode = 00F2;
},
{
glyphname = oacute;
lastChange = "2015-07-09 23:11:24 +0000";
layers = (
{
layerId = "E174F030-6324-451A-8951-EA6336064495";
name = Bold;
paths = (
{
closed = 1;
nodes = (
"419 -12 OFFCURVE",
"496 76 OFFCURVE",
"496 251 CURVE SMOOTH",
"496 416 OFFCURVE",
"431 512 OFFCURVE",
"266 512 CURVE SMOOTH",
"183 512 OFFCURVE",
"124 489 OFFCURVE",
"89 444 CURVE SMOOTH",
"54 398 OFFCURVE",
"36 334 OFFCURVE",
"36 251 CURVE SMOOTH",
"36 76 OFFCURVE",
"113 -12 OFFCURVE",
"266 -12 CURVE SMOOTH"
);
},
{
closed = 1;
nodes = (
"231 102 OFFCURVE",
"206 114 OFFCURVE",
"193 138 CURVE SMOOTH",
"179 162 OFFCURVE",
"172 200 OFFCURVE",
"172 251 CURVE SMOOTH",
"172 354 OFFCURVE",
"195 398 OFFCURVE",
"266 398 CURVE SMOOTH",
"337 398 OFFCURVE",
"360 354 OFFCURVE",
"360 251 CURVE SMOOTH",
"360 148 OFFCURVE",
"337 102 OFFCURVE",
"266 102 CURVE SMOOTH"
);
},
{
closed = 1;
nodes = (
"408 638 LINE",
"368 753 LINE",
"116 651 LINE",
"146 564 LINE"
);
}
);
width = 532;
}
);
leftKerningGroup = c;
rightKerningGroup = o;
unicode = 00F3;
},
{
glyphname = ocircumflex;
lastChange = "2015-07-09 23:11:24 +0000";
layers = (
{
layerId = "E174F030-6324-451A-8951-EA6336064495";
name = Bold;
paths = (
{
closed = 1;
nodes = (
"419 -12 OFFCURVE",
"496 76 OFFCURVE",
"496 251 CURVE SMOOTH",
"496 416 OFFCURVE",
"431 512 OFFCURVE",
"266 512 CURVE SMOOTH",
"183 512 OFFCURVE",
"124 489 OFFCURVE",
"89 444 CURVE SMOOTH",
"54 398 OFFCURVE",
"36 334 OFFCURVE",
"36 251 CURVE SMOOTH",
"36 76 OFFCURVE",
"113 -12 OFFCURVE",
"266 -12 CURVE SMOOTH"
);
},
{
closed = 1;
nodes = (
"231 102 OFFCURVE",
"206 114 OFFCURVE",
"193 138 CURVE SMOOTH",
"179 162 OFFCURVE",
"172 200 OFFCURVE",
"172 251 CURVE SMOOTH",
"172 354 OFFCURVE",
"195 398 OFFCURVE",
"266 398 CURVE SMOOTH",
"337 398 OFFCURVE",
"360 354 OFFCURVE",
"360 251 CURVE SMOOTH",
"360 148 OFFCURVE",
"337 102 OFFCURVE",
"266 102 CURVE SMOOTH"
);
},
{
closed = 1;
nodes = (
"214 580 LINE",
"260 647 LINE",
"306 580 LINE",
"429 580 LINE",
"301 731 LINE",
"217 731 LINE",
"91 580 LINE"
);
}
);
width = 532;
}
);
leftKerningGroup = c;
rightKerningGroup = o;
unicode = 00F4;
},
{
glyphname = otilde;
lastChange = "2015-07-09 23:11:24 +0000";
layers = (
{
layerId = "E174F030-6324-451A-8951-EA6336064495";
name = Bold;
paths = (
{
closed = 1;
nodes = (
"419 -12 OFFCURVE",
"496 76 OFFCURVE",
"496 251 CURVE SMOOTH",
"496 416 OFFCURVE",
"431 512 OFFCURVE",
"266 512 CURVE SMOOTH",
"183 512 OFFCURVE",
"124 489 OFFCURVE",
"89 444 CURVE SMOOTH",
"54 398 OFFCURVE",
"36 334 OFFCURVE",
"36 251 CURVE SMOOTH",
"36 76 OFFCURVE",
"113 -12 OFFCURVE",
"266 -12 CURVE SMOOTH"
);
},
{
closed = 1;
nodes = (
"231 102 OFFCURVE",
"206 114 OFFCURVE",
"193 138 CURVE SMOOTH",
"179 162 OFFCURVE",
"172 200 OFFCURVE",
"172 251 CURVE SMOOTH",
"172 354 OFFCURVE",
"195 398 OFFCURVE",
"266 398 CURVE SMOOTH",
"337 398 OFFCURVE",
"360 354 OFFCURVE",
"360 251 CURVE SMOOTH",
"360 148 OFFCURVE",
"337 102 OFFCURVE",
"266 102 CURVE SMOOTH"
);
},
{
closed = 1;
nodes = (
"357 585 OFFCURVE",
"402 616 OFFCURVE",
"415 630 CURVE",
"422 637 OFFCURVE",
"427 642 OFFCURVE",
"431 647 CURVE",
"402 723 LINE",
"388 714 LINE SMOOTH",
"360 697 OFFCURVE",
"338 689 OFFCURVE",
"322 689 CURVE SMOOTH",
"314 689 OFFCURVE",
"295 695 OFFCURVE",
"264 707 CURVE SMOOTH",
"233 719 OFFCURVE",
"210 725 OFFCURVE",
"195 725 CURVE SMOOTH",
"165 725 OFFCURVE",
"118 696 OFFCURVE",
"91 665 CURVE",
"120 590 LINE",
"133 598 LINE SMOOTH",
"158 613 OFFCURVE",
"179 621 OFFCURVE",
"198 621 CURVE SMOOTH",
"207 621 OFFCURVE",
"227 615 OFFCURVE",
"258 603 CURVE SMOOTH",
"289 591 OFFCURVE",
"312 585 OFFCURVE",
"327 585 CURVE SMOOTH"
);
}
);
width = 532;
}
);
leftKerningGroup = c;
rightKerningGroup = o;
unicode = 00F5;
},
{
glyphname = odieresis;
lastChange = "2015-07-09 23:11:24 +0000";
layers = (
{
layerId = "E174F030-6324-451A-8951-EA6336064495";
name = Bold;
paths = (
{
closed = 1;
nodes = (
"419 -12 OFFCURVE",
"496 76 OFFCURVE",
"496 251 CURVE SMOOTH",
"496 416 OFFCURVE",
"431 512 OFFCURVE",
"266 512 CURVE SMOOTH",
"183 512 OFFCURVE",
"124 489 OFFCURVE",
"89 444 CURVE SMOOTH",
"54 398 OFFCURVE",
"36 334 OFFCURVE",
"36 251 CURVE SMOOTH",
"36 76 OFFCURVE",
"113 -12 OFFCURVE",
"266 -12 CURVE SMOOTH"
);
},
{
closed = 1;
nodes = (
"231 102 OFFCURVE",
"206 114 OFFCURVE",
"193 138 CURVE SMOOTH",
"179 162 OFFCURVE",
"172 200 OFFCURVE",
"172 251 CURVE SMOOTH",
"172 354 OFFCURVE",
"195 398 OFFCURVE",
"266 398 CURVE SMOOTH",
"337 398 OFFCURVE",
"360 354 OFFCURVE",
"360 251 CURVE SMOOTH",
"360 148 OFFCURVE",
"337 102 OFFCURVE",
"266 102 CURVE SMOOTH"
);
},
{
closed = 1;
nodes = (
"221 596 LINE",
"221 728 LINE",
"93 728 LINE",
"93 596 LINE"
);
},
{
closed = 1;
nodes = (
"437 596 LINE",
"437 728 LINE",
"309 728 LINE",
"309 596 LINE"
);
}
);
width = 532;
}
);
leftKerningGroup = c;
rightKerningGroup = o;
unicode = 00F6;
},
{
glyphname = divide;
lastChange = "2015-07-09 23:11:24 +0000";
layers = (
{
layerId = "E174F030-6324-451A-8951-EA6336064495";
name = Bold;
paths = (
{
closed = 1;
nodes = (
"510 191 LINE",
"510 311 LINE",
"50 311 LINE",
"50 191 LINE"
);
},
{
closed = 1;
nodes = (
"345 17 LINE",
"345 149 LINE",
"213 149 LINE",
"213 17 LINE"
);
},
{
closed = 1;
nodes = (
"345 352 LINE",
"345 484 LINE",
"213 484 LINE",
"213 352 LINE"
);
}
);
width = 560;
}
);
rightKerningGroup = numbersign;
unicode = 00F7;
},
{
glyphname = oslash;
lastChange = "2015-07-09 23:11:24 +0000";
layers = (
{
layerId = "E174F030-6324-451A-8951-EA6336064495";
name = Bold;
paths = (
{
closed = 1;
nodes = (
"203 -6 LINE",
"222 -10 OFFCURVE",
"243 -12 OFFCURVE",
"266 -12 CURVE SMOOTH",
"419 -12 OFFCURVE",
"496 76 OFFCURVE",
"496 251 CURVE SMOOTH",
"496 364 OFFCURVE",
"465 440 OFFCURVE",
"402 479 CURVE",
"443 577 LINE",
"362 607 LINE",
"322 507 LINE",
"303 510 OFFCURVE",
"285 512 OFFCURVE",
"266 512 CURVE SMOOTH",
"101 512 OFFCURVE",
"36 416 OFFCURVE",
"36 251 CURVE SMOOTH",
"36 140 OFFCURVE",
"66 65 OFFCURVE",
"125 25 CURVE",
"82 -78 LINE",
"162 -108 LINE"
);
},
{
closed = 1;
nodes = (
"176 177 OFFCURVE",
"172 211 OFFCURVE",
"172 258 CURVE SMOOTH",
"172 351 OFFCURVE",
"195 398 OFFCURVE",
"266 398 CURVE",
"279 397 LINE",
"184 156 LINE"
);
},
{
closed = 1;
nodes = (
"257 102 OFFCURVE",
"250 102 OFFCURVE",
"246 103 CURVE",
"346 350 LINE",
"355 327 OFFCURVE",
"360 292 OFFCURVE",
"360 245 CURVE SMOOTH",
"360 150 OFFCURVE",
"337 102 OFFCURVE",
"266 102 CURVE SMOOTH"
);
}
);
width = 532;
}
);
leftKerningGroup = c;
rightKerningGroup = o;
unicode = 00F8;
},
{
glyphname = ugrave;
lastChange = "2015-07-09 23:11:23 +0000";
layers = (
{
layerId = "E174F030-6324-451A-8951-EA6336064495";
name = Bold;
paths = (
{
closed = 1;
nodes = (
"268 -12 OFFCURVE",
"310 1 OFFCURVE",
"358 28 CURVE",
"358 0 LINE",
"491 0 LINE",
"491 500 LINE",
"357 500 LINE",
"357 126 LINE",
"344 122 LINE SMOOTH",
"318 113 OFFCURVE",
"290 108 OFFCURVE",
"261 108 CURVE SMOOTH",
"200 108 OFFCURVE",
"191 137 OFFCURVE",
"191 236 CURVE SMOOTH",
"191 500 LINE",
"57 500 LINE",
"57 238 LINE SMOOTH",
"57 58 OFFCURVE",
"94 -12 OFFCURVE",
"233 -12 CURVE SMOOTH"
);
},
{
closed = 1;
nodes = (
"390 651 LINE",
"138 753 LINE",
"98 638 LINE",
"360 564 LINE"
);
}
);
width = 553;
}
);
leftKerningGroup = u;
rightKerningGroup = q;
unicode = 00F9;
},
{
glyphname = uacute;
lastChange = "2015-07-09 23:11:24 +0000";
layers = (
{
layerId = "E174F030-6324-451A-8951-EA6336064495";
name = Bold;
paths = (
{
closed = 1;
nodes = (
"265 -12 OFFCURVE",
"313 5 OFFCURVE",
"338 18 CURVE SMOOTH",
"358 28 LINE",
"358 0 LINE",
"491 0 LINE",
"491 500 LINE",
"357 500 LINE",
"357 126 LINE",
"326 114 OFFCURVE",
"295 108 OFFCURVE",
"263 108 CURVE SMOOTH",
"199 108 OFFCURVE",
"191 137 OFFCURVE",
"191 236 CURVE SMOOTH",
"191 500 LINE",
"57 500 LINE",
"57 325 OFFCURVE",
"57 238 OFFCURVE",
"57 238 CURVE",
"57 58 OFFCURVE",
"94 -12 OFFCURVE",
"233 -12 CURVE SMOOTH"
);
},
{
closed = 1;
nodes = (
"422 638 LINE",
"382 753 LINE",
"130 651 LINE",
"160 564 LINE"
);
}
);
width = 553;
}
);
leftKerningGroup = u;
rightKerningGroup = q;
unicode = 00FA;
},
{
glyphname = ucircumflex;
lastChange = "2015-07-09 23:11:24 +0000";
layers = (
{
layerId = "E174F030-6324-451A-8951-EA6336064495";
name = Bold;
paths = (
{
closed = 1;
nodes = (
"265 -12 OFFCURVE",
"313 5 OFFCURVE",
"338 18 CURVE SMOOTH",
"358 28 LINE",
"358 0 LINE",
"491 0 LINE",
"491 500 LINE",
"357 500 LINE",
"357 126 LINE",
"326 114 OFFCURVE",
"295 108 OFFCURVE",
"263 108 CURVE SMOOTH",
"199 108 OFFCURVE",
"191 137 OFFCURVE",
"191 236 CURVE SMOOTH",
"191 500 LINE",
"57 500 LINE",
"57 325 OFFCURVE",
"57 238 OFFCURVE",
"57 238 CURVE",
"57 58 OFFCURVE",
"94 -12 OFFCURVE",
"233 -12 CURVE SMOOTH"
);
},
{
closed = 1;
nodes = (
"205 580 LINE",
"251 647 LINE",
"297 580 LINE",
"420 580 LINE",
"292 731 LINE",
"208 731 LINE",
"82 580 LINE"
);
}
);
width = 553;
}
);
leftKerningGroup = u;
rightKerningGroup = q;
unicode = 00FB;
},
{
glyphname = udieresis;
lastChange = "2015-07-09 23:11:24 +0000";
layers = (
{
layerId = "E174F030-6324-451A-8951-EA6336064495";
name = Bold;
paths = (
{
closed = 1;
nodes = (
"265 -12 OFFCURVE",
"313 5 OFFCURVE",
"338 18 CURVE SMOOTH",
"358 28 LINE",
"358 0 LINE",
"491 0 LINE",
"491 500 LINE",
"357 500 LINE",
"357 126 LINE",
"326 114 OFFCURVE",
"295 108 OFFCURVE",
"263 108 CURVE SMOOTH",
"199 108 OFFCURVE",
"191 137 OFFCURVE",
"191 236 CURVE SMOOTH",
"191 500 LINE",
"57 500 LINE",
"57 325 OFFCURVE",
"57 238 OFFCURVE",
"57 238 CURVE",
"57 58 OFFCURVE",
"94 -12 OFFCURVE",
"233 -12 CURVE SMOOTH"
);
},
{
closed = 1;
nodes = (
"234 596 LINE",
"234 728 LINE",
"106 728 LINE",
"106 596 LINE"
);
},
{
closed = 1;
nodes = (
"450 596 LINE",
"450 728 LINE",
"322 728 LINE",
"322 596 LINE"
);
}
);
width = 553;
}
);
leftKerningGroup = u;
rightKerningGroup = q;
unicode = 00FC;
},
{
glyphname = yacute;
lastChange = "2015-07-09 23:11:24 +0000";
layers = (
{
layerId = "E174F030-6324-451A-8951-EA6336064495";
name = Bold;
paths = (
{
closed = 1;
nodes = (
"309 -210 LINE",
"485 500 LINE",
"353 500 LINE",
"262 114 LINE",
"239 114 LINE",
"148 500 LINE",
"16 500 LINE",
"139 0 LINE",
"233 0 LINE",
"178 -210 LINE"
);
},
{
closed = 1;
nodes = (
"414 638 LINE",
"374 753 LINE",
"122 651 LINE",
"152 564 LINE"
);
}
);
width = 500;
}
);
leftKerningGroup = y;
rightKerningGroup = y;
unicode = 00FD;
},
{
glyphname = thorn;
lastChange = "2015-07-09 23:11:24 +0000";
layers = (
{
layerId = "E174F030-6324-451A-8951-EA6336064495";
name = Bold;
paths = (
{
closed = 1;
nodes = (
"196 -210 LINE",
"196 -4 LINE",
"208 -6 LINE SMOOTH",
"233 -10 OFFCURVE",
"257 -12 OFFCURVE",
"279 -12 CURVE SMOOTH",
"440 -12 OFFCURVE",
"506 52 OFFCURVE",
"506 249 CURVE SMOOTH",
"506 446 OFFCURVE",
"444 512 OFFCURVE",
"304 512 CURVE SMOOTH",
"275 512 OFFCURVE",
"239 503 OFFCURVE",
"196 485 CURVE",
"196 700 LINE",
"62 700 LINE",
"62 -210 LINE"
);
},
{
closed = 1;
nodes = (
"250 104 OFFCURVE",
"226 106 OFFCURVE",
"196 110 CURVE",
"196 379 LINE",
"210 382 LINE",
"234 389 OFFCURVE",
"259 392 OFFCURVE",
"286 392 CURVE SMOOTH",
"342 392 OFFCURVE",
"370 346 OFFCURVE",
"370 255 CURVE SMOOTH",
"370 144 OFFCURVE",
"346 104 OFFCURVE",
"269 104 CURVE SMOOTH"
);
}
);
width = 544;
}
);
leftKerningGroup = b;
rightKerningGroup = b;
unicode = 00FE;
},
{
glyphname = ydieresis;
lastChange = "2015-07-09 23:11:24 +0000";
layers = (
{
layerId = "E174F030-6324-451A-8951-EA6336064495";
name = Bold;
paths = (
{
closed = 1;
nodes = (
"309 -210 LINE",
"485 500 LINE",
"353 500 LINE",
"262 114 LINE",
"239 114 LINE",
"148 500 LINE",
"16 500 LINE",
"139 0 LINE",
"233 0 LINE",
"178 -210 LINE"
);
},
{
closed = 1;
nodes = (
"207 596 LINE",
"207 728 LINE",
"79 728 LINE",
"79 596 LINE"
);
},
{
closed = 1;
nodes = (
"423 596 LINE",
"423 728 LINE",
"295 728 LINE",
"295 596 LINE"
);
}
);
width = 500;
}
);
leftKerningGroup = y;
rightKerningGroup = y;
unicode = 00FF;
},
{
glyphname = Amacron;
lastChange = "2015-07-09 23:11:24 +0000";
layers = (
{
layerId = "E174F030-6324-451A-8951-EA6336064495";
name = Bold;
paths = (
{
closed = 1;
nodes = (
"155 0 LINE",
"182 123 LINE",
"420 123 LINE",
"447 0 LINE",
"585 0 LINE",
"432 680 LINE",
"170 680 LINE",
"17 0 LINE"
);
},
{
closed = 1;
nodes = (
"277 566 LINE",
"325 566 LINE",
"394 243 LINE",
"208 243 LINE"
);
},
{
closed = 1;
nodes = (
"471 782 LINE",
"471 880 LINE",
"124 880 LINE",
"124 782 LINE"
);
}
);
width = 602;
}
);
leftKerningGroup = A;
rightKerningGroup = numbersign;
unicode = 0100;
},
{
glyphname = amacron;
lastChange = "2015-07-09 23:11:24 +0000";
layers = (
{
layerId = "E174F030-6324-451A-8951-EA6336064495";
name = Bold;
paths = (
{
closed = 1;
nodes = (
"234 -12 OFFCURVE",
"283 0 OFFCURVE",
"331 23 CURVE",
"372 -5 OFFCURVE",
"406 -12 OFFCURVE",
"474 -12 CURVE",
"478 89 LINE",
"453 94 OFFCURVE",
"448 104 OFFCURVE",
"445 136 CURVE",
"445 344 LINE SMOOTH",
"445 461 OFFCURVE",
"392 512 OFFCURVE",
"264 512 CURVE SMOOTH",
"199 512 OFFCURVE",
"131 502 OFFCURVE",
"60 483 CURVE",
"64 390 LINE",
"252 398 LINE",
"293 398 OFFCURVE",
"311 385 OFFCURVE",
"311 344 CURVE SMOOTH",
"311 313 LINE",
"204 305 LINE SMOOTH",
"85 297 OFFCURVE",
"29 259 OFFCURVE",
"29 152 CURVE SMOOTH",
"29 43 OFFCURVE",
"81 -12 OFFCURVE",
"184 -12 CURVE SMOOTH"
);
},
{
closed = 1;
nodes = (
"180 97 OFFCURVE",
"164 115 OFFCURVE",
"164 152 CURVE SMOOTH",
"164 189 OFFCURVE",
"183 209 OFFCURVE",
"220 212 CURVE SMOOTH",
"311 220 LINE",
"311 113 LINE",
"296 109 LINE SMOOTH",
"266 101 OFFCURVE",
"238 97 OFFCURVE",
"213 97 CURVE SMOOTH"
);
},
{
closed = 1;
nodes = (
"394 597 LINE",
"394 697 LINE",
"107 697 LINE",
"107 597 LINE"
);
}
);
width = 511;
}
);
leftKerningGroup = a;
rightKerningGroup = a;
unicode = 0101;
},
{
glyphname = Abreve;
lastChange = "2015-07-09 23:11:24 +0000";
layers = (
{
layerId = "E174F030-6324-451A-8951-EA6336064495";
name = Bold;
paths = (
{
closed = 1;
nodes = (
"155 0 LINE",
"182 123 LINE",
"420 123 LINE",
"447 0 LINE",
"585 0 LINE",
"432 680 LINE",
"170 680 LINE",
"17 0 LINE"
);
},
{
closed = 1;
nodes = (
"277 566 LINE",
"325 566 LINE",
"394 243 LINE",
"208 243 LINE"
);
},
{
closed = 1;
nodes = (
"412 759 OFFCURVE",
"473 819 OFFCURVE",
"484 910 CURVE",
"363 910 LINE",
"359 877 OFFCURVE",
"334 853 OFFCURVE",
"298 853 CURVE SMOOTH",
"261 853 OFFCURVE",
"237 877 OFFCURVE",
"232 910 CURVE",
"111 910 LINE",
"122 819 OFFCURVE",
"182 759 OFFCURVE",
"297 759 CURVE SMOOTH"
);
}
);
width = 602;
}
);
leftKerningGroup = A;
rightKerningGroup = numbersign;
unicode = 0102;
},
{
glyphname = abreve;
lastChange = "2015-07-09 23:11:24 +0000";
layers = (
{
layerId = "E174F030-6324-451A-8951-EA6336064495";
name = Bold;
paths = (
{
closed = 1;
nodes = (
"219 -12 OFFCURVE",
"262 -3 OFFCURVE",
"308 14 CURVE SMOOTH",
"331 22 LINE",
"368 -3 OFFCURVE",
"393 -12 OFFCURVE",
"473 -12 CURVE",
"477 102 LINE",
"450 107 OFFCURVE",
"445 115 OFFCURVE",
"445 154 CURVE SMOOTH",
"445 339 LINE SMOOTH",
"445 463 OFFCURVE",
"386 511 OFFCURVE",
"269 511 CURVE SMOOTH",
"226 511 OFFCURVE",
"169 505 OFFCURVE",
"98 494 CURVE SMOOTH",
"63 489 LINE",
"67 375 LINE",
"147 380 OFFCURVE",
"212 383 OFFCURVE",
"261 383 CURVE SMOOTH",
"290 383 OFFCURVE",
"311 365 OFFCURVE",
"311 338 CURVE SMOOTH",
"311 313 LINE",
"203 306 LINE SMOOTH",
"84 298 OFFCURVE",
"29 258 OFFCURVE",
"29 154 CURVE SMOOTH",
"29 49 OFFCURVE",
"81 -12 OFFCURVE",
"178 -12 CURVE SMOOTH"
);
},
{
closed = 1;
nodes = (
"178 103 OFFCURVE",
"164 121 OFFCURVE",
"164 156 CURVE SMOOTH",
"164 188 OFFCURVE",
"183 205 OFFCURVE",
"220 207 CURVE SMOOTH",
"311 211 LINE",
"311 118 LINE",
"268 108 OFFCURVE",
"232 103 OFFCURVE",
"205 103 CURVE SMOOTH"
);
},
{
closed = 1;
nodes = (
"372 585 OFFCURVE",
"436 648 OFFCURVE",
"447 748 CURVE",
"308 748 LINE",
"304 719 OFFCURVE",
"286 704 OFFCURVE",
"254 704 CURVE SMOOTH",
"221 704 OFFCURVE",
"203 719 OFFCURVE",
"198 748 CURVE",
"59 748 LINE",
"70 648 OFFCURVE",
"134 585 OFFCURVE",
"253 585 CURVE SMOOTH"
);
}
);
width = 512;
}
);
leftKerningGroup = a;
rightKerningGroup = a;
unicode = 0103;
},
{
glyphname = Aogonek;
lastChange = "2015-07-09 23:11:23 +0000";
layers = (
{
layerId = "E174F030-6324-451A-8951-EA6336064495";
name = Bold;
paths = (
{
closed = 1;
nodes = (
"523 -216 OFFCURVE",
"558 -212 OFFCURVE",
"597 -205 CURVE",
"585 -110 LINE",
"543 -114 LINE",
"522 -114 OFFCURVE",
"511 -103 OFFCURVE",
"511 -80 CURVE SMOOTH",
"511 -58 OFFCURVE",
"530 -31 OFFCURVE",
"567 0 CURVE",
"585 0 LINE",
"432 680 LINE",
"170 680 LINE",
"17 0 LINE",
"155 0 LINE",
"182 123 LINE",
"420 123 LINE",
"447 0 LINE",
"452 0 LINE",
"408 -35 OFFCURVE",
"386 -75 OFFCURVE",
"386 -120 CURVE SMOOTH",
"386 -179 OFFCURVE",
"432 -216 OFFCURVE",
"493 -216 CURVE SMOOTH"
);
},
{
closed = 1;
nodes = (
"277 566 LINE",
"325 566 LINE",
"394 243 LINE",
"208 243 LINE"
);
}
);
width = 602;
}
);
leftKerningGroup = A;
rightKerningGroup = numbersign;
unicode = 0104;
},
{
glyphname = aogonek;
lastChange = "2015-07-09 23:11:23 +0000";
layers = (
{
layerId = "E174F030-6324-451A-8951-EA6336064495";
name = Bold;
paths = (
{
closed = 1;
nodes = (
"404 -216 OFFCURVE",
"439 -212 OFFCURVE",
"478 -205 CURVE",
"466 -110 LINE",
"424 -114 LINE",
"403 -114 OFFCURVE",
"392 -103 OFFCURVE",
"392 -81 CURVE SMOOTH",
"392 -62 OFFCURVE",
"407 -38 OFFCURVE",
"436 -11 CURVE",
"474 -12 LINE",
"478 89 LINE",
"453 94 OFFCURVE",
"448 104 OFFCURVE",
"445 136 CURVE",
"445 344 LINE SMOOTH",
"445 461 OFFCURVE",
"392 512 OFFCURVE",
"264 512 CURVE SMOOTH",
"199 512 OFFCURVE",
"131 502 OFFCURVE",
"60 483 CURVE",
"64 390 LINE",
"252 398 LINE",
"293 398 OFFCURVE",
"311 385 OFFCURVE",
"311 344 CURVE SMOOTH",
"311 313 LINE",
"204 305 LINE SMOOTH",
"85 297 OFFCURVE",
"29 259 OFFCURVE",
"29 152 CURVE SMOOTH",
"29 43 OFFCURVE",
"81 -12 OFFCURVE",
"184 -12 CURVE SMOOTH",
"234 -12 OFFCURVE",
"283 0 OFFCURVE",
"331 23 CURVE",
"351 10 LINE",
"348 11 LINE",
"328 -4 LINE SMOOTH",
"301 -24 OFFCURVE",
"267 -71 OFFCURVE",
"267 -124 CURVE SMOOTH",
"267 -177 OFFCURVE",
"313 -216 OFFCURVE",
"374 -216 CURVE SMOOTH"
);
},
{
closed = 1;
nodes = (
"180 97 OFFCURVE",
"164 115 OFFCURVE",
"164 152 CURVE SMOOTH",
"164 189 OFFCURVE",
"183 209 OFFCURVE",
"220 212 CURVE SMOOTH",
"311 220 LINE",
"311 113 LINE",
"296 109 LINE SMOOTH",
"266 101 OFFCURVE",
"238 97 OFFCURVE",
"213 97 CURVE SMOOTH"
);
}
);
width = 510;
}
);
leftKerningGroup = a;
rightKerningGroup = a;
unicode = 0105;
},
{
glyphname = Cacute;
lastChange = "2015-07-09 23:11:24 +0000";
layers = (
{
layerId = "E174F030-6324-451A-8951-EA6336064495";
name = Bold;
paths = (
{
closed = 1;
nodes = (
"371 -12 OFFCURVE",
"434 -4 OFFCURVE",
"505 11 CURVE",
"502 124 LINE",
"440 115 OFFCURVE",
"382 110 OFFCURVE",
"327 110 CURVE SMOOTH",
"217 110 OFFCURVE",
"189 162 OFFCURVE",
"189 319 CURVE SMOOTH",
"189 398 OFFCURVE",
"194 453 OFFCURVE",
"203 486 CURVE SMOOTH",
"221 551 OFFCURVE",
"250 570 OFFCURVE",
"338 570 CURVE SMOOTH",
"381 570 OFFCURVE",
"436 565 OFFCURVE",
"502 555 CURVE",
"506 665 LINE",
"431 683 OFFCURVE",
"364 692 OFFCURVE",
"307 692 CURVE SMOOTH",
"108 692 OFFCURVE",
"47 603 OFFCURVE",
"47 340 CURVE SMOOTH",
"47 215 OFFCURVE",
"59 137 OFFCURVE",
"98 76 CURVE SMOOTH",
"137 15 OFFCURVE",
"201 -12 OFFCURVE",
"314 -12 CURVE SMOOTH"
);
},
{
closed = 1;
nodes = (
"440 825 LINE",
"399 945 LINE",
"147 839 LINE",
"180 746 LINE"
);
}
);
width = 543;
}
);
leftKerningGroup = C;
rightKerningGroup = C;
unicode = 0106;
},
{
glyphname = cacute;
lastChange = "2015-07-09 23:11:24 +0000";
layers = (
{
layerId = "E174F030-6324-451A-8951-EA6336064495";
name = Bold;
paths = (
{
closed = 1;
nodes = (
"283 -12 OFFCURVE",
"338 -5 OFFCURVE",
"409 9 CURVE",
"405 116 LINE",
"289 108 LINE",
"196 108 OFFCURVE",
"174 142 OFFCURVE",
"174 251 CURVE SMOOTH",
"174 360 OFFCURVE",
"196 392 OFFCURVE",
"288 392 CURVE SMOOTH",
"313 392 OFFCURVE",
"352 389 OFFCURVE",
"405 384 CURVE",
"409 490 LINE",
"382 496 LINE SMOOTH",
"328 507 OFFCURVE",
"284 512 OFFCURVE",
"249 512 CURVE SMOOTH",
"101 512 OFFCURVE",
"38 435 OFFCURVE",
"38 251 CURVE SMOOTH",
"38 67 OFFCURVE",
"98 -12 OFFCURVE",
"246 -12 CURVE SMOOTH"
);
},
{
closed = 1;
nodes = (
"389 638 LINE",
"349 753 LINE",
"97 651 LINE",
"127 564 LINE"
);
}
);
width = 446;
}
);
leftKerningGroup = c;
rightKerningGroup = c;
unicode = 0107;
},
{
glyphname = Ccircumflex;
lastChange = "2015-07-09 23:11:24 +0000";
layers = (
{
layerId = "E174F030-6324-451A-8951-EA6336064495";
name = Bold;
paths = (
{
closed = 1;
nodes = (
"371 -12 OFFCURVE",
"434 -4 OFFCURVE",
"505 11 CURVE",
"502 124 LINE",
"440 115 OFFCURVE",
"382 110 OFFCURVE",
"327 110 CURVE SMOOTH",
"217 110 OFFCURVE",
"189 162 OFFCURVE",
"189 319 CURVE SMOOTH",
"189 398 OFFCURVE",
"194 453 OFFCURVE",
"203 486 CURVE SMOOTH",
"221 551 OFFCURVE",
"250 570 OFFCURVE",
"338 570 CURVE SMOOTH",
"381 570 OFFCURVE",
"436 565 OFFCURVE",
"502 555 CURVE",
"506 665 LINE",
"431 683 OFFCURVE",
"364 692 OFFCURVE",
"307 692 CURVE SMOOTH",
"108 692 OFFCURVE",
"47 603 OFFCURVE",
"47 340 CURVE SMOOTH",
"47 215 OFFCURVE",
"59 137 OFFCURVE",
"98 76 CURVE SMOOTH",
"137 15 OFFCURVE",
"201 -12 OFFCURVE",
"314 -12 CURVE SMOOTH"
);
},
{
closed = 1;
nodes = (
"249 765 LINE",
"301 821 LINE",
"350 765 LINE",
"492 765 LINE",
"358 914 LINE",
"241 914 LINE",
"107 765 LINE"
);
}
);
width = 543;
}
);
leftKerningGroup = C;
rightKerningGroup = C;
unicode = 0108;
},
{
glyphname = ccircumflex;
lastChange = "2015-07-09 23:11:24 +0000";
layers = (
{
layerId = "E174F030-6324-451A-8951-EA6336064495";
name = Bold;
paths = (
{
closed = 1;
nodes = (
"283 -12 OFFCURVE",
"338 -5 OFFCURVE",
"409 9 CURVE",
"405 116 LINE",
"289 108 LINE",
"196 108 OFFCURVE",
"174 142 OFFCURVE",
"174 251 CURVE SMOOTH",
"174 360 OFFCURVE",
"196 392 OFFCURVE",
"288 392 CURVE SMOOTH",
"313 392 OFFCURVE",
"352 389 OFFCURVE",
"405 384 CURVE",
"409 490 LINE",
"382 496 LINE SMOOTH",
"328 507 OFFCURVE",
"284 512 OFFCURVE",
"249 512 CURVE SMOOTH",
"101 512 OFFCURVE",
"38 435 OFFCURVE",
"38 251 CURVE SMOOTH",
"38 67 OFFCURVE",
"98 -12 OFFCURVE",
"246 -12 CURVE SMOOTH"
);
},
{
closed = 1;
nodes = (
"177 580 LINE",
"223 647 LINE",
"269 580 LINE",
"392 580 LINE",
"264 731 LINE",
"180 731 LINE",
"54 580 LINE"
);
}
);
width = 446;
}
);
leftKerningGroup = c;
rightKerningGroup = c;
unicode = 0109;
},
{
glyphname = Cdotaccent;
lastChange = "2015-07-09 23:11:24 +0000";
layers = (
{
layerId = "E174F030-6324-451A-8951-EA6336064495";
name = Bold;
paths = (
{
closed = 1;
nodes = (
"371 -12 OFFCURVE",
"434 -4 OFFCURVE",
"505 11 CURVE",
"502 124 LINE",
"440 115 OFFCURVE",
"382 110 OFFCURVE",
"327 110 CURVE SMOOTH",
"217 110 OFFCURVE",
"189 162 OFFCURVE",
"189 319 CURVE SMOOTH",
"189 398 OFFCURVE",
"194 453 OFFCURVE",
"203 486 CURVE SMOOTH",
"221 551 OFFCURVE",
"250 570 OFFCURVE",
"338 570 CURVE SMOOTH",
"381 570 OFFCURVE",
"436 565 OFFCURVE",
"502 555 CURVE",
"506 665 LINE",
"431 683 OFFCURVE",
"364 692 OFFCURVE",
"307 692 CURVE SMOOTH",
"108 692 OFFCURVE",
"47 603 OFFCURVE",
"47 340 CURVE SMOOTH",
"47 215 OFFCURVE",
"59 137 OFFCURVE",
"98 76 CURVE SMOOTH",
"137 15 OFFCURVE",
"201 -12 OFFCURVE",
"314 -12 CURVE SMOOTH"
);
},
{
closed = 1;
nodes = (
"353 760 LINE",
"353 895 LINE",
"219 895 LINE",
"219 760 LINE"
);
}
);
width = 543;
}
);
leftKerningGroup = C;
rightKerningGroup = C;
unicode = 010A;
},
{
glyphname = cdotaccent;
lastChange = "2015-07-09 23:11:24 +0000";
layers = (
{
layerId = "E174F030-6324-451A-8951-EA6336064495";
name = Bold;
paths = (
{
closed = 1;
nodes = (
"283 -12 OFFCURVE",
"338 -5 OFFCURVE",
"409 9 CURVE",
"405 116 LINE",
"289 108 LINE",
"196 108 OFFCURVE",
"174 142 OFFCURVE",
"174 251 CURVE SMOOTH",
"174 360 OFFCURVE",
"196 392 OFFCURVE",
"288 392 CURVE SMOOTH",
"313 392 OFFCURVE",
"352 389 OFFCURVE",
"405 384 CURVE",
"409 490 LINE",
"382 496 LINE SMOOTH",
"328 507 OFFCURVE",
"284 512 OFFCURVE",
"249 512 CURVE SMOOTH",
"101 512 OFFCURVE",
"38 435 OFFCURVE",
"38 251 CURVE SMOOTH",
"38 67 OFFCURVE",
"98 -12 OFFCURVE",
"246 -12 CURVE SMOOTH"
);
},
{
closed = 1;
nodes = (
"323 556 LINE",
"323 691 LINE",
"189 691 LINE",
"189 556 LINE"
);
}
);
width = 446;
}
);
leftKerningGroup = c;
rightKerningGroup = c;
unicode = 010B;
},
{
glyphname = Ccaron;
lastChange = "2015-07-09 23:11:24 +0000";
layers = (
{
layerId = "E174F030-6324-451A-8951-EA6336064495";
name = Bold;
paths = (
{
closed = 1;
nodes = (
"371 -12 OFFCURVE",
"434 -4 OFFCURVE",
"505 11 CURVE",
"502 124 LINE",
"440 115 OFFCURVE",
"382 110 OFFCURVE",
"327 110 CURVE SMOOTH",
"217 110 OFFCURVE",
"189 162 OFFCURVE",
"189 319 CURVE SMOOTH",
"189 398 OFFCURVE",
"194 453 OFFCURVE",
"203 486 CURVE SMOOTH",
"221 551 OFFCURVE",
"250 570 OFFCURVE",
"338 570 CURVE SMOOTH",
"381 570 OFFCURVE",
"436 565 OFFCURVE",
"502 555 CURVE",
"506 665 LINE",
"431 683 OFFCURVE",
"364 692 OFFCURVE",
"307 692 CURVE SMOOTH",
"108 692 OFFCURVE",
"47 603 OFFCURVE",
"47 340 CURVE SMOOTH",
"47 215 OFFCURVE",
"59 137 OFFCURVE",
"98 76 CURVE SMOOTH",
"137 15 OFFCURVE",
"201 -12 OFFCURVE",
"314 -12 CURVE SMOOTH"
);
},
{
closed = 1;
nodes = (
"367 765 LINE",
"501 914 LINE",
"359 914 LINE",
"310 858 LINE",
"258 914 LINE",
"116 914 LINE",
"250 765 LINE"
);
}
);
width = 543;
}
);
leftKerningGroup = C;
rightKerningGroup = C;
unicode = 010C;
},
{
glyphname = ccaron;
lastChange = "2015-07-09 23:11:23 +0000";
layers = (
{
layerId = "E174F030-6324-451A-8951-EA6336064495";
name = Bold;
paths = (
{
closed = 1;
nodes = (
"283 -12 OFFCURVE",
"338 -5 OFFCURVE",
"409 9 CURVE",
"405 116 LINE",
"289 108 LINE",
"196 108 OFFCURVE",
"174 142 OFFCURVE",
"174 251 CURVE SMOOTH",
"174 360 OFFCURVE",
"196 392 OFFCURVE",
"288 392 CURVE SMOOTH",
"313 392 OFFCURVE",
"352 389 OFFCURVE",
"405 384 CURVE",
"409 490 LINE",
"382 496 LINE SMOOTH",
"328 507 OFFCURVE",
"284 512 OFFCURVE",
"249 512 CURVE SMOOTH",
"101 512 OFFCURVE",
"38 435 OFFCURVE",
"38 251 CURVE SMOOTH",
"38 67 OFFCURVE",
"98 -12 OFFCURVE",
"246 -12 CURVE SMOOTH"
);
},
{
closed = 1;
nodes = (
"283 580 LINE",
"411 731 LINE",
"288 731 LINE",
"242 664 LINE",
"196 731 LINE",
"73 731 LINE",
"199 580 LINE"
);
}
);
width = 446;
}
);
leftKerningGroup = c;
rightKerningGroup = c;
unicode = 010D;
},
{
glyphname = Dcaron;
lastChange = "2015-07-09 23:11:24 +0000";
layers = (
{
layerId = "E174F030-6324-451A-8951-EA6336064495";
name = Bold;
paths = (
{
closed = 1;
nodes = (
"303 0 LINE SMOOTH",
"423 0 OFFCURVE",
"499 27 OFFCURVE",
"540 91 CURVE SMOOTH",
"580 154 OFFCURVE",
"592 228 OFFCURVE",
"592 351 CURVE SMOOTH",
"592 474 OFFCURVE",
"579 544 OFFCURVE",
"537 601 CURVE SMOOTH",
"495 657 OFFCURVE",
"420 680 OFFCURVE",
"303 680 CURVE SMOOTH",
"74 680 LINE",
"74 0 LINE"
);
},
{
closed = 1;
nodes = (
"212 560 LINE",
"303 560 LINE SMOOTH",
"370 560 OFFCURVE",
"407 548 OFFCURVE",
"427 511 CURVE SMOOTH",
"447 474 OFFCURVE",
"450 434 OFFCURVE",
"450 359 CURVE SMOOTH",
"450 321 OFFCURVE",
"449 291 OFFCURVE",
"448 270 CURVE",
"439 162 OFFCURVE",
"403 120 OFFCURVE",
"303 120 CURVE SMOOTH",
"212 120 LINE"
);
},
{
closed = 1;
nodes = (
"363 765 LINE",
"497 914 LINE",
"355 914 LINE",
"306 858 LINE",
"254 914 LINE",
"112 914 LINE",
"246 765 LINE"
);
}
);
width = 638;
}
);
leftKerningGroup = B;
rightKerningGroup = D;
unicode = 010E;
},
{
glyphname = dcaron;
lastChange = "2015-07-09 23:11:24 +0000";
layers = (
{
layerId = "E174F030-6324-451A-8951-EA6336064495";
name = Bold;
paths = (
{
closed = 1;
nodes = (
"267 -12 OFFCURVE",
"307 -1 OFFCURVE",
"354 21 CURVE",
"354 0 LINE",
"487 0 LINE",
"487 700 LINE",
"353 700 LINE",
"353 498 LINE",
"334 502 LINE SMOOTH",
"296 509 OFFCURVE",
"266 512 OFFCURVE",
"245 512 CURVE SMOOTH",
"106 512 OFFCURVE",
"38 433 OFFCURVE",
"38 251 CURVE SMOOTH",
"38 69 OFFCURVE",
"88 -12 OFFCURVE",
"233 -12 CURVE SMOOTH"
);
},
{
closed = 1;
nodes = (
"196 108 OFFCURVE",
"174 148 OFFCURVE",
"174 252 CURVE SMOOTH",
"174 348 OFFCURVE",
"201 396 OFFCURVE",
"255 396 CURVE SMOOTH",
"284 396 OFFCURVE",
"316 393 OFFCURVE",
"353 386 CURVE",
"353 123 LINE",
"339 120 LINE",
"308 112 OFFCURVE",
"279 108 OFFCURVE",
"252 108 CURVE SMOOTH"
);
},
{
closed = 1;
nodes = (
"665 444 LINE",
"720 678 LINE",
"590 678 LINE",
"544 444 LINE"
);
}
);
width = 664;
}
);
leftKerningGroup = d;
rightKerningGroup = dcaron;
unicode = 010F;
},
{
glyphname = Dcroat;
lastChange = "2015-07-09 23:11:24 +0000";
layers = (
{
layerId = "E174F030-6324-451A-8951-EA6336064495";
name = Bold;
paths = (
{
closed = 1;
nodes = (
"306 0 LINE SMOOTH",
"426 0 OFFCURVE",
"502 28 OFFCURVE",
"543 93 CURVE SMOOTH",
"583 157 OFFCURVE",
"595 232 OFFCURVE",
"595 356 CURVE SMOOTH",
"595 479 OFFCURVE",
"582 551 OFFCURVE",
"540 609 CURVE SMOOTH",
"498 667 OFFCURVE",
"423 690 OFFCURVE",
"306 690 CURVE SMOOTH",
"79 690 LINE",
"79 409 LINE",
"25 409 LINE",
"25 277 LINE",
"79 277 LINE",
"79 0 LINE"
);
},
{
closed = 1;
nodes = (
"215 277 LINE",
"345 277 LINE",
"345 409 LINE",
"215 409 LINE",
"215 559 LINE",
"306 559 LINE SMOOTH",
"351 559 OFFCURVE",
"383 552 OFFCURVE",
"404 538 CURVE",
"425 522 OFFCURVE",
"438 505 OFFCURVE",
"445 472 CURVE SMOOTH",
"452 439 OFFCURVE",
"453 411 OFFCURVE",
"453 354 CURVE SMOOTH",
"453 162 OFFCURVE",
"406 131 OFFCURVE",
"306 131 CURVE SMOOTH",
"215 131 LINE"
);
}
);
width = 642;
}
);
leftKerningGroup = B;
rightKerningGroup = D;
unicode = 0110;
},
{
glyphname = dcroat;
lastChange = "2015-07-09 23:11:23 +0000";
layers = (
{
layerId = "E174F030-6324-451A-8951-EA6336064495";
name = Bold;
paths = (
{
closed = 1;
nodes = (
"267 -12 OFFCURVE",
"307 -1 OFFCURVE",
"354 21 CURVE",
"354 0 LINE",
"487 0 LINE",
"487 700 LINE",
"456 700 LINE",
"456 738 LINE",
"129 738 LINE",
"129 622 LINE",
"353 622 LINE",
"353 498 LINE",
"334 502 LINE SMOOTH",
"296 509 OFFCURVE",
"266 512 OFFCURVE",
"245 512 CURVE SMOOTH",
"106 512 OFFCURVE",
"38 433 OFFCURVE",
"38 251 CURVE SMOOTH",
"38 69 OFFCURVE",
"88 -12 OFFCURVE",
"233 -12 CURVE SMOOTH"
);
},
{
closed = 1;
nodes = (
"196 108 OFFCURVE",
"174 148 OFFCURVE",
"174 252 CURVE SMOOTH",
"174 348 OFFCURVE",
"201 396 OFFCURVE",
"255 396 CURVE SMOOTH",
"284 396 OFFCURVE",
"316 393 OFFCURVE",
"353 386 CURVE",
"353 123 LINE",
"339 120 LINE",
"308 112 OFFCURVE",
"279 108 OFFCURVE",
"252 108 CURVE SMOOTH"
);
}
);
width = 549;
}
);
leftKerningGroup = d;
rightKerningGroup = numbersign;
unicode = 0111;
},
{
glyphname = Emacron;
lastChange = "2015-07-09 23:11:24 +0000";
layers = (
{
layerId = "E174F030-6324-451A-8951-EA6336064495";
name = Bold;
paths = (
{
closed = 1;
nodes = (
"514 0 LINE",
"514 120 LINE",
"212 120 LINE",
"212 283 LINE",
"454 283 LINE",
"454 401 LINE",
"212 401 LINE",
"212 560 LINE",
"514 560 LINE",
"514 680 LINE",
"74 680 LINE",
"74 0 LINE"
);
},
{
closed = 1;
nodes = (
"463 782 LINE",
"463 880 LINE",
"116 880 LINE",
"116 782 LINE"
);
}
);
width = 554;
}
);
leftKerningGroup = B;
rightKerningGroup = E;
unicode = 0112;
},
{
glyphname = emacron;
lastChange = "2015-07-09 23:11:24 +0000";
layers = (
{
layerId = "E174F030-6324-451A-8951-EA6336064495";
name = Bold;
paths = (
{
closed = 1;
nodes = (
"314 -12 OFFCURVE",
"383 -3 OFFCURVE",
"460 16 CURVE",
"458 115 LINE",
"430 112 LINE SMOOTH",
"381 108 OFFCURVE",
"326 106 OFFCURVE",
"264 106 CURVE SMOOTH",
"205 106 OFFCURVE",
"173 132 OFFCURVE",
"172 193 CURVE",
"466 193 LINE",
"476 286 LINE",
"476 437 OFFCURVE",
"403 512 OFFCURVE",
"258 512 CURVE SMOOTH",
"111 512 OFFCURVE",
"37 422 OFFCURVE",
"37 243 CURVE SMOOTH",
"37 63 OFFCURVE",
"101 -12 OFFCURVE",
"252 -12 CURVE SMOOTH"
);
},
{
closed = 1;
nodes = (
"172 372 OFFCURVE",
"195 402 OFFCURVE",
"259 402 CURVE SMOOTH",
"322 402 OFFCURVE",
"344 375 OFFCURVE",
"344 295 CURVE",
"171 295 LINE"
);
},
{
closed = 1;
nodes = (
"400 597 LINE",
"400 697 LINE",
"113 697 LINE",
"113 597 LINE"
);
}
);
width = 510;
}
);
leftKerningGroup = c;
rightKerningGroup = e;
unicode = 0113;
},
{
glyphname = Ebreve;
lastChange = "2015-07-09 23:11:24 +0000";
layers = (
{
layerId = "E174F030-6324-451A-8951-EA6336064495";
name = Bold;
paths = (
{
closed = 1;
nodes = (
"514 0 LINE",
"514 120 LINE",
"212 120 LINE",
"212 283 LINE",
"454 283 LINE",
"454 401 LINE",
"212 401 LINE",
"212 560 LINE",
"514 560 LINE",
"514 680 LINE",
"74 680 LINE",
"74 0 LINE"
);
},
{
closed = 1;
nodes = (
"415 759 OFFCURVE",
"476 819 OFFCURVE",
"487 910 CURVE",
"366 910 LINE",
"362 877 OFFCURVE",
"337 853 OFFCURVE",
"301 853 CURVE SMOOTH",
"264 853 OFFCURVE",
"240 877 OFFCURVE",
"235 910 CURVE",
"114 910 LINE",
"125 819 OFFCURVE",
"185 759 OFFCURVE",
"300 759 CURVE SMOOTH"
);
}
);
width = 554;
}
);
leftKerningGroup = B;
rightKerningGroup = E;
unicode = 0114;
},
{
glyphname = ebreve;
lastChange = "2015-07-09 23:11:24 +0000";
layers = (
{
layerId = "E174F030-6324-451A-8951-EA6336064495";
name = Bold;
paths = (
{
closed = 1;
nodes = (
"314 -12 OFFCURVE",
"383 -3 OFFCURVE",
"460 16 CURVE",
"458 115 LINE",
"430 112 LINE SMOOTH",
"381 108 OFFCURVE",
"326 106 OFFCURVE",
"264 106 CURVE SMOOTH",
"205 106 OFFCURVE",
"173 132 OFFCURVE",
"172 193 CURVE",
"466 193 LINE",
"476 286 LINE",
"476 437 OFFCURVE",
"403 512 OFFCURVE",
"258 512 CURVE SMOOTH",
"111 512 OFFCURVE",
"37 422 OFFCURVE",
"37 243 CURVE SMOOTH",
"37 63 OFFCURVE",
"101 -12 OFFCURVE",
"252 -12 CURVE SMOOTH"
);
},
{
closed = 1;
nodes = (
"172 372 OFFCURVE",
"195 402 OFFCURVE",
"259 402 CURVE SMOOTH",
"322 402 OFFCURVE",
"344 375 OFFCURVE",
"344 295 CURVE",
"171 295 LINE"
);
},
{
closed = 1;
nodes = (
"353 573 OFFCURVE",
"411 643 OFFCURVE",
"422 730 CURVE",
"321 730 LINE",
"316 686 OFFCURVE",
"295 664 OFFCURVE",
"258 664 CURVE SMOOTH",
"223 664 OFFCURVE",
"200 689 OFFCURVE",
"195 730 CURVE",
"94 730 LINE",
"105 643 OFFCURVE",
"163 573 OFFCURVE",
"258 573 CURVE SMOOTH"
);
}
);
width = 510;
}
);
leftKerningGroup = c;
rightKerningGroup = e;
unicode = 0115;
},
{
glyphname = Edotaccent;
lastChange = "2015-07-09 23:11:24 +0000";
layers = (
{
layerId = "E174F030-6324-451A-8951-EA6336064495";
name = Bold;
paths = (
{
closed = 1;
nodes = (
"514 0 LINE",
"514 120 LINE",
"212 120 LINE",
"212 283 LINE",
"454 283 LINE",
"454 401 LINE",
"212 401 LINE",
"212 560 LINE",
"514 560 LINE",
"514 680 LINE",
"74 680 LINE",
"74 0 LINE"
);
},
{
closed = 1;
nodes = (
"367 767 LINE",
"367 902 LINE",
"233 902 LINE",
"233 767 LINE"
);
}
);
width = 554;
}
);
leftKerningGroup = B;
rightKerningGroup = E;
unicode = 0116;
},
{
glyphname = edotaccent;
lastChange = "2015-07-09 23:11:23 +0000";
layers = (
{
layerId = "E174F030-6324-451A-8951-EA6336064495";
name = Bold;
paths = (
{
closed = 1;
nodes = (
"314 -12 OFFCURVE",
"383 -3 OFFCURVE",
"460 16 CURVE",
"458 115 LINE",
"430 112 LINE SMOOTH",
"381 108 OFFCURVE",
"326 106 OFFCURVE",
"264 106 CURVE SMOOTH",
"205 106 OFFCURVE",
"173 132 OFFCURVE",
"172 193 CURVE",
"466 193 LINE",
"476 286 LINE",
"476 437 OFFCURVE",
"403 512 OFFCURVE",
"258 512 CURVE SMOOTH",
"111 512 OFFCURVE",
"37 422 OFFCURVE",
"37 243 CURVE SMOOTH",
"37 63 OFFCURVE",
"101 -12 OFFCURVE",
"252 -12 CURVE SMOOTH"
);
},
{
closed = 1;
nodes = (
"172 372 OFFCURVE",
"195 402 OFFCURVE",
"259 402 CURVE SMOOTH",
"322 402 OFFCURVE",
"344 375 OFFCURVE",
"344 295 CURVE",
"171 295 LINE"
);
},
{
closed = 1;
nodes = (
"324 556 LINE",
"324 691 LINE",
"190 691 LINE",
"190 556 LINE"
);
}
);
width = 510;
}
);
leftKerningGroup = c;
rightKerningGroup = e;
unicode = 0117;
},
{
glyphname = Eogonek;
lastChange = "2015-07-09 23:11:24 +0000";
layers = (
{
layerId = "E174F030-6324-451A-8951-EA6336064495";
name = Bold;
paths = (
{
closed = 1;
nodes = (
"442 -216 OFFCURVE",
"477 -212 OFFCURVE",
"516 -205 CURVE",
"504 -110 LINE",
"462 -114 LINE",
"441 -114 OFFCURVE",
"430 -103 OFFCURVE",
"430 -80 CURVE SMOOTH",
"430 -58 OFFCURVE",
"449 -31 OFFCURVE",
"486 0 CURVE",
"514 0 LINE",
"514 120 LINE",
"212 120 LINE",
"212 283 LINE",
"454 283 LINE",
"454 401 LINE",
"212 401 LINE",
"212 560 LINE",
"514 560 LINE",
"514 680 LINE",
"74 680 LINE",
"74 0 LINE",
"371 0 LINE",
"327 -35 OFFCURVE",
"305 -75 OFFCURVE",
"305 -120 CURVE SMOOTH",
"305 -179 OFFCURVE",
"351 -216 OFFCURVE",
"412 -216 CURVE SMOOTH"
);
}
);
width = 554;
}
);
leftKerningGroup = B;
rightKerningGroup = E;
unicode = 0118;
},
{
glyphname = eogonek;
lastChange = "2015-07-09 23:11:24 +0000";
layers = (
{
layerId = "E174F030-6324-451A-8951-EA6336064495";
name = Bold;
paths = (
{
closed = 1;
nodes = (
"361 -216 OFFCURVE",
"396 -212 OFFCURVE",
"435 -205 CURVE",
"423 -110 LINE",
"381 -114 LINE",
"360 -114 OFFCURVE",
"349 -103 OFFCURVE",
"349 -80 CURVE SMOOTH",
"349 -57 OFFCURVE",
"368 -30 OFFCURVE",
"407 1 CURVE",
"393 2 LINE",
"418 7 OFFCURVE",
"440 11 OFFCURVE",
"460 16 CURVE",
"458 115 LINE",
"430 112 LINE SMOOTH",
"381 108 OFFCURVE",
"326 106 OFFCURVE",
"264 106 CURVE SMOOTH",
"205 106 OFFCURVE",
"173 132 OFFCURVE",
"172 193 CURVE",
"466 193 LINE",
"476 286 LINE",
"476 437 OFFCURVE",
"403 512 OFFCURVE",
"258 512 CURVE SMOOTH",
"111 512 OFFCURVE",
"37 422 OFFCURVE",
"37 243 CURVE SMOOTH",
"37 63 OFFCURVE",
"101 -12 OFFCURVE",
"252 -12 CURVE SMOOTH",
"263 -12 OFFCURVE",
"271 -12 OFFCURVE",
"276 -11 CURVE",
"241 -44 OFFCURVE",
"224 -81 OFFCURVE",
"224 -120 CURVE SMOOTH",
"224 -179 OFFCURVE",
"270 -216 OFFCURVE",
"331 -216 CURVE SMOOTH"
);
},
{
closed = 1;
nodes = (
"172 372 OFFCURVE",
"195 402 OFFCURVE",
"259 402 CURVE SMOOTH",
"322 402 OFFCURVE",
"344 375 OFFCURVE",
"344 295 CURVE",
"171 295 LINE"
);
}
);
width = 511;
}
);
leftKerningGroup = c;
rightKerningGroup = e;
unicode = 0119;
},
{
glyphname = Ecaron;
lastChange = "2015-07-09 23:11:23 +0000";
layers = (
{
layerId = "E174F030-6324-451A-8951-EA6336064495";
name = Bold;
paths = (
{
closed = 1;
nodes = (
"514 0 LINE",
"514 120 LINE",
"212 120 LINE",
"212 283 LINE",
"454 283 LINE",
"454 401 LINE",
"212 401 LINE",
"212 560 LINE",
"514 560 LINE",
"514 680 LINE",
"74 680 LINE",
"74 0 LINE"
);
},
{
closed = 1;
nodes = (
"338 765 LINE",
"472 914 LINE",
"330 914 LINE",
"281 858 LINE",
"229 914 LINE",
"87 914 LINE",
"221 765 LINE"
);
}
);
width = 554;
}
);
leftKerningGroup = B;
rightKerningGroup = E;
unicode = 011A;
},
{
glyphname = ecaron;
lastChange = "2015-07-09 23:11:24 +0000";
layers = (
{
layerId = "E174F030-6324-451A-8951-EA6336064495";
name = Bold;
paths = (
{
closed = 1;
nodes = (
"314 -12 OFFCURVE",
"383 -3 OFFCURVE",
"460 16 CURVE",
"458 115 LINE",
"430 112 LINE SMOOTH",
"381 108 OFFCURVE",
"326 106 OFFCURVE",
"264 106 CURVE SMOOTH",
"205 106 OFFCURVE",
"173 132 OFFCURVE",
"172 193 CURVE",
"466 193 LINE",
"476 286 LINE",
"476 437 OFFCURVE",
"403 512 OFFCURVE",
"258 512 CURVE SMOOTH",
"111 512 OFFCURVE",
"37 422 OFFCURVE",
"37 243 CURVE SMOOTH",
"37 63 OFFCURVE",
"101 -12 OFFCURVE",
"252 -12 CURVE SMOOTH"
);
},
{
closed = 1;
nodes = (
"172 372 OFFCURVE",
"195 402 OFFCURVE",
"259 402 CURVE SMOOTH",
"322 402 OFFCURVE",
"344 375 OFFCURVE",
"344 295 CURVE",
"171 295 LINE"
);
},
{
closed = 1;
nodes = (
"295 580 LINE",
"423 731 LINE",
"300 731 LINE",
"254 664 LINE",
"208 731 LINE",
"85 731 LINE",
"211 580 LINE"
);
}
);
width = 510;
}
);
leftKerningGroup = c;
rightKerningGroup = e;
unicode = 011B;
},
{
glyphname = Gcircumflex;
lastChange = "2015-07-09 23:11:23 +0000";
layers = (
{
layerId = "E174F030-6324-451A-8951-EA6336064495";
name = Bold;
paths = (
{
closed = 1;
nodes = (
"382 -12 OFFCURVE",
"460 -4 OFFCURVE",
"555 11 CURVE",
"555 364 LINE",
"357 364 LINE",
"357 244 LINE",
"419 244 LINE",
"419 112 LINE",
"336 108 LINE",
"215 108 OFFCURVE",
"187 163 OFFCURVE",
"187 320 CURVE SMOOTH",
"187 398 OFFCURVE",
"192 453 OFFCURVE",
"202 486 CURVE SMOOTH",
"221 550 OFFCURVE",
"253 570 OFFCURVE",
"355 570 CURVE SMOOTH",
"406 570 OFFCURVE",
"471 566 OFFCURVE",
"551 557 CURVE",
"555 664 LINE",
"519 671 LINE SMOOTH",
"447 685 OFFCURVE",
"380 692 OFFCURVE",
"318 692 CURVE SMOOTH",
"119 692 OFFCURVE",
"45 590 OFFCURVE",
"45 343 CURVE SMOOTH",
"45 96 OFFCURVE",
"111 -12 OFFCURVE",
"323 -12 CURVE SMOOTH"
);
},
{
closed = 1;
nodes = (
"278 765 LINE",
"330 821 LINE",
"379 765 LINE",
"521 765 LINE",
"387 914 LINE",
"270 914 LINE",
"136 765 LINE"
);
}
);
width = 611;
}
);
leftKerningGroup = G;
rightKerningGroup = G;
unicode = 011C;
},
{
glyphname = gcircumflex;
lastChange = "2015-07-09 23:11:23 +0000";
layers = (
{
layerId = "E174F030-6324-451A-8951-EA6336064495";
name = Bold;
paths = (
{
closed = 1;
nodes = (
"421 -230 OFFCURVE",
"515 -176 OFFCURVE",
"515 -62 CURVE SMOOTH",
"515 52 OFFCURVE",
"465 88 OFFCURVE",
"297 89 CURVE SMOOTH",
"255 90 OFFCURVE",
"228 92 OFFCURVE",
"217 96 CURVE SMOOTH",
"206 100 OFFCURVE",
"200 108 OFFCURVE",
"200 119 CURVE SMOOTH",
"200 130 OFFCURVE",
"203 144 OFFCURVE",
"210 161 CURVE",
"222 158 OFFCURVE",
"236 157 OFFCURVE",
"251 157 CURVE SMOOTH",
"396 157 OFFCURVE",
"462 200 OFFCURVE",
"462 333 CURVE SMOOTH",
"462 356 OFFCURVE",
"455 378 OFFCURVE",
"440 401 CURVE",
"515 395 LINE",
"515 502 LINE",
"354 497 LINE",
"338 500 LINE",
"310 507 OFFCURVE",
"282 510 OFFCURVE",
"253 510 CURVE SMOOTH",
"126 510 OFFCURVE",
"43 456 OFFCURVE",
"43 329 CURVE SMOOTH",
"43 265 OFFCURVE",
"66 217 OFFCURVE",
"111 184 CURVE",
"102 170 LINE SMOOTH",
"82 139 OFFCURVE",
"72 117 OFFCURVE",
"72 104 CURVE SMOOTH",
"72 70 OFFCURVE",
"84 45 OFFCURVE",
"109 28 CURVE",
"61 -9 OFFCURVE",
"37 -49 OFFCURVE",
"37 -91 CURVE SMOOTH",
"37 -196 OFFCURVE",
"121 -230 OFFCURVE",
"271 -230 CURVE SMOOTH"
);
},
{
closed = 1;
nodes = (
"204 -120 OFFCURVE",
"169 -106 OFFCURVE",
"169 -77 CURVE SMOOTH",
"169 -57 OFFCURVE",
"178 -38 OFFCURVE",
"196 -20 CURVE",
"286 -27 LINE",
"325 -28 OFFCURVE",
"350 -30 OFFCURVE",
"362 -35 CURVE SMOOTH",
"374 -40 OFFCURVE",
"380 -52 OFFCURVE",
"380 -70 CURVE SMOOTH",
"380 -103 OFFCURVE",
"345 -120 OFFCURVE",
"275 -120 CURVE SMOOTH"
);
},
{
closed = 1;
nodes = (
"203 259 OFFCURVE",
"177 284 OFFCURVE",
"177 333 CURVE SMOOTH",
"177 382 OFFCURVE",
"203 406 OFFCURVE",
"254 406 CURVE SMOOTH",
"305 406 OFFCURVE",
"330 382 OFFCURVE",
"330 333 CURVE SMOOTH",
"330 284 OFFCURVE",
"305 259 OFFCURVE",
"254 259 CURVE SMOOTH"
);
},
{
closed = 1;
nodes = (
"226 580 LINE",
"272 647 LINE",
"318 580 LINE",
"441 580 LINE",
"313 731 LINE",
"229 731 LINE",
"103 580 LINE"
);
}
);
width = 534;
}
);
leftKerningGroup = g;
rightKerningGroup = g;
unicode = 011D;
},
{
glyphname = Gbreve;
lastChange = "2015-07-09 23:11:24 +0000";
layers = (
{
layerId = "E174F030-6324-451A-8951-EA6336064495";
name = Bold;
paths = (
{
closed = 1;
nodes = (
"382 -12 OFFCURVE",
"460 -4 OFFCURVE",
"555 11 CURVE",
"555 364 LINE",
"357 364 LINE",
"357 244 LINE",
"419 244 LINE",
"419 112 LINE",
"336 108 LINE",
"215 108 OFFCURVE",
"187 163 OFFCURVE",
"187 320 CURVE SMOOTH",
"187 398 OFFCURVE",
"192 453 OFFCURVE",
"202 486 CURVE SMOOTH",
"221 550 OFFCURVE",
"253 570 OFFCURVE",
"355 570 CURVE SMOOTH",
"406 570 OFFCURVE",
"471 566 OFFCURVE",
"551 557 CURVE",
"555 664 LINE",
"519 671 LINE SMOOTH",
"447 685 OFFCURVE",
"380 692 OFFCURVE",
"318 692 CURVE SMOOTH",
"119 692 OFFCURVE",
"45 590 OFFCURVE",
"45 343 CURVE SMOOTH",
"45 96 OFFCURVE",
"111 -12 OFFCURVE",
"323 -12 CURVE SMOOTH"
);
},
{
closed = 1;
nodes = (
"437 759 OFFCURVE",
"498 819 OFFCURVE",
"509 910 CURVE",
"388 910 LINE",
"384 877 OFFCURVE",
"359 853 OFFCURVE",
"323 853 CURVE SMOOTH",
"286 853 OFFCURVE",
"262 877 OFFCURVE",
"257 910 CURVE",
"136 910 LINE",
"147 819 OFFCURVE",
"207 759 OFFCURVE",
"322 759 CURVE SMOOTH"
);
}
);
width = 611;
}
);
leftKerningGroup = G;
rightKerningGroup = G;
unicode = 011E;
},
{
glyphname = gbreve;
lastChange = "2015-07-09 23:11:24 +0000";
layers = (
{
layerId = "E174F030-6324-451A-8951-EA6336064495";
name = Bold;
paths = (
{
closed = 1;
nodes = (
"421 -230 OFFCURVE",
"515 -176 OFFCURVE",
"515 -62 CURVE SMOOTH",
"515 52 OFFCURVE",
"465 88 OFFCURVE",
"297 89 CURVE SMOOTH",
"255 90 OFFCURVE",
"228 92 OFFCURVE",
"217 96 CURVE SMOOTH",
"206 100 OFFCURVE",
"200 108 OFFCURVE",
"200 119 CURVE SMOOTH",
"200 130 OFFCURVE",
"203 144 OFFCURVE",
"210 161 CURVE",
"222 158 OFFCURVE",
"236 157 OFFCURVE",
"251 157 CURVE SMOOTH",
"396 157 OFFCURVE",
"462 200 OFFCURVE",
"462 333 CURVE SMOOTH",
"462 356 OFFCURVE",
"455 378 OFFCURVE",
"440 401 CURVE",
"515 395 LINE",
"515 502 LINE",
"354 497 LINE",
"338 500 LINE",
"310 507 OFFCURVE",
"282 510 OFFCURVE",
"253 510 CURVE SMOOTH",
"126 510 OFFCURVE",
"43 456 OFFCURVE",
"43 329 CURVE SMOOTH",
"43 265 OFFCURVE",
"66 217 OFFCURVE",
"111 184 CURVE",
"102 170 LINE SMOOTH",
"82 139 OFFCURVE",
"72 117 OFFCURVE",
"72 104 CURVE SMOOTH",
"72 70 OFFCURVE",
"84 45 OFFCURVE",
"109 28 CURVE",
"61 -9 OFFCURVE",
"37 -49 OFFCURVE",
"37 -91 CURVE SMOOTH",
"37 -196 OFFCURVE",
"121 -230 OFFCURVE",
"271 -230 CURVE SMOOTH"
);
},
{
closed = 1;
nodes = (
"204 -120 OFFCURVE",
"169 -106 OFFCURVE",
"169 -77 CURVE SMOOTH",
"169 -57 OFFCURVE",
"178 -38 OFFCURVE",
"196 -20 CURVE",
"286 -27 LINE",
"325 -28 OFFCURVE",
"350 -30 OFFCURVE",
"362 -35 CURVE SMOOTH",
"374 -40 OFFCURVE",
"380 -52 OFFCURVE",
"380 -70 CURVE SMOOTH",
"380 -103 OFFCURVE",
"345 -120 OFFCURVE",
"275 -120 CURVE SMOOTH"
);
},
{
closed = 1;
nodes = (
"203 259 OFFCURVE",
"177 284 OFFCURVE",
"177 333 CURVE SMOOTH",
"177 382 OFFCURVE",
"203 406 OFFCURVE",
"254 406 CURVE SMOOTH",
"305 406 OFFCURVE",
"330 382 OFFCURVE",
"330 333 CURVE SMOOTH",
"330 284 OFFCURVE",
"305 259 OFFCURVE",
"254 259 CURVE SMOOTH"
);
},
{
closed = 1;
nodes = (
"366 573 OFFCURVE",
"424 643 OFFCURVE",
"435 730 CURVE",
"334 730 LINE",
"329 686 OFFCURVE",
"308 664 OFFCURVE",
"271 664 CURVE SMOOTH",
"236 664 OFFCURVE",
"213 689 OFFCURVE",
"208 730 CURVE",
"107 730 LINE",
"118 643 OFFCURVE",
"176 573 OFFCURVE",
"271 573 CURVE SMOOTH"
);
}
);
width = 534;
}
);
leftKerningGroup = g;
rightKerningGroup = g;
unicode = 011F;
},
{
glyphname = Gdotaccent;
lastChange = "2015-07-09 23:11:24 +0000";
layers = (
{
layerId = "E174F030-6324-451A-8951-EA6336064495";
name = Bold;
paths = (
{
closed = 1;
nodes = (
"382 -12 OFFCURVE",
"460 -4 OFFCURVE",
"555 11 CURVE",
"555 364 LINE",
"357 364 LINE",
"357 244 LINE",
"419 244 LINE",
"419 112 LINE",
"336 108 LINE",
"215 108 OFFCURVE",
"187 163 OFFCURVE",
"187 320 CURVE SMOOTH",
"187 398 OFFCURVE",
"192 453 OFFCURVE",
"202 486 CURVE SMOOTH",
"221 550 OFFCURVE",
"253 570 OFFCURVE",
"355 570 CURVE SMOOTH",
"406 570 OFFCURVE",
"471 566 OFFCURVE",
"551 557 CURVE",
"555 664 LINE",
"519 671 LINE SMOOTH",
"447 685 OFFCURVE",
"380 692 OFFCURVE",
"318 692 CURVE SMOOTH",
"119 692 OFFCURVE",
"45 590 OFFCURVE",
"45 343 CURVE SMOOTH",
"45 96 OFFCURVE",
"111 -12 OFFCURVE",
"323 -12 CURVE SMOOTH"
);
},
{
closed = 1;
nodes = (
"379 767 LINE",
"379 902 LINE",
"245 902 LINE",
"245 767 LINE"
);
}
);
width = 611;
}
);
leftKerningGroup = G;
rightKerningGroup = G;
unicode = 0120;
},
{
glyphname = gdotaccent;
lastChange = "2015-07-09 23:11:23 +0000";
layers = (
{
layerId = "E174F030-6324-451A-8951-EA6336064495";
name = Bold;
paths = (
{
closed = 1;
nodes = (
"421 -230 OFFCURVE",
"515 -176 OFFCURVE",
"515 -62 CURVE SMOOTH",
"515 52 OFFCURVE",
"465 88 OFFCURVE",
"297 89 CURVE SMOOTH",
"255 90 OFFCURVE",
"228 92 OFFCURVE",
"217 96 CURVE SMOOTH",
"206 100 OFFCURVE",
"200 108 OFFCURVE",
"200 119 CURVE SMOOTH",
"200 130 OFFCURVE",
"203 144 OFFCURVE",
"210 161 CURVE",
"222 158 OFFCURVE",
"236 157 OFFCURVE",
"251 157 CURVE SMOOTH",
"396 157 OFFCURVE",
"462 200 OFFCURVE",
"462 333 CURVE SMOOTH",
"462 356 OFFCURVE",
"455 378 OFFCURVE",
"440 401 CURVE",
"515 395 LINE",
"515 502 LINE",
"354 497 LINE",
"338 500 LINE",
"310 507 OFFCURVE",
"282 510 OFFCURVE",
"253 510 CURVE SMOOTH",
"126 510 OFFCURVE",
"43 456 OFFCURVE",
"43 329 CURVE SMOOTH",
"43 265 OFFCURVE",
"66 217 OFFCURVE",
"111 184 CURVE",
"102 170 LINE SMOOTH",
"82 139 OFFCURVE",
"72 117 OFFCURVE",
"72 104 CURVE SMOOTH",
"72 70 OFFCURVE",
"84 45 OFFCURVE",
"109 28 CURVE",
"61 -9 OFFCURVE",
"37 -49 OFFCURVE",
"37 -91 CURVE SMOOTH",
"37 -196 OFFCURVE",
"121 -230 OFFCURVE",
"271 -230 CURVE SMOOTH"
);
},
{
closed = 1;
nodes = (
"204 -120 OFFCURVE",
"169 -106 OFFCURVE",
"169 -77 CURVE SMOOTH",
"169 -57 OFFCURVE",
"178 -38 OFFCURVE",
"196 -20 CURVE",
"286 -27 LINE",
"325 -28 OFFCURVE",
"350 -30 OFFCURVE",
"362 -35 CURVE SMOOTH",
"374 -40 OFFCURVE",
"380 -52 OFFCURVE",
"380 -70 CURVE SMOOTH",
"380 -103 OFFCURVE",
"345 -120 OFFCURVE",
"275 -120 CURVE SMOOTH"
);
},
{
closed = 1;
nodes = (
"203 259 OFFCURVE",
"177 284 OFFCURVE",
"177 333 CURVE SMOOTH",
"177 382 OFFCURVE",
"203 406 OFFCURVE",
"254 406 CURVE SMOOTH",
"305 406 OFFCURVE",
"330 382 OFFCURVE",
"330 333 CURVE SMOOTH",
"330 284 OFFCURVE",
"305 259 OFFCURVE",
"254 259 CURVE SMOOTH"
);
},
{
closed = 1;
nodes = (
"337 556 LINE",
"337 691 LINE",
"203 691 LINE",
"203 556 LINE"
);
}
);
width = 534;
}
);
leftKerningGroup = g;
rightKerningGroup = g;
unicode = 0121;
},
{
glyphname = Gcommaaccent;
lastChange = "2015-07-09 23:11:24 +0000";
layers = (
{
layerId = "E174F030-6324-451A-8951-EA6336064495";
name = Bold;
paths = (
{
closed = 1;
nodes = (
"382 -12 OFFCURVE",
"460 -4 OFFCURVE",
"555 11 CURVE",
"555 364 LINE",
"357 364 LINE",
"357 244 LINE",
"419 244 LINE",
"419 112 LINE",
"336 108 LINE",
"215 108 OFFCURVE",
"187 163 OFFCURVE",
"187 320 CURVE SMOOTH",
"187 398 OFFCURVE",
"192 453 OFFCURVE",
"202 486 CURVE SMOOTH",
"221 550 OFFCURVE",
"253 570 OFFCURVE",
"355 570 CURVE SMOOTH",
"406 570 OFFCURVE",
"471 566 OFFCURVE",
"551 557 CURVE",
"555 664 LINE",
"519 671 LINE SMOOTH",
"447 685 OFFCURVE",
"380 692 OFFCURVE",
"318 692 CURVE SMOOTH",
"119 692 OFFCURVE",
"45 590 OFFCURVE",
"45 343 CURVE SMOOTH",
"45 96 OFFCURVE",
"111 -12 OFFCURVE",
"323 -12 CURVE SMOOTH"
);
},
{
closed = 1;
nodes = (
"341 -311 LINE",
"396 -77 LINE",
"266 -77 LINE",
"220 -311 LINE"
);
}
);
width = 611;
}
);
leftKerningGroup = G;
rightKerningGroup = G;
unicode = 0122;
},
{
glyphname = gcommaaccent;
lastChange = "2015-07-09 23:11:23 +0000";
layers = (
{
layerId = "E174F030-6324-451A-8951-EA6336064495";
name = Bold;
paths = (
{
closed = 1;
nodes = (
"421 -230 OFFCURVE",
"515 -176 OFFCURVE",
"515 -62 CURVE SMOOTH",
"515 52 OFFCURVE",
"465 88 OFFCURVE",
"297 89 CURVE SMOOTH",
"255 90 OFFCURVE",
"228 92 OFFCURVE",
"217 96 CURVE SMOOTH",
"206 100 OFFCURVE",
"200 108 OFFCURVE",
"200 119 CURVE SMOOTH",
"200 130 OFFCURVE",
"203 144 OFFCURVE",
"210 161 CURVE",
"222 158 OFFCURVE",
"236 157 OFFCURVE",
"251 157 CURVE SMOOTH",
"396 157 OFFCURVE",
"462 200 OFFCURVE",
"462 333 CURVE SMOOTH",
"462 356 OFFCURVE",
"455 378 OFFCURVE",
"440 401 CURVE",
"515 395 LINE",
"515 502 LINE",
"354 497 LINE",
"338 500 LINE",
"310 507 OFFCURVE",
"282 510 OFFCURVE",
"253 510 CURVE SMOOTH",
"126 510 OFFCURVE",
"43 456 OFFCURVE",
"43 329 CURVE SMOOTH",
"43 265 OFFCURVE",
"66 217 OFFCURVE",
"111 184 CURVE",
"102 170 LINE SMOOTH",
"82 139 OFFCURVE",
"72 117 OFFCURVE",
"72 104 CURVE SMOOTH",
"72 70 OFFCURVE",
"84 45 OFFCURVE",
"109 28 CURVE",
"61 -9 OFFCURVE",
"37 -49 OFFCURVE",
"37 -91 CURVE SMOOTH",
"37 -196 OFFCURVE",
"121 -230 OFFCURVE",
"271 -230 CURVE SMOOTH"
);
},
{
closed = 1;
nodes = (
"204 -120 OFFCURVE",
"169 -106 OFFCURVE",
"169 -77 CURVE SMOOTH",
"169 -57 OFFCURVE",
"178 -38 OFFCURVE",
"196 -20 CURVE",
"286 -27 LINE",
"325 -28 OFFCURVE",
"350 -30 OFFCURVE",
"362 -35 CURVE SMOOTH",
"374 -40 OFFCURVE",
"380 -52 OFFCURVE",
"380 -70 CURVE SMOOTH",
"380 -103 OFFCURVE",
"345 -120 OFFCURVE",
"275 -120 CURVE SMOOTH"
);
},
{
closed = 1;
nodes = (
"203 259 OFFCURVE",
"177 284 OFFCURVE",
"177 333 CURVE SMOOTH",
"177 382 OFFCURVE",
"203 406 OFFCURVE",
"254 406 CURVE SMOOTH",
"305 406 OFFCURVE",
"330 382 OFFCURVE",
"330 333 CURVE SMOOTH",
"330 284 OFFCURVE",
"305 259 OFFCURVE",
"254 259 CURVE SMOOTH"
);
},
{
closed = 1;
nodes = (
"300 583 LINE",
"346 817 LINE",
"225 817 LINE",
"170 583 LINE"
);
}
);
width = 534;
}
);
leftKerningGroup = g;
rightKerningGroup = g;
unicode = 0123;
},
{
glyphname = Hcircumflex;
lastChange = "2015-07-09 23:11:24 +0000";
layers = (
{
layerId = "E174F030-6324-451A-8951-EA6336064495";
name = Bold;
paths = (
{
closed = 1;
nodes = (
"212 0 LINE",
"212 282 LINE",
"465 282 LINE",
"465 0 LINE",
"603 0 LINE",
"603 680 LINE",
"465 680 LINE",
"465 402 LINE",
"212 402 LINE",
"212 680 LINE",
"74 680 LINE",
"74 0 LINE"
);
},
{
closed = 1;
nodes = (
"288 765 LINE",
"340 821 LINE",
"389 765 LINE",
"531 765 LINE",
"397 914 LINE",
"280 914 LINE",
"146 765 LINE"
);
}
);
width = 677;
}
);
leftKerningGroup = B;
rightKerningGroup = H;
unicode = 0124;
},
{
glyphname = hcircumflex;
lastChange = "2015-07-09 23:11:24 +0000";
layers = (
{
layerId = "E174F030-6324-451A-8951-EA6336064495";
name = Bold;
paths = (
{
closed = 1;
nodes = (
"196 0 LINE",
"196 376 LINE",
"209 380 LINE SMOOTH",
"235 388 OFFCURVE",
"261 392 OFFCURVE",
"287 392 CURVE SMOOTH",
"347 392 OFFCURVE",
"362 352 OFFCURVE",
"362 268 CURVE SMOOTH",
"362 0 LINE",
"496 0 LINE",
"496 271 LINE SMOOTH",
"496 435 OFFCURVE",
"453 512 OFFCURVE",
"320 512 CURVE SMOOTH",
"283 512 OFFCURVE",
"242 500 OFFCURVE",
"196 476 CURVE",
"196 700 LINE",
"62 700 LINE",
"62 0 LINE"
);
},
{
closed = 1;
nodes = (
"230 750 LINE",
"276 817 LINE",
"322 750 LINE",
"445 750 LINE",
"317 901 LINE",
"233 901 LINE",
"107 750 LINE"
);
}
);
width = 553;
}
);
leftKerningGroup = h;
rightKerningGroup = h;
unicode = 0125;
},
{
glyphname = Hbar;
lastChange = "2015-07-09 23:11:24 +0000";
layers = (
{
layerId = "E174F030-6324-451A-8951-EA6336064495";
name = Bold;
paths = (
{
closed = 1;
nodes = (
"216 0 LINE",
"216 282 LINE",
"469 282 LINE",
"469 0 LINE",
"607 0 LINE",
"607 486 LINE",
"673 486 LINE",
"673 602 LINE",
"607 602 LINE",
"607 680 LINE",
"469 680 LINE",
"469 602 LINE",
"216 602 LINE",
"216 680 LINE",
"78 680 LINE",
"78 602 LINE",
"19 602 LINE",
"19 486 LINE",
"78 486 LINE",
"78 0 LINE"
);
},
{
closed = 1;
nodes = (
"216 486 LINE",
"469 486 LINE",
"469 402 LINE",
"216 402 LINE"
);
}
);
width = 685;
}
);
leftKerningGroup = B;
rightKerningGroup = H;
unicode = 0126;
},
{
glyphname = hbar;
lastChange = "2015-07-09 23:11:24 +0000";
layers = (
{
layerId = "E174F030-6324-451A-8951-EA6336064495";
name = Bold;
paths = (
{
closed = 1;
nodes = (
"196 0 LINE",
"196 376 LINE",
"209 380 LINE SMOOTH",
"235 388 OFFCURVE",
"261 392 OFFCURVE",
"287 392 CURVE SMOOTH",
"347 392 OFFCURVE",
"362 352 OFFCURVE",
"362 268 CURVE SMOOTH",
"362 0 LINE",
"496 0 LINE",
"496 271 LINE SMOOTH",
"496 435 OFFCURVE",
"453 512 OFFCURVE",
"320 512 CURVE SMOOTH",
"283 512 OFFCURVE",
"242 500 OFFCURVE",
"196 476 CURVE",
"196 532 LINE",
"339 532 LINE",
"339 648 LINE",
"196 648 LINE",
"196 700 LINE",
"62 700 LINE",
"62 648 LINE",
"12 648 LINE",
"12 532 LINE",
"62 532 LINE",
"62 0 LINE"
);
}
);
width = 553;
}
);
leftKerningGroup = h;
rightKerningGroup = h;
unicode = 0127;
},
{
glyphname = Itilde;
lastChange = "2015-07-09 23:11:24 +0000";
layers = (
{
layerId = "E174F030-6324-451A-8951-EA6336064495";
name = Bold;
paths = (
{
closed = 1;
nodes = (
"212 0 LINE",
"212 680 LINE",
"74 680 LINE",
"74 0 LINE"
);
},
{
closed = 1;
nodes = (
"242 758 OFFCURVE",
"261 765 OFFCURVE",
"282 778 CURVE SMOOTH",
"303 791 OFFCURVE",
"320 805 OFFCURVE",
"334 821 CURVE",
"305 918 LINE",
"290 908 LINE",
"261 887 OFFCURVE",
"239 876 OFFCURVE",
"224 876 CURVE SMOOTH",
"217 876 OFFCURVE",
"193 884 OFFCURVE",
"152 899 CURVE SMOOTH",
"111 914 OFFCURVE",
"81 922 OFFCURVE",
"62 922 CURVE SMOOTH",
"22 922 OFFCURVE",
"-24 890 OFFCURVE",
"-51 858 CURVE",
"-22 762 LINE",
"-8 772 LINE SMOOTH",
"20 793 OFFCURVE",
"42 804 OFFCURVE",
"59 804 CURVE SMOOTH",
"68 804 OFFCURVE",
"93 796 OFFCURVE",
"136 781 CURVE SMOOTH",
"178 766 OFFCURVE",
"208 758 OFFCURVE",
"225 758 CURVE SMOOTH"
);
}
);
width = 286;
}
);
leftKerningGroup = B;
rightKerningGroup = H;
unicode = 0128;
},
{
glyphname = itilde;
lastChange = "2015-07-09 23:11:24 +0000";
layers = (
{
layerId = "E174F030-6324-451A-8951-EA6336064495";
name = Bold;
paths = (
{
closed = 1;
nodes = (
"196 0 LINE",
"196 500 LINE",
"62 500 LINE",
"62 0 LINE"
);
},
{
closed = 1;
nodes = (
"228 585 OFFCURVE",
"273 616 OFFCURVE",
"286 630 CURVE",
"293 637 OFFCURVE",
"298 642 OFFCURVE",
"302 647 CURVE",
"273 723 LINE",
"259 714 LINE SMOOTH",
"231 697 OFFCURVE",
"209 689 OFFCURVE",
"193 689 CURVE SMOOTH",
"185 689 OFFCURVE",
"166 695 OFFCURVE",
"135 707 CURVE SMOOTH",
"104 719 OFFCURVE",
"81 725 OFFCURVE",
"66 725 CURVE SMOOTH",
"36 725 OFFCURVE",
"-11 696 OFFCURVE",
"-38 665 CURVE",
"-9 590 LINE",
"4 598 LINE SMOOTH",
"29 613 OFFCURVE",
"51 621 OFFCURVE",
"70 621 CURVE SMOOTH",
"79 621 OFFCURVE",
"98 615 OFFCURVE",
"129 603 CURVE SMOOTH",
"160 591 OFFCURVE",
"183 585 OFFCURVE",
"198 585 CURVE SMOOTH"
);
}
);
width = 258;
}
);
leftKerningGroup = i;
rightKerningGroup = numbersign;
unicode = 0129;
},
{
glyphname = Imacron;
lastChange = "2015-07-09 23:11:24 +0000";
layers = (
{
layerId = "E174F030-6324-451A-8951-EA6336064495";
name = Bold;
paths = (
{
closed = 1;
nodes = (
"212 0 LINE",
"212 680 LINE",
"74 680 LINE",
"74 0 LINE"
);
},
{
closed = 1;
nodes = (
"320 782 LINE",
"320 880 LINE",
"-27 880 LINE",
"-27 782 LINE"
);
}
);
width = 286;
}
);
leftKerningGroup = B;
rightKerningGroup = H;
unicode = 012A;
},
{
glyphname = imacron;
lastChange = "2015-07-09 23:11:24 +0000";
layers = (
{
layerId = "E174F030-6324-451A-8951-EA6336064495";
name = Bold;
paths = (
{
closed = 1;
nodes = (
"196 0 LINE",
"196 500 LINE",
"62 500 LINE",
"62 0 LINE"
);
},
{
closed = 1;
nodes = (
"273 597 LINE",
"273 697 LINE",
"-14 697 LINE",
"-14 597 LINE"
);
}
);
width = 258;
}
);
leftKerningGroup = i;
rightKerningGroup = numbersign;
unicode = 012B;
},
{
glyphname = Ibreve;
lastChange = "2015-07-09 23:11:24 +0000";
layers = (
{
layerId = "E174F030-6324-451A-8951-EA6336064495";
name = Bold;
paths = (
{
closed = 1;
nodes = (
"212 0 LINE",
"212 680 LINE",
"74 680 LINE",
"74 0 LINE"
);
},
{
closed = 1;
nodes = (
"275 759 OFFCURVE",
"336 819 OFFCURVE",
"347 910 CURVE",
"226 910 LINE",
"222 877 OFFCURVE",
"197 853 OFFCURVE",
"161 853 CURVE SMOOTH",
"124 853 OFFCURVE",
"100 877 OFFCURVE",
"95 910 CURVE",
"-26 910 LINE",
"-15 819 OFFCURVE",
"45 759 OFFCURVE",
"160 759 CURVE SMOOTH"
);
}
);
width = 286;
}
);
leftKerningGroup = B;
rightKerningGroup = H;
unicode = 012C;
},
{
glyphname = ibreve;
lastChange = "2015-07-09 23:11:23 +0000";
layers = (
{
layerId = "E174F030-6324-451A-8951-EA6336064495";
name = Bold;
paths = (
{
closed = 1;
nodes = (
"196 0 LINE",
"196 500 LINE",
"62 500 LINE",
"62 0 LINE"
);
},
{
closed = 1;
nodes = (
"224 573 OFFCURVE",
"282 643 OFFCURVE",
"293 730 CURVE",
"192 730 LINE",
"187 686 OFFCURVE",
"166 664 OFFCURVE",
"129 664 CURVE SMOOTH",
"94 664 OFFCURVE",
"71 689 OFFCURVE",
"66 730 CURVE",
"-35 730 LINE",
"-24 643 OFFCURVE",
"34 573 OFFCURVE",
"129 573 CURVE SMOOTH"
);
}
);
width = 258;
}
);
leftKerningGroup = i;
rightKerningGroup = numbersign;
unicode = 012D;
},
{
glyphname = Iogonek;
lastChange = "2015-07-09 23:11:24 +0000";
layers = (
{
layerId = "E174F030-6324-451A-8951-EA6336064495";
name = Bold;
paths = (
{
closed = 1;
nodes = (
"157 -216 OFFCURVE",
"192 -212 OFFCURVE",
"231 -205 CURVE",
"219 -110 LINE",
"177 -114 LINE",
"156 -114 OFFCURVE",
"145 -103 OFFCURVE",
"145 -81 CURVE SMOOTH",
"145 -60 OFFCURVE",
"180 -20 OFFCURVE",
"212 0 CURVE",
"212 680 LINE",
"74 680 LINE",
"74 0 LINE",
"88 0 LINE",
"43 -36 OFFCURVE",
"20 -76 OFFCURVE",
"20 -120 CURVE SMOOTH",
"20 -179 OFFCURVE",
"66 -216 OFFCURVE",
"127 -216 CURVE SMOOTH"
);
}
);
width = 286;
}
);
leftKerningGroup = B;
rightKerningGroup = H;
unicode = 012E;
},
{
glyphname = iogonek;
lastChange = "2015-07-09 23:11:24 +0000";
layers = (
{
layerId = "E174F030-6324-451A-8951-EA6336064495";
name = Bold;
paths = (
{
closed = 1;
nodes = (
"141 -216 OFFCURVE",
"176 -212 OFFCURVE",
"215 -205 CURVE",
"203 -110 LINE",
"161 -114 LINE",
"140 -114 OFFCURVE",
"129 -103 OFFCURVE",
"129 -81 CURVE SMOOTH",
"129 -60 OFFCURVE",
"164 -20 OFFCURVE",
"196 0 CURVE",
"196 500 LINE",
"62 500 LINE",
"62 0 LINE",
"74 0 LINE",
"27 -35 OFFCURVE",
"4 -75 OFFCURVE",
"4 -120 CURVE SMOOTH",
"4 -179 OFFCURVE",
"50 -216 OFFCURVE",
"111 -216 CURVE SMOOTH"
);
},
{
closed = 1;
nodes = (
"196 564 LINE",
"196 700 LINE",
"62 700 LINE",
"62 564 LINE"
);
}
);
width = 258;
}
);
leftKerningGroup = i;
rightKerningGroup = numbersign;
unicode = 012F;
},
{
glyphname = Idotaccent;
lastChange = "2015-07-09 23:11:24 +0000";
layers = (
{
layerId = "E174F030-6324-451A-8951-EA6336064495";
name = Bold;
paths = (
{
closed = 1;
nodes = (
"212 0 LINE",
"212 680 LINE",
"74 680 LINE",
"74 0 LINE"
);
},
{
closed = 1;
nodes = (
"210 767 LINE",
"210 902 LINE",
"76 902 LINE",
"76 767 LINE"
);
}
);
width = 286;
}
);
leftKerningGroup = B;
rightKerningGroup = H;
unicode = 0130;
},
{
glyphname = dotlessi;
lastChange = "2015-07-09 23:11:24 +0000";
layers = (
{
layerId = "E174F030-6324-451A-8951-EA6336064495";
name = Bold;
paths = (
{
closed = 1;
nodes = (
"196 0 LINE",
"196 500 LINE",
"62 500 LINE",
"62 0 LINE"
);
}
);
width = 258;
}
);
leftKerningGroup = i;
rightKerningGroup = numbersign;
unicode = 0131;
},
{
glyphname = Jcircumflex;
lastChange = "2015-07-09 23:11:24 +0000";
layers = (
{
layerId = "E174F030-6324-451A-8951-EA6336064495";
name = Bold;
paths = (
{
closed = 1;
nodes = (
"175 -70 OFFCURVE",
"233 -30 OFFCURVE",
"233 115 CURVE SMOOTH",
"232 680 LINE",
"95 680 LINE",
"95 121 LINE SMOOTH",
"95 66 OFFCURVE",
"72 50 OFFCURVE",
"19 50 CURVE",
"19 -70 LINE"
);
},
{
closed = 1;
nodes = (
"113 765 LINE",
"165 821 LINE",
"214 765 LINE",
"356 765 LINE",
"222 914 LINE",
"105 914 LINE",
"-29 765 LINE"
);
}
);
width = 302;
}
);
leftKerningGroup = J;
rightKerningGroup = J;
unicode = 0134;
},
{
glyphname = jcircumflex;
lastChange = "2015-07-09 23:11:23 +0000";
layers = (
{
layerId = "E174F030-6324-451A-8951-EA6336064495";
name = Bold;
paths = (
{
closed = 1;
nodes = (
"162 -158 OFFCURVE",
"197 -113 OFFCURVE",
"197 23 CURVE SMOOTH",
"197 500 LINE",
"63 500 LINE",
"63 24 LINE SMOOTH",
"63 -5 OFFCURVE",
"60 -28 OFFCURVE",
"55 -43 CURVE SMOOTH",
"44 -75 OFFCURVE",
"26 -91 OFFCURVE",
"-34 -131 CURVE",
"19 -230 LINE"
);
},
{
closed = 1;
nodes = (
"86 580 LINE",
"132 647 LINE",
"178 580 LINE",
"301 580 LINE",
"173 731 LINE",
"89 731 LINE",
"-37 580 LINE"
);
}
);
width = 259;
}
);
leftKerningGroup = i;
rightKerningGroup = numbersign;
unicode = 0135;
},
{
glyphname = Kcommaaccent;
lastChange = "2015-07-09 23:11:24 +0000";
layers = (
{
layerId = "E174F030-6324-451A-8951-EA6336064495";
name = Bold;
paths = (
{
closed = 1;
nodes = (
"212 0 LINE",
"212 261 LINE",
"304 271 LINE",
"418 0 LINE",
"577 0 LINE",
"425 347 LINE",
"573 690 LINE",
"414 690 LINE",
"302 404 LINE",
"212 394 LINE",
"212 690 LINE",
"74 690 LINE",
"74 0 LINE"
);
},
{
closed = 1;
nodes = (
"320 -311 LINE",
"375 -77 LINE",
"245 -77 LINE",
"199 -311 LINE"
);
}
);
width = 591;
}
);
leftKerningGroup = B;
rightKerningGroup = K;
unicode = 0136;
},
{
glyphname = kcommaaccent;
lastChange = "2015-07-09 23:11:24 +0000";
layers = (
{
layerId = "E174F030-6324-451A-8951-EA6336064495";
name = Bold;
paths = (
{
closed = 1;
nodes = (
"196 0 LINE",
"196 186 LINE",
"251 195 LINE",
"352 0 LINE",
"503 0 LINE",
"366 263 LINE",
"496 500 LINE",
"346 500 LINE",
"247 311 LINE",
"196 302 LINE",
"196 700 LINE",
"62 700 LINE",
"62 0 LINE"
);
},
{
closed = 1;
nodes = (
"111 -311 LINE",
"166 -77 LINE",
"36 -77 LINE",
"-10 -311 LINE"
);
}
);
width = 515;
}
);
leftKerningGroup = h;
rightKerningGroup = k;
unicode = 0137;
},
{
glyphname = Lacute;
lastChange = "2015-07-09 23:11:24 +0000";
layers = (
{
layerId = "E174F030-6324-451A-8951-EA6336064495";
name = Bold;
paths = (
{
closed = 1;
nodes = (
"461 0 LINE",
"461 133 LINE",
"212 133 LINE",
"212 690 LINE",
"74 690 LINE",
"74 0 LINE"
);
},
{
closed = 1;
nodes = (
"403 825 LINE",
"362 945 LINE",
"110 839 LINE",
"143 746 LINE"
);
}
);
width = 473;
}
);
leftKerningGroup = B;
rightKerningGroup = L;
unicode = 0139;
},
{
glyphname = lacute;
lastChange = "2015-07-09 23:11:24 +0000";
layers = (
{
layerId = "E174F030-6324-451A-8951-EA6336064495";
name = Bold;
paths = (
{
closed = 1;
nodes = (
"202 0 LINE",
"202 700 LINE",
"68 700 LINE",
"68 0 LINE"
);
},
{
closed = 1;
nodes = (
"333 848 LINE",
"293 963 LINE",
"41 861 LINE",
"71 774 LINE"
);
}
);
width = 270;
}
);
leftKerningGroup = l;
rightKerningGroup = numbersign;
unicode = 013A;
},
{
glyphname = Lcommaaccent;
lastChange = "2015-07-09 23:11:23 +0000";
layers = (
{
layerId = "E174F030-6324-451A-8951-EA6336064495";
name = Bold;
paths = (
{
closed = 1;
nodes = (
"461 0 LINE",
"461 122 LINE",
"212 122 LINE",
"212 680 LINE",
"74 680 LINE",
"74 0 LINE"
);
},
{
closed = 1;
nodes = (
"279 -311 LINE",
"334 -77 LINE",
"204 -77 LINE",
"158 -311 LINE"
);
}
);
width = 472;
}
);
leftKerningGroup = B;
rightKerningGroup = L;
unicode = 013B;
},
{
glyphname = lcommaaccent;
lastChange = "2015-07-09 23:11:24 +0000";
layers = (
{
layerId = "E174F030-6324-451A-8951-EA6336064495";
name = Bold;
paths = (
{
closed = 1;
nodes = (
"202 0 LINE",
"202 700 LINE",
"68 700 LINE",
"68 0 LINE"
);
},
{
closed = 1;
nodes = (
"141 -311 LINE",
"196 -77 LINE",
"66 -77 LINE",
"20 -311 LINE"
);
}
);
width = 270;
}
);
leftKerningGroup = l;
rightKerningGroup = numbersign;
unicode = 013C;
},
